<svg width="440" height="956" viewBox="0 0 440 956" fill="none" xmlns="http://www.w3.org/2000/svg">
<g clip-path="url(#clip0_263_3366)">
<path d="M492.008 956C503.7 943.023 514.012 925.358 522.565 909.967C561.244 840.272 558.847 749.637 516.495 682.096C509.442 670.842 501.234 659.847 498.371 646.887C492.198 618.916 512.115 592.84 523.376 566.506C536.344 536.191 567.608 455.518 502.303 449.779C487.49 448.469 472.436 451.313 458.554 456.638C429.17 467.909 406.338 491.572 378.54 506.324C350.742 521.06 311.063 523.834 292.387 498.517C275.143 475.165 285.627 441.317 303.096 418.137C320.547 394.957 344.396 376.189 356.726 349.924C369.056 323.659 363.192 284.985 335.584 275.989C291.438 261.616 257.001 334.223 211.39 325.589C191.938 321.918 178.419 303.96 170.676 285.761C162.933 267.561 158.863 247.639 148.31 230.904C122.667 190.283 62.0189 181.063 20.4599 205.174C-21.0992 229.284 -43.1893 279.195 -43.034 327.209C-42.9478 354.939 -39.3438 389.132 -62.8134 403.919C-90.7148 421.498 -126.928 392.251 -159.279 398.731C-191.595 405.194 -206.321 445.505 -199.855 477.802C-193.388 510.099 -172.746 537.415 -158.14 566.937C-143.552 596.459 -135.499 633.685 -153.812 661.071C-168.573 683.148 -196.751 692.988 -212.512 714.359C-228.825 736.47 -228.756 766.527 -224.807 793.705C-219.703 828.811 -209.046 863.056 -193.681 895.008C-185.335 912.363 -173.591 934.337 -159.365 955.328L492.025 956H492.008Z" fill="white" fill-opacity="0.1"/>
</g>
<defs>
<clipPath id="clip0_263_3366">
<rect width="440" height="956" fill="white"/>
</clipPath>
</defs>
</svg>
