<svg width="218" height="218" viewBox="0 0 218 218" fill="none" xmlns="http://www.w3.org/2000/svg">
<g clip-path="url(#clip0_134_853)">
<path d="M0 0H218V218H0V0Z" fill="white"/>
<path d="M68.4048 130.186C68.6182 129.544 68.8706 128.944 69.1558 128.333L70.2063 129.319C70.0257 129.796 69.8687 130.284 69.5907 130.715C69.2153 130.508 68.7988 130.355 68.4048 130.187V130.186Z" fill="#304C80"/>
<path d="M150.647 102.521C151.11 102.491 151.482 102.434 151.859 102.76C152.074 102.944 152.198 103.175 152.186 103.465C152.167 103.905 151.949 104.199 151.656 104.501C151.365 104.486 151.057 104.465 150.798 104.319C150.521 104.163 150.258 103.897 150.214 103.569C150.157 103.145 150.386 102.821 150.648 102.522L150.647 102.521Z" fill="#379AEB"/>
<path d="M139.858 96.9509C140.28 96.994 140.655 97.074 140.964 97.388C141.152 97.5777 141.271 97.8301 141.237 98.102C141.186 98.5205 140.861 98.7206 140.545 98.937C140.436 98.937 140.326 98.9391 140.218 98.935C139.847 98.9206 139.496 98.8529 139.259 98.5318C139.091 98.303 139.019 98.0968 139.085 97.8127C139.189 97.3664 139.496 97.1787 139.856 96.9509H139.858Z" fill="#379AEB"/>
<path d="M195.861 125.41C196.099 125.399 196.348 125.384 196.583 125.431C197.062 125.526 197.516 125.837 197.771 126.254C198.029 126.678 198.07 127.182 197.927 127.651C197.722 128.318 197.219 128.655 196.624 128.95C196.381 128.946 196.126 128.948 195.887 128.898C195.425 128.8 194.988 128.498 194.737 128.099C194.481 127.691 194.431 127.22 194.561 126.761C194.757 126.062 195.251 125.73 195.862 125.411L195.861 125.41Z" fill="#F55F50"/>
<path d="M56.7149 30.0266C57.1458 29.9723 57.6566 29.9302 58.0732 30.0789C58.5769 30.2595 59.0098 30.6627 59.2334 31.1469C59.2622 31.2084 59.2878 31.271 59.3093 31.3356C59.3319 31.3993 59.3504 31.4649 59.3658 31.5306C59.3812 31.5962 59.3935 31.6629 59.4027 31.7306C59.4119 31.7983 59.4171 31.865 59.4191 31.9337C59.4212 32.0014 59.4191 32.0692 59.415 32.1369C59.4099 32.2046 59.4017 32.2723 59.3904 32.339C59.3791 32.4056 59.3637 32.4723 59.3452 32.537C59.3268 32.6026 59.3052 32.6662 59.2806 32.7298C59.0077 33.4079 58.5533 33.7085 57.8988 33.966C57.5223 34.0481 57.1827 34.1086 56.8011 34.0183C56.7426 34.005 56.6841 33.9886 56.6267 33.9691C56.5692 33.9496 56.5138 33.9281 56.4584 33.9024C56.403 33.8778 56.3497 33.8501 56.2974 33.8193C56.245 33.7896 56.1948 33.7567 56.1455 33.7208C56.0963 33.6859 56.0501 33.648 56.005 33.608C55.9598 33.568 55.9167 33.5259 55.8757 33.4808C55.8347 33.4367 55.7967 33.3895 55.7598 33.3412C55.7239 33.293 55.69 33.2428 55.6592 33.1915C55.3515 32.6713 55.3022 32.0476 55.4623 31.4721C55.6613 30.7519 56.0942 30.3949 56.7139 30.0276L56.7149 30.0266Z" fill="#FCAE23"/>
<path d="M113.223 168.634C113.565 168.634 113.908 168.66 114.23 168.786C114.747 168.991 115.154 169.369 115.349 169.895C115.54 170.41 115.5 170.969 115.265 171.464C114.928 172.176 114.359 172.492 113.644 172.744C113.217 172.76 112.795 172.697 112.418 172.484C112.357 172.449 112.297 172.412 112.24 172.371C112.182 172.331 112.127 172.287 112.074 172.241C112.02 172.194 111.969 172.146 111.921 172.095C111.872 172.044 111.826 171.99 111.783 171.935C111.74 171.879 111.699 171.822 111.662 171.762C111.624 171.703 111.59 171.641 111.559 171.579C111.527 171.516 111.499 171.452 111.473 171.386C111.449 171.32 111.426 171.254 111.408 171.186C111.258 170.638 111.333 170.055 111.637 169.574C112.007 168.988 112.574 168.77 113.223 168.634Z" fill="#1CBA88"/>
<path d="M14.5706 86.7651C14.8681 86.7548 15.1882 86.7312 15.4816 86.7907C16.0489 86.9056 16.6111 87.2924 16.8901 87.8022C17.1579 88.2895 17.1794 88.8537 17.0009 89.3739C16.7362 90.1412 16.2141 90.5064 15.5144 90.8563C15.1697 90.8727 14.8281 90.8665 14.4926 90.7752C13.9387 90.6234 13.4627 90.2818 13.1887 89.7688C12.9292 89.2836 12.8974 88.7194 13.079 88.2013C13.3375 87.4657 13.8966 87.0872 14.5706 86.7651Z" fill="#FCAE23"/>
<path d="M167.689 122.855C168.056 122.867 168.386 122.895 168.73 123.038C169.253 123.257 169.688 123.679 169.895 124.21C169.921 124.274 169.944 124.341 169.962 124.409C169.98 124.476 169.996 124.544 170.008 124.613C170.02 124.682 170.029 124.751 170.033 124.821C170.038 124.891 170.039 124.961 170.037 125.03C170.035 125.1 170.029 125.17 170.019 125.24C170.01 125.309 169.997 125.377 169.98 125.446C169.964 125.514 169.945 125.581 169.921 125.647C169.897 125.713 169.872 125.778 169.842 125.841C169.541 126.488 169.05 126.787 168.397 127.007C167.927 127.012 167.458 127.004 167.028 126.792C166.54 126.551 166.153 126.075 166.006 125.552C165.854 125.011 165.923 124.403 166.208 123.917C166.565 123.31 167.028 123.036 167.689 122.854V122.855Z" fill="#F55F50"/>
<path d="M142.395 17.6789C142.82 17.6595 143.242 17.7364 143.616 17.9436C143.68 17.9795 143.74 18.0175 143.8 18.0595C143.859 18.1016 143.917 18.1457 143.971 18.1939C144.027 18.2411 144.079 18.2914 144.128 18.3447C144.179 18.3971 144.226 18.4525 144.27 18.5099C144.314 18.5674 144.356 18.6269 144.394 18.6884C144.432 18.75 144.468 18.8136 144.5 18.8782C144.531 18.9439 144.56 19.0105 144.586 19.0782C144.611 19.146 144.633 19.2157 144.651 19.2855C144.671 19.3552 144.686 19.425 144.698 19.4958C144.71 19.5666 144.718 19.6384 144.723 19.7102C144.728 19.782 144.729 19.8538 144.727 19.9256C144.725 19.9974 144.719 20.0693 144.71 20.14C144.701 20.2108 144.687 20.2816 144.671 20.3524C144.655 20.4222 144.634 20.4909 144.61 20.5596C144.587 20.6273 144.56 20.694 144.53 20.7597C144.501 20.8253 144.467 20.8889 144.43 20.9505C144.069 21.5537 143.581 21.7589 142.926 21.924C142.548 21.8892 142.105 21.8451 141.763 21.6737C141.212 21.3988 140.786 20.853 140.617 20.2662C140.462 19.7307 140.528 19.1603 140.819 18.6823C141.185 18.0801 141.737 17.84 142.395 17.6779V17.6789Z" fill="#45B9F8"/>
<path d="M16.7793 146.153C17.2574 146.177 17.7457 146.285 18.1479 146.558C18.2125 146.602 18.2751 146.649 18.3346 146.7C18.3941 146.75 18.4515 146.805 18.5049 146.861C18.5592 146.918 18.6095 146.977 18.6577 147.04C18.7049 147.101 18.7501 147.166 18.7901 147.233C18.8311 147.299 18.868 147.368 18.9019 147.439C18.9357 147.51 18.9655 147.581 18.9911 147.655C19.0168 147.729 19.0394 147.804 19.0568 147.88C19.0753 147.956 19.0886 148.033 19.0989 148.111C19.1707 148.671 19.0342 149.262 18.6793 149.706C18.2515 150.241 17.8298 150.39 17.1692 150.479C16.7075 150.461 16.2161 150.426 15.8058 150.197C15.7514 150.167 15.6981 150.134 15.6468 150.098C15.5955 150.062 15.5462 150.024 15.498 149.983C15.4508 149.942 15.4047 149.9 15.3616 149.855C15.3185 149.81 15.2764 149.762 15.2385 149.713C15.1995 149.664 15.1636 149.614 15.1287 149.56C15.0948 149.508 15.063 149.454 15.0343 149.398C15.0056 149.343 14.9799 149.285 14.9563 149.228C14.9327 149.169 14.9133 149.111 14.8958 149.05C14.7378 148.49 14.8343 147.88 15.1154 147.375C15.5001 146.687 16.0417 146.358 16.7804 146.153H16.7793Z" fill="#1CBA88"/>
<path d="M119.641 23.222C120.017 23.1881 120.427 23.1543 120.797 23.2456C121.34 23.38 121.846 23.7595 122.121 24.2479C122.158 24.3135 122.191 24.3802 122.22 24.4489C122.249 24.5177 122.275 24.5885 122.296 24.6592C122.318 24.7311 122.336 24.8039 122.351 24.8767C122.365 24.9506 122.375 25.0245 122.382 25.0983C122.388 25.1732 122.391 25.2481 122.389 25.323C122.388 25.3979 122.382 25.4728 122.372 25.5466C122.363 25.6205 122.35 25.6944 122.332 25.7672C122.315 25.84 122.294 25.9118 122.269 25.9826C122 26.7623 121.432 27.1778 120.71 27.5122C120.19 27.6292 119.632 27.5584 119.174 27.2793C118.465 26.8485 118.21 26.117 118.006 25.364C118.07 25.1291 118.13 24.8931 118.209 24.6623C118.466 23.9093 118.955 23.5636 119.64 23.221L119.641 23.222Z" fill="#1CBA88"/>
<path d="M98.2488 194.747C99.0541 193.949 99.9517 193.193 100.914 192.591C101.759 193.325 102.62 194.048 103.45 194.799C102.804 195.448 101.656 196.306 101.589 197.283C101.682 197.569 101.838 197.675 102.065 197.852C102.018 197.867 101.971 197.886 101.921 197.898C101.152 198.076 98.1041 196.188 97.3142 195.712L98.2488 194.747Z" fill="#D74442"/>
<path d="M126.931 62.1286C126.581 62.0085 126.245 61.8854 125.932 61.6813C125.388 61.3263 124.922 60.837 124.802 60.1784C124.685 59.5403 124.867 58.8888 125.237 58.3636C125.29 58.2887 125.347 58.2169 125.407 58.1471C125.467 58.0774 125.531 58.0117 125.598 57.9481C125.664 57.8855 125.734 57.825 125.808 57.7696C125.881 57.7132 125.957 57.6609 126.035 57.6126C126.113 57.5644 126.194 57.5193 126.276 57.4783C126.359 57.4372 126.443 57.4013 126.529 57.3685C126.615 57.3357 126.703 57.308 126.792 57.2844C126.881 57.2608 126.97 57.2413 127.062 57.2269C127.59 57.1438 128.133 57.2269 128.558 57.5655C129.261 58.1246 129.349 58.8611 129.418 59.6911C128.832 60.8278 128.192 61.6987 126.933 62.1275L126.931 62.1286Z" fill="#D6845A"/>
<path d="M65.2707 90.3823C65.6698 90.3587 66.0791 90.3228 66.4659 90.4469C66.5408 90.4715 66.6146 90.4992 66.6875 90.531C66.7603 90.5628 66.8301 90.5987 66.8988 90.6387C66.9675 90.6777 67.0332 90.7208 67.0978 90.768C67.1625 90.8142 67.224 90.8644 67.2825 90.9168C67.341 90.9701 67.3974 91.0255 67.4507 91.084C67.5041 91.1424 67.5533 91.204 67.6005 91.2686C67.6477 91.3322 67.6908 91.3989 67.7298 91.4676C67.7698 91.5364 67.8057 91.6061 67.8375 91.679C67.8734 91.76 67.9052 91.8421 67.9329 91.9262C67.9606 92.0103 67.9832 92.0955 68.0016 92.1817C68.0201 92.2678 68.0345 92.355 68.0437 92.4433C68.0529 92.5315 68.0581 92.6197 68.0581 92.7079C68.0581 92.7962 68.054 92.8844 68.0447 92.9726C68.0355 93.0608 68.0222 93.148 68.0037 93.2342C67.9852 93.3204 67.9627 93.4066 67.936 93.4907C67.9093 93.5748 67.8775 93.6569 67.8416 93.7379C67.5256 94.4366 67.0158 94.7966 66.3151 95.0552C65.9314 95.0818 65.5231 95.1331 65.1538 95.0018C65.0768 94.9741 65.0009 94.9433 64.9271 94.9085C64.8532 94.8736 64.7814 94.8356 64.7106 94.7936C64.6409 94.7515 64.5721 94.7064 64.5065 94.6571C64.4408 94.6089 64.3782 94.5566 64.3177 94.5012C64.2572 94.4458 64.1997 94.3883 64.1453 94.3268C64.091 94.2663 64.0387 94.2027 63.9904 94.137C63.9422 94.0713 63.8971 94.0026 63.855 93.9328C63.813 93.8621 63.775 93.7903 63.7412 93.7164C63.4683 93.1203 63.42 92.4299 63.6632 91.8154C63.9648 91.0532 64.5495 90.6972 65.2707 90.3833V90.3823Z" fill="#379AEB"/>
<path d="M144.739 171.09C145.499 171.061 146.628 170.875 147.264 171.413C147.537 171.644 147.67 171.933 147.684 172.285C147.718 173.1 147.27 173.943 147.621 174.732C147.748 174.798 147.844 174.848 147.984 174.883H142.174L142.111 171.197C142.753 171.202 144.24 171.388 144.738 171.09H144.739Z" fill="#4774BA"/>
<path d="M193.514 66.8701C194.292 66.8147 195.06 66.9501 195.747 67.3317C195.846 67.3871 195.942 67.4466 196.037 67.5123C196.13 67.5769 196.221 67.6466 196.307 67.7215C196.393 67.7964 196.476 67.8744 196.554 67.9575C196.632 68.0406 196.706 68.1268 196.775 68.217C196.845 68.3073 196.909 68.4017 196.968 68.4992C197.028 68.5966 197.082 68.6961 197.131 68.7987C197.181 68.9013 197.225 69.007 197.263 69.1137C197.301 69.2214 197.334 69.3301 197.361 69.4409C197.39 69.5517 197.413 69.6635 197.429 69.7764C197.446 69.8892 197.458 70.0021 197.463 70.1159C197.469 70.2298 197.469 70.3437 197.463 70.4576C197.458 70.5714 197.446 70.6853 197.43 70.7982C197.414 70.911 197.391 71.0228 197.363 71.1336C197.336 71.2444 197.302 71.3532 197.264 71.4609C197.225 71.5686 197.182 71.6732 197.133 71.7768C197.083 71.8794 197.029 71.98 196.97 72.0774C196.411 72.9925 195.558 73.5044 194.54 73.765C193.626 73.7978 192.848 73.7547 192.043 73.2685C191.946 73.21 191.851 73.1464 191.76 73.0787C191.669 73.011 191.581 72.9381 191.497 72.8612C191.413 72.7843 191.333 72.7032 191.258 72.6191C191.182 72.5339 191.112 72.4457 191.044 72.3534C190.977 72.2611 190.915 72.1657 190.858 72.0682C190.801 71.9697 190.748 71.8692 190.701 71.7656C190.654 71.6619 190.612 71.5563 190.576 71.4486C190.54 71.3408 190.508 71.2311 190.484 71.1203C190.459 71.0074 190.441 70.8946 190.427 70.7807C190.414 70.6668 190.406 70.5519 190.404 70.437C190.402 70.3221 190.405 70.2072 190.414 70.0923C190.423 69.9774 190.438 69.8636 190.457 69.7507C190.477 69.6379 190.502 69.525 190.533 69.4153C190.564 69.3045 190.6 69.1957 190.642 69.088C190.684 68.9813 190.73 68.8757 190.782 68.7731C190.835 68.6705 190.891 68.571 190.953 68.4735C191.564 67.5235 192.457 67.1091 193.517 66.8721L193.514 66.8701Z" fill="#1CBA88"/>
<path d="M107.189 10.1379C107.864 10.0958 108.577 10.3061 109.149 10.6601C109.98 11.174 110.549 12.1158 110.73 13.0647C110.931 14.1204 110.65 15.2447 110.015 16.1065C109.379 16.9692 108.593 17.3468 107.559 17.516C106.787 17.474 106.084 17.2986 105.423 16.8831C104.636 16.3886 104.034 15.6058 103.841 14.6887C103.619 13.6341 103.892 12.4492 104.522 11.5803C105.208 10.6344 106.094 10.3318 107.189 10.1399V10.1379Z" fill="#FDD79D"/>
<path d="M130.283 174.869C130.597 174.825 130.91 174.778 131.222 174.726C131.59 174.068 131.242 173.173 131.212 172.45C131.196 172.058 131.301 171.615 131.615 171.352C131.847 171.157 132 171.134 132.295 171.105C133.82 170.96 135.452 171.108 136.989 171.116L144.739 171.09C144.241 171.388 142.754 171.202 142.112 171.197L142.175 174.882L130.283 174.869Z" fill="#379AEB"/>
<path d="M44.1335 37.135C44.4402 37.4941 45.502 41.9638 45.7369 42.841C47.2593 43.0051 50.3801 43.6483 51.7332 44.1777C49.6342 44.4557 47.6163 45.2395 45.5184 45.5278C45.1881 47.3959 44.6423 49.3071 44.1314 51.1352L44.0227 51.1537C43.441 50.1771 42.8993 46.8388 42.609 45.536C40.5747 45.0897 38.5506 44.6004 36.5368 44.0669C38.5209 43.753 40.5572 43.0482 42.5546 42.9661L44.1345 37.1371L44.1335 37.135Z" fill="#45B9F8"/>
<path d="M147.985 174.883C148.31 174.921 148.549 174.969 148.754 175.248C148.953 175.519 149.027 175.847 149.107 176.167C148.929 176.589 148.803 177.014 148.358 177.22C148.152 177.316 147.944 177.339 147.722 177.368C146.304 177.17 144.76 177.334 143.327 177.317L130.481 177.235C130.277 177.193 130.008 177.074 129.86 176.919C129.665 176.714 129.575 176.447 129.582 176.168C129.596 175.607 129.877 175.223 130.283 174.869L142.175 174.882H147.985V174.883Z" fill="#304C80"/>
<path d="M130.48 177.234L143.326 177.316C144.759 177.334 146.303 177.169 147.721 177.368C147.648 180.356 147.765 183.34 147.724 186.327C145.853 186.134 143.851 186.26 141.966 186.258C141.929 183.292 141.984 180.316 142.039 177.35C138.491 177.294 134.888 177.228 131.345 177.379C131.056 177.346 130.765 177.285 130.479 177.235L130.48 177.234Z" fill="#4774BA"/>
<path d="M127.469 148.507C128.452 148.455 129.316 148.404 130.238 148.833C131.232 149.296 132.023 150.199 132.373 151.237C132.725 152.278 132.602 153.468 132.104 154.441C131.503 155.617 130.501 156.27 129.283 156.662C128.378 156.713 127.548 156.708 126.694 156.341C126.63 156.314 126.566 156.284 126.503 156.253C126.44 156.222 126.377 156.19 126.316 156.156C126.254 156.122 126.194 156.086 126.134 156.048C126.075 156.011 126.016 155.972 125.959 155.931C125.901 155.891 125.845 155.849 125.79 155.806C125.734 155.763 125.68 155.718 125.626 155.671C125.573 155.625 125.522 155.578 125.472 155.529C125.421 155.48 125.372 155.43 125.324 155.379C125.276 155.328 125.229 155.275 125.184 155.221C125.139 155.168 125.095 155.112 125.053 155.057C125.011 155.001 124.97 154.944 124.93 154.886C124.89 154.827 124.852 154.769 124.816 154.708C124.779 154.648 124.744 154.587 124.711 154.526C124.678 154.464 124.647 154.401 124.616 154.338C124.586 154.274 124.557 154.21 124.531 154.145C124.504 154.08 124.48 154.015 124.456 153.948C124.086 152.893 124.202 151.712 124.706 150.72C125.29 149.573 126.285 148.913 127.468 148.506L127.469 148.507Z" fill="#1CBA88"/>
<path d="M151.015 107.604C152.107 109.096 152.994 110.761 153.927 112.356C155.724 115.425 157.5 118.542 159.091 121.724C157.864 121.392 156.606 120.969 155.363 120.72L155.174 120.591C153.55 120.007 151.89 119.516 150.243 119.004C150.783 118.39 151.425 117.764 151.731 116.991C152.531 114.962 149.061 111.226 148.266 109.261C148.25 109.224 148.237 109.186 148.223 109.148L149.2 108.593C149.793 108.218 150.379 107.898 151.015 107.604Z" fill="#379AEB"/>
<path d="M148.223 109.148L149.2 108.593C150.97 110.541 154.975 117.142 155.087 119.646L155.113 120.247C155.123 120.456 155.113 120.375 155.174 120.591C153.55 120.007 151.89 119.516 150.243 119.004C150.783 118.39 151.425 117.764 151.731 116.991C152.531 114.962 149.061 111.226 148.266 109.261C148.25 109.224 148.237 109.186 148.223 109.148Z" fill="#45B9F8"/>
<path d="M126.953 184.011C128.506 185.074 129.975 186.326 131.487 187.451C131.924 189.712 130.902 193.685 131.807 195.544C131.807 195.675 131.782 195.809 131.765 195.938C131.718 195.944 131.669 195.968 131.624 195.954C131.281 195.847 130.603 195.187 130.291 194.956C127.735 193.045 125.128 191.23 122.517 189.396C124.008 187.612 125.455 185.79 126.952 184.013L126.953 184.011Z" fill="#379AEB"/>
<path d="M122.518 189.395C125.129 191.229 127.735 193.044 130.292 194.955C130.603 195.187 131.282 195.847 131.625 195.953C131.67 195.967 131.719 195.942 131.766 195.937C131.783 195.808 131.807 195.674 131.808 195.543L131.861 195.518C131.955 197.658 131.916 199.807 131.915 201.949L131.673 201.892C129.825 200.416 127.875 199.06 125.997 197.621C123.868 195.99 121.794 194.289 119.654 192.67C120.662 191.624 121.587 190.508 122.519 189.394L122.518 189.395Z" fill="#4774BA"/>
<path d="M80.2066 16.528C81.017 16.4644 81.7485 16.4378 82.5199 16.7342C83.6853 17.1836 84.5758 18.1797 85.0446 19.3215C85.0754 19.3944 85.1031 19.4682 85.1298 19.5431C85.1564 19.618 85.1811 19.6929 85.2036 19.7688C85.2262 19.8447 85.2467 19.9206 85.2662 19.9976C85.2847 20.0745 85.3021 20.1515 85.3165 20.2294C85.3319 20.3074 85.3442 20.3854 85.3555 20.4633C85.3668 20.5413 85.375 20.6203 85.3821 20.6993C85.3893 20.7783 85.3934 20.8573 85.3965 20.9363C85.3996 21.0153 85.4006 21.0942 85.3986 21.1732C85.3975 21.2522 85.3945 21.3312 85.3883 21.4102C85.3832 21.4892 85.376 21.5682 85.3657 21.6472C85.3565 21.7262 85.3452 21.8042 85.3319 21.8821C85.3185 21.9601 85.3031 22.0381 85.2857 22.115C85.2683 22.1919 85.2488 22.2689 85.2283 22.3458C85.2067 22.4217 85.1841 22.4977 85.1585 22.5725C85.1339 22.6474 85.1062 22.7223 85.0775 22.7952C85.0487 22.869 85.0179 22.9419 84.9851 23.0137C84.3829 24.3453 83.3889 25.1095 82.0593 25.6133L81.9424 25.6297L81.7474 25.6543C80.8529 25.7723 80.1009 25.7312 79.2812 25.3137C78.1948 24.7597 77.4192 23.7143 77.0684 22.5602C76.6847 21.2963 76.7873 19.8006 77.4162 18.6301C78.0378 17.4729 78.9868 16.8912 80.2066 16.527V16.528Z" fill="#D6845A"/>
<path d="M89.659 189.059C92.1294 189.145 94.6469 189.023 97.1059 189.208C98.378 189.262 99.647 189.267 100.92 189.268C100.919 190.373 100.942 191.485 100.913 192.59C99.9507 193.192 99.0541 193.949 98.2477 194.746L97.3132 195.711C96.7407 196.078 91.1712 194.666 89.8468 194.686C89.8427 192.814 89.7945 190.926 89.659 189.059Z" fill="#D6845A"/>
<path d="M97.1059 189.208C98.378 189.262 99.647 189.267 100.92 189.268C100.919 190.373 100.942 191.485 100.913 192.59C99.9507 193.192 99.0541 193.949 98.2477 194.746C97.2249 194.571 96.278 194.304 95.3178 193.909C95.7969 192.262 96.3652 190.756 97.1059 189.207V189.208Z" fill="#F2AE7E"/>
<path d="M141.039 77.9732C140.717 77.8122 140.29 77.4562 140.106 77.1402C139.951 76.8766 139.894 76.6386 139.975 76.3482L140.219 76.3359C140.705 76.575 140.995 77.0007 141.331 77.4121C141.698 77.3629 142.052 77.3269 142.423 77.3187L142.492 77.4449C142.383 77.7742 142.296 78.2061 142.031 78.438C142.242 79.1797 142.474 79.8034 143.185 80.1892C143.246 80.222 143.307 80.2528 143.368 80.2846C143.488 80.3277 143.624 80.383 143.752 80.4036C144.453 80.5195 144.965 80.0578 145.497 79.6731C145.635 80.0886 145.493 80.4723 145.391 80.8816C145.68 81.4684 145.919 82.0009 146.588 82.2276C147.069 82.3907 147.551 82.3199 147.995 82.087C148.49 81.8275 148.903 81.4171 149.21 80.9534C149.846 81.7772 150.617 82.4974 151.335 83.2473C152.588 84.5553 153.824 85.8695 155.1 87.1559C156.101 88.1654 157.235 89.1995 157.996 90.4049C158.239 90.7896 158.356 91.243 158.481 91.677C158.157 92.3828 157.764 93.0999 156.991 93.3902C156.573 93.5461 156.022 93.5461 155.626 93.3276C154.838 92.8927 144.984 82.8134 144.555 82.0357C143.896 81.2981 143.142 80.7996 142.434 80.1317C141.916 79.6444 141.768 79.27 141.744 78.5652L141.038 77.9722L141.039 77.9732Z" fill="#4774BA"/>
<path d="M129.416 59.6919C133.941 63.5185 137.563 68.3894 141.953 72.3647C141.314 73.5075 140.745 74.5857 140.335 75.8352C139.269 74.9991 138.304 74.1035 137.355 73.1402C135.488 71.1439 133.537 69.205 131.606 67.2691C129.986 65.6451 128.264 64.0027 126.931 62.1274C128.19 61.6986 128.83 60.8276 129.416 59.6909V59.6919Z" fill="#4774BA"/>
<path d="M131.347 177.378C134.89 177.227 138.492 177.293 142.041 177.349C141.986 180.315 141.931 183.291 141.968 186.257C139.158 186.275 133.947 186.013 131.443 186.586C131.165 183.563 131.416 180.421 131.347 177.378Z" fill="#379AEB"/>
<path d="M141.953 72.3647C142.41 71.8425 143.498 70.5868 144.23 70.6012C144.488 70.6063 144.679 70.752 144.83 70.949C145.154 71.3716 145.271 72.8961 145.598 72.9761C146.283 73.1433 146.762 72.8612 147.426 73.3547C147.902 74.0687 147.51 75.0053 147.728 75.8219C147.755 75.8055 147.781 75.7891 147.809 75.7737C147.854 75.747 147.9 75.7224 147.945 75.6957C147.978 75.6762 148.011 75.6557 148.044 75.6352C148.269 75.5018 148.46 75.388 148.734 75.4413C149.084 75.509 149.334 75.7111 149.505 76.0179C150.055 77.0089 149.998 78.8534 149.65 79.8916C149.527 80.2537 149.376 80.6087 149.209 80.9523C148.902 81.416 148.489 81.8264 147.994 82.086C147.55 82.3188 147.068 82.3896 146.587 82.2265C145.918 81.9998 145.679 81.4673 145.39 80.8805C145.492 80.4702 145.634 80.0875 145.496 79.672C144.963 80.0557 144.452 80.5184 143.751 80.4025C143.623 80.3809 143.488 80.3266 143.367 80.2835C143.307 80.2517 143.245 80.2209 143.184 80.1881C142.472 79.8023 142.242 79.1796 142.03 78.4369C142.296 78.205 142.382 77.7731 142.491 77.4438L142.422 77.3176C142.052 77.3259 141.697 77.3618 141.33 77.411C140.994 76.9986 140.704 76.5729 140.218 76.3349L139.974 76.3472C139.893 76.6385 139.95 76.8755 140.105 77.1391C140.289 77.4551 140.716 77.8111 141.038 77.9722L141.744 78.5651C141.768 79.2689 141.916 79.6433 142.434 80.1316C143.141 80.7995 143.896 81.2981 144.555 82.0357C143.671 82.4347 142.476 82.6061 141.519 82.7948C141.448 82.7476 141.301 82.6307 141.221 82.6081C140.717 82.3465 139.717 82.3947 139.129 82.2891C137.941 82.0767 136.65 81.3904 135.644 80.74C134.752 80.1624 133.514 79.3171 133.275 78.2286C133.747 77.5772 133.672 76.3995 133.817 75.6116C133.967 74.795 134.214 73.7578 134.963 73.29C135.673 72.8468 136.584 72.9833 137.355 73.1403C138.305 74.1036 139.269 74.9992 140.335 75.8352C140.746 74.5857 141.314 73.5075 141.953 72.3647Z" fill="#F2AE7E"/>
<path d="M143.367 80.2836L143.989 79.8702C145.538 78.8494 146.467 77.366 147.503 75.8672C147.06 76.9433 146.285 78.8679 145.496 79.6732C144.963 80.0569 144.452 80.5196 143.751 80.4036C143.623 80.3821 143.488 80.3277 143.367 80.2846V80.2836Z" fill="#D6845A"/>
<path d="M105.631 94.0334C107.838 93.0671 110.174 92.3141 112.44 91.4944C112.727 91.9991 112.963 92.5439 113.216 93.0681C113.838 94.3976 114.562 95.682 115.131 97.0352C116.054 99.2295 116.627 101.513 117.144 103.83C117.373 105.038 117.626 106.246 117.766 107.467C114.63 108.449 111.543 109.614 108.369 110.467C108.512 105.991 109.252 101.66 107.57 97.2711C107.27 96.4894 106.776 95.6954 106.293 95.0152C106.101 94.7454 105.758 94.4417 105.654 94.135C105.642 94.1022 105.638 94.0673 105.631 94.0345V94.0334Z" fill="#017659"/>
<path d="M131.86 195.519L131.938 195.296C132.598 194.995 143.542 195.214 145.278 195.22C145.306 199.035 145.2 202.902 145.392 206.709C147.376 206.705 149.43 206.587 151.405 206.741C150.096 207.017 147.592 206.821 146.14 206.82C141.961 206.816 137.708 206.913 133.538 206.698C133.026 206.671 132.536 206.606 132.034 206.503C131.669 205.957 131.899 202.785 131.913 201.951C131.915 199.809 131.954 197.66 131.859 195.52L131.86 195.519Z" fill="#FDC64A"/>
<path d="M119.807 38.7712C120.534 39.5355 120.953 40.2618 121.162 41.3021C120.891 42.3157 120.436 42.9681 119.803 43.7888C122.01 44.4033 123.785 45.5369 124.935 47.5733C124.996 47.679 125.053 47.7857 125.108 47.8944C125.164 48.0032 125.216 48.1119 125.265 48.2237C125.315 48.3345 125.362 48.4463 125.406 48.5602C125.45 48.6731 125.491 48.788 125.529 48.9029C125.567 49.0178 125.603 49.1347 125.635 49.2517C125.666 49.3686 125.697 49.4866 125.724 49.6046C125.751 49.7236 125.774 49.8426 125.795 49.9616C125.815 50.0806 125.833 50.2016 125.848 50.3216C125.862 50.4427 125.875 50.5627 125.883 50.6848C125.892 50.8059 125.897 50.9269 125.9 51.049C125.903 51.1701 125.902 51.2921 125.899 51.4132C125.896 51.5342 125.89 51.6563 125.88 51.7774C125.871 51.8984 125.858 52.0195 125.843 52.1395C125.828 52.2606 125.809 52.3806 125.788 52.4996C125.766 52.6196 125.741 52.7386 125.715 52.8566C125.687 52.9746 125.657 53.0926 125.624 53.2095C125.035 55.2377 123.627 56.4852 122.141 57.8793C121.735 60.1547 120.742 60.7774 120.003 62.7061C119.483 61.6351 119.268 60.2481 118.953 59.0929C117.632 54.2426 116.342 51.3557 112.561 47.9201C112.657 46.1289 112.983 44.4444 113.969 42.9168C115.275 40.8938 117.444 39.278 119.807 38.7712Z" fill="#50201E"/>
<path d="M37.5812 57.1899C40.3551 59.0129 42.4223 61.8361 43.0922 65.1097C43.1363 65.3159 43.1743 65.5242 43.2081 65.7324C43.242 65.9407 43.2697 66.15 43.2933 66.3603C43.3169 66.5706 43.3343 66.7809 43.3466 66.9912C43.3589 67.2015 43.3671 67.4128 43.3692 67.6241C43.3712 67.8355 43.3692 68.0458 43.36 68.2571C43.3517 68.4684 43.3384 68.6788 43.3189 68.8891C43.3004 69.0994 43.2758 69.3097 43.2471 69.5179C43.2184 69.7272 43.1835 69.9355 43.1445 70.1427C43.1045 70.3499 43.0604 70.5561 43.0101 70.7613C42.9599 70.9665 42.9055 71.1706 42.846 71.3727C42.7865 71.5748 42.7208 71.7759 42.6511 71.9749C42.5813 72.1739 42.5064 72.3719 42.4264 72.5668C42.3464 72.7628 42.2623 72.9557 42.173 73.1475C42.0838 73.3393 41.9894 73.5281 41.8909 73.7148C41.7924 73.9015 41.6888 74.0852 41.5811 74.2667C41.4734 74.4483 41.3605 74.6268 41.2436 74.8033C39.4195 77.526 36.7133 79.3992 33.4858 80.0096C29.9927 80.6713 26.6237 80.0363 23.6958 78.005C23.5143 77.8778 23.3358 77.7455 23.1614 77.6091C22.987 77.4726 22.8156 77.331 22.6494 77.1843C22.4822 77.0376 22.3191 76.8879 22.1611 76.733C22.0021 76.578 21.8482 76.419 21.6974 76.2559C21.5466 76.0928 21.4009 75.9256 21.2604 75.7543C21.1188 75.5829 20.9824 75.4085 20.8511 75.229C20.7198 75.0505 20.5925 74.8689 20.4705 74.6832C20.3484 74.4976 20.2325 74.3088 20.1206 74.117C21.166 73.8102 23.8723 74.7622 25.0603 74.9377C27.0679 75.2352 29.0766 75.2157 31.0381 74.6566C31.1971 74.6104 31.3551 74.5612 31.511 74.5078C31.668 74.4545 31.8229 74.397 31.9757 74.3355C32.1296 74.2739 32.2814 74.2093 32.4323 74.1406C32.5831 74.0718 32.7308 73.999 32.8785 73.9231C33.0252 73.8471 33.1699 73.7671 33.3135 73.684C33.4561 73.6009 33.5977 73.5137 33.7361 73.4235C33.8746 73.3332 34.0111 73.2398 34.1455 73.1424C34.2799 73.0459 34.4112 72.9454 34.5404 72.8418C34.6697 72.7382 34.7959 72.6315 34.92 72.5217C35.0441 72.4119 35.1652 72.2991 35.2832 72.1832C35.4012 72.0672 35.5171 71.9493 35.6289 71.8272C35.7417 71.7061 35.8505 71.582 35.9572 71.4548C36.0639 71.3276 36.1665 71.1983 36.266 71.067C36.3655 70.9347 36.4629 70.8013 36.5553 70.6638C36.6486 70.5274 36.7379 70.3889 36.8251 70.2473C36.9113 70.1058 36.9944 69.9632 37.0733 69.8175C38.607 67.0486 38.8963 63.734 38.2182 60.6707C38.0182 59.7659 37.7032 58.8867 37.457 57.9942C37.3606 57.6433 37.4027 57.4936 37.5822 57.1858L37.5812 57.1899Z" fill="#F89E17"/>
<path d="M143.341 104.24C144.385 106.208 145.374 108.205 146.309 110.227C146.959 109.892 147.589 109.512 148.223 109.148C148.237 109.186 148.251 109.223 148.266 109.26C149.061 111.226 152.531 114.962 151.731 116.99C151.425 117.764 150.784 118.39 150.243 119.004C147.649 118.308 145.1 117.473 142.535 116.681C138.781 115.522 135.028 114.385 131.288 113.176C130.156 112.539 128.155 112.192 126.878 111.848C128.227 111.105 129.709 110.52 131.109 109.872C132.885 109.049 134.635 108.167 136.418 107.364C138.73 106.321 141.069 105.374 143.341 104.239V104.24Z" fill="#7CBDF0"/>
<path d="M158.932 164.91C161.162 164.906 163.574 164.748 165.788 164.971C166.313 164.953 166.95 164.837 167.391 165.179C167.782 165.483 167.874 166.113 167.886 166.568C167.918 167.854 167.695 169.161 167.774 170.442C167.798 171.359 168.104 173.667 167.571 174.298C165.425 174.108 163.156 174.264 160.998 174.271C157.206 174.33 153.414 174.351 149.621 174.332L149.315 174.013C149.096 173.322 149.084 165.758 149.283 165.319C149.641 165.064 150.015 164.977 150.448 164.924C151.43 164.803 152.486 164.878 153.478 164.881L158.93 164.91H158.932Z" fill="#1CBA88"/>
<path d="M165.788 164.971C166.313 164.953 166.95 164.837 167.391 165.179C167.782 165.483 167.874 166.113 167.886 166.568C167.918 167.854 167.695 169.161 167.774 170.442C167.798 171.359 168.104 173.668 167.571 174.299C165.425 174.108 163.156 174.264 160.998 174.271C161.175 171.218 161.01 168.092 161.077 165.026C162.635 165.029 164.237 165.105 165.788 164.971Z" fill="#05946C"/>
<path d="M89.8468 194.686C91.1712 194.666 96.7407 196.078 97.3131 195.711C98.1031 196.188 101.151 198.075 101.92 197.897C101.97 197.886 102.016 197.866 102.064 197.851C102.796 197.797 103.187 197.404 103.651 196.867C104.078 196.37 104.477 195.844 104.881 195.328C105.464 195.607 105.991 195.916 106.528 196.274C105.921 196.913 104.9 197.971 104.945 198.907C104.962 199.256 105.121 199.498 105.387 199.714C105.655 199.931 106.023 199.999 106.353 199.941C107.202 199.364 106.579 196.975 108.016 197.131C109.267 197.267 111.872 199.555 112.598 200.668C112.893 201.122 113.159 201.639 113.339 202.151C113.616 203.045 113.793 203.863 113.82 204.802C111.063 204.832 90.2941 204.968 89.8078 204.714C89.7791 204.555 89.7503 204.4 89.736 204.239C90.0335 201.123 89.8437 197.821 89.8468 194.684V194.686Z" fill="#D74442"/>
<path d="M141.967 186.257C143.852 186.259 145.854 186.133 147.725 186.326C148.29 186.348 148.856 186.359 149.421 186.358C150.167 186.352 151.63 186.139 152.199 186.636C152.68 187.797 152.466 192.867 152.523 194.481C152.404 194.727 152.314 194.945 152.038 195.053C151.69 195.188 151.24 195.157 150.873 195.16L145.277 195.219C143.541 195.214 132.597 194.995 131.937 195.295L131.859 195.518L131.806 195.543C130.901 193.683 131.923 189.711 131.486 187.45L131.441 186.585C133.945 186.012 139.156 186.274 141.966 186.256L141.967 186.257Z" fill="#F55F50"/>
<path d="M61.8361 189.318C62.8343 189.546 63.8796 189.626 64.8942 189.752C67.5461 190.083 70.2617 190.289 72.8869 190.765C72.7976 191.252 72.7453 191.772 72.5237 192.219L72.5258 192.424C72.6068 192.901 72.6786 193.38 72.7402 193.861C73.3065 194.338 73.9035 194.732 74.5283 195.129C73.6614 195.748 72.2785 196.592 72.0693 197.728C72.0159 198.02 72.0395 198.254 72.2272 198.487C72.3298 198.615 72.4806 198.686 72.6438 198.712C73.1157 198.788 73.5394 198.42 73.8502 198.117C74.5283 197.457 75.1695 196.667 75.7594 195.927C76.4036 196.206 77.015 196.518 77.6306 196.855C76.7955 197.683 76.061 198.545 76.0825 199.793C76.0846 199.923 76.1082 200.032 76.1512 200.154L76.34 200.23C77.093 199.877 77.4357 198.879 77.9322 198.249C78.1599 197.958 78.4431 197.7 78.7077 197.442C80.9667 198.376 83.3355 199.853 84.3234 202.198C84.5881 202.826 84.6999 203.482 84.8436 204.143C84.8405 204.472 84.9041 204.63 84.6804 204.88C83.9397 205.028 82.9785 204.888 82.2101 204.885L75.6219 204.868L65.7611 204.85C64.3413 204.847 62.8035 204.968 61.4011 204.854C61.2657 204.843 61.1487 204.799 61.0236 204.751C60.9056 204.586 60.883 204.499 60.8707 204.297C61.2503 203.13 61.516 195.857 61.5222 194.249C61.7653 192.846 61.5427 191.357 61.8289 189.959L61.8392 189.317L61.8361 189.318Z" fill="#F55F50"/>
<path d="M61.8361 189.318C62.8343 189.546 63.8796 189.626 64.8942 189.752C67.5461 190.083 70.2617 190.289 72.8869 190.765C72.7976 191.252 72.7453 191.772 72.5237 192.219L72.5258 192.424C70.791 193.395 69.205 194.501 67.5944 195.663C66.7849 195.485 61.8894 194.082 61.636 194.117L61.5191 194.249C61.7622 192.846 61.5396 191.357 61.8258 189.959L61.8361 189.317V189.318Z" fill="#F2AE7E"/>
<path d="M61.8361 189.318C62.8343 189.546 63.8796 189.626 64.8942 189.752C67.5461 190.083 70.2616 190.289 72.8869 190.765C72.7976 191.252 72.7453 191.772 72.5237 192.219C71.6794 192.037 70.7315 192.03 69.8657 191.953C68.1606 191.803 66.4556 191.639 64.7537 191.462C63.8283 191.366 62.8702 191.311 61.9807 191.02C61.7714 190.788 61.832 190.273 61.8268 189.96L61.8371 189.318H61.8361Z" fill="#D6845A"/>
<path d="M161.09 194.462C163.156 194.403 165.237 194.43 167.3 194.324L167.443 194.481L167.208 195.138C167.267 195.205 167.353 195.255 167.385 195.338C167.623 195.96 167.436 202.702 167.434 203.821C167.443 204.299 167.564 205.302 167.242 205.681C166.661 206.369 161.873 206.116 160.779 206.112C159.474 206.107 152.52 205.921 151.862 206.168C151.818 206.184 151.682 206.315 151.666 206.338C151.587 206.446 151.554 206.583 151.475 206.691C151.458 206.713 151.428 206.724 151.405 206.74C149.43 206.586 147.375 206.704 145.392 206.708C145.2 202.902 145.306 199.034 145.278 195.219L150.874 195.16C151.241 195.158 151.691 195.189 152.039 195.053C152.315 194.945 152.405 194.727 152.524 194.481C155.377 194.554 158.237 194.489 161.09 194.462Z" fill="#FEB917"/>
<path d="M151.699 195.705L151.987 195.959C152.149 196.334 152.271 196.699 152.327 197.107C152.369 197.415 152.361 197.668 152.171 197.922L151.941 197.897C151.854 197.804 151.79 197.746 151.725 197.628C151.483 197.187 151.592 196.188 151.698 195.706L151.699 195.705Z" fill="white"/>
<path d="M161.09 194.462C163.156 194.403 165.237 194.43 167.3 194.324L167.443 194.481L167.208 195.138C167.267 195.205 167.353 195.255 167.385 195.338C167.623 195.96 167.436 202.702 167.434 203.821C167.443 204.299 167.563 205.302 167.242 205.681C166.661 206.369 161.873 206.116 160.779 206.112C161.392 205.125 161.07 197.622 161.033 195.985C158.319 196.022 155.606 196.02 152.892 195.98L151.985 195.958L151.698 195.704C151.633 195.635 151.565 195.569 151.502 195.497C151.311 195.279 151.141 195.257 150.873 195.159C151.24 195.157 151.69 195.188 152.038 195.052C152.314 194.944 152.404 194.726 152.523 194.48C155.376 194.553 158.236 194.488 161.089 194.461L161.09 194.462Z" fill="#FCAE23"/>
<path d="M191.92 91.5723L202.256 102.285C203.547 103.622 204.796 105.04 206.132 106.331C202.709 106.148 199.235 106.293 195.806 106.297C191.567 106.302 187.33 106.176 183.093 106.194C178.718 106.213 174.344 106.381 169.969 106.27C169.808 106.232 169.674 106.19 169.52 106.133L169.577 106C171.082 105.488 172.521 104.465 173.883 103.647C176.7 101.955 179.464 100.214 182.232 98.4447C184.707 96.8617 187.346 95.3619 189.707 93.6189C190.539 93.0054 191.234 92.3437 191.921 91.5723H191.92Z" fill="#F89E17"/>
<path d="M39.159 173.233C40.3562 172.441 41.4251 170.819 42.3782 169.737C43.9252 167.982 45.4117 166.187 46.9403 164.419C48.2298 162.929 49.5747 161.478 50.8222 159.952C52.6626 157.701 54.38 155.337 56.2573 153.119C56.5251 152.802 56.7559 152.534 57.1478 152.372L57.316 152.505C56.6923 157.617 56.2214 162.745 55.6664 167.864C54.9124 174.442 54.2117 181.025 53.5634 187.613L39.1579 173.232L39.159 173.233Z" fill="#FCAE23"/>
<path d="M133.275 78.2297C133.514 79.3182 134.752 80.1635 135.644 80.7411C136.65 81.3915 137.941 82.0778 139.129 82.2902C139.717 82.3958 140.718 82.3466 141.221 82.6092C140.775 84.2958 139.628 86.0264 138.633 87.4432C135.103 92.4649 130.562 96.9059 125.237 100.001C122.613 101.525 119.929 102.656 117.143 103.83C116.627 101.513 116.053 99.2285 115.13 97.0352C114.56 95.6831 113.836 94.3976 113.215 93.0681C114.825 92.3951 116.451 91.7314 117.999 90.925C123.777 87.9161 129.401 83.4987 133.275 78.2308V78.2297Z" fill="#D6845A"/>
<path d="M20.1206 74.1191C19.2261 72.8839 18.7234 71.0845 18.4454 69.6062C17.8483 66.426 18.6967 62.978 20.5248 60.3333C20.6397 60.165 20.7598 59.9988 20.8829 59.8367C21.006 59.6736 21.1342 59.5146 21.2655 59.3587C21.3968 59.2027 21.5322 59.0499 21.6718 58.9001C21.8113 58.7503 21.9539 58.6047 22.1006 58.4631C22.2473 58.3205 22.3971 58.182 22.5509 58.0476C22.7048 57.9132 22.8608 57.7819 23.0208 57.6557C23.1808 57.5285 23.3439 57.4064 23.5101 57.2874C23.6763 57.1684 23.8456 57.0546 24.018 56.9438C24.1903 56.834 24.3647 56.7283 24.5412 56.6268C24.7186 56.5252 24.8982 56.4288 25.0797 56.3364C25.2624 56.2441 25.446 56.1559 25.6327 56.0738C25.8194 55.9907 26.0082 55.9127 26.198 55.8389C26.3888 55.765 26.5806 55.6963 26.7745 55.6327C26.9684 55.5691 27.1633 55.5096 27.3603 55.4552C27.5573 55.4008 27.7552 55.3516 27.9543 55.3075C28.1533 55.2634 28.3544 55.2244 28.5554 55.1895C31.6228 54.6478 35.037 55.3875 37.5801 57.1889C37.4006 57.4967 37.3585 57.6465 37.455 57.9973C37.7012 58.8899 38.0161 59.769 38.2162 60.6739C38.8932 63.7371 38.605 67.0507 37.0713 69.8206C36.9923 69.9663 36.9092 70.1089 36.823 70.2505C36.7368 70.392 36.6466 70.5305 36.5532 70.667C36.4599 70.8034 36.3634 70.9378 36.2639 71.0702C36.1644 71.2025 36.0608 71.3318 35.9551 71.4579C35.8495 71.5851 35.7397 71.7083 35.6268 71.8303C35.514 71.9514 35.3991 72.0704 35.2811 72.1863C35.1631 72.3022 35.0421 72.4151 34.918 72.5249C34.7938 72.6346 34.6676 72.7413 34.5384 72.8449C34.4091 72.9485 34.2778 73.0491 34.1434 73.1455C34.009 73.243 33.8726 73.3363 33.7341 73.4266C33.5956 73.5169 33.455 73.6041 33.3114 73.6872C33.1688 73.7703 33.0231 73.8503 32.8764 73.9262C32.7297 74.0021 32.581 74.075 32.4302 74.1437C32.2794 74.2124 32.1276 74.2781 31.9737 74.3386C31.8198 74.4002 31.6649 74.4576 31.5089 74.511C31.353 74.5643 31.195 74.6146 31.036 74.6597C29.0745 75.2188 27.0659 75.2383 25.0582 74.9408C23.8702 74.7654 21.1639 73.8123 20.1186 74.1201L20.1206 74.1191Z" fill="#FCAE23"/>
<path d="M28.9083 61.8658C29.7188 61.8309 30.4174 61.9201 31.1325 62.3295C31.1879 62.3623 31.2433 62.3951 31.2966 62.431C31.3499 62.4659 31.4033 62.5028 31.4556 62.5408C31.5079 62.5788 31.5592 62.6177 31.6085 62.6588C31.6587 62.6988 31.707 62.7408 31.7552 62.7839C31.8034 62.827 31.8495 62.8711 31.8957 62.9163C31.9409 62.9614 31.986 63.0086 32.0291 63.0558C32.0722 63.103 32.1142 63.1522 32.1542 63.2025C32.1953 63.2528 32.2343 63.303 32.2722 63.3554C32.3102 63.4066 32.3471 63.46 32.382 63.5133C32.4169 63.5667 32.4507 63.6211 32.4835 63.6775C32.5164 63.7329 32.5471 63.7893 32.5769 63.8467C32.6066 63.9042 32.6343 63.9616 32.661 64.0201C32.6877 64.0786 32.7123 64.1381 32.7359 64.1976C32.7595 64.2571 32.781 64.3176 32.8016 64.3782C32.8221 64.4387 32.8416 64.5002 32.858 64.5628C32.8744 64.6254 32.8908 64.6869 32.9052 64.7495C32.9319 64.8716 32.9534 64.9947 32.9678 65.1188C32.9821 65.243 32.9903 65.3681 32.9934 65.4933C32.9955 65.6184 32.9914 65.7436 32.9811 65.8677C32.9708 65.9919 32.9544 66.116 32.9319 66.2391C32.9093 66.3622 32.8806 66.4833 32.8457 66.6033C32.8108 66.7233 32.7698 66.8413 32.7236 66.9572C32.6764 67.0731 32.6241 67.187 32.5666 67.2978C32.5082 67.4086 32.4456 67.5163 32.3758 67.621C31.7665 68.5504 30.9375 68.9597 29.8901 69.1906C29.1351 69.2142 28.4231 69.2234 27.7183 68.9043C26.8617 68.5166 26.2308 67.8097 25.9179 66.9244C25.8758 66.8064 25.8389 66.6854 25.8092 66.5633C25.7794 66.4412 25.7548 66.3181 25.7363 66.194C25.7178 66.0698 25.7066 65.9447 25.7014 65.8185C25.6963 65.6933 25.6973 65.5672 25.7035 65.442C25.7107 65.3168 25.724 65.1917 25.7435 65.0675C25.763 64.9434 25.7886 64.8203 25.8215 64.6993C25.8533 64.5772 25.8912 64.4582 25.9353 64.3402C25.9794 64.2222 26.0287 64.1073 26.0851 63.9945C26.675 62.8034 27.6999 62.2525 28.9094 61.8678L28.9083 61.8658Z" fill="#F89E17"/>
<path d="M160.998 174.271C163.156 174.263 165.425 174.108 167.571 174.298C167.307 174.936 167.378 182.208 167.477 183.324C167.464 183.794 167.483 184.107 167.171 184.486L167.401 185.028C167.546 186.192 167.469 187.437 167.465 188.61L167.442 194.481L167.299 194.324C165.236 194.43 163.155 194.403 161.089 194.462C158.235 194.489 155.375 194.553 152.523 194.481C152.466 192.867 152.68 187.797 152.199 186.636C151.629 186.139 150.167 186.351 149.421 186.358C149.394 185.698 149.247 184.813 149.447 184.189C149.565 184.06 149.636 183.914 149.722 183.762C148.884 182.98 149.582 178.369 149.359 177.048C149.4 176.133 149.503 175.239 149.622 174.332C153.415 174.351 157.206 174.33 160.999 174.271H160.998Z" fill="#FDC64A"/>
<path d="M160.998 174.271C163.156 174.263 165.425 174.108 167.571 174.298C167.307 174.936 167.378 182.208 167.477 183.324C167.464 183.794 167.483 184.107 167.171 184.486L167.401 185.028C167.345 185.074 167.301 185.14 167.233 185.168C166.684 185.391 157.184 184.823 155.282 185.1C153.396 185.071 151.455 185.272 149.582 185.073C149.447 184.811 149.481 184.534 149.476 184.243L149.447 184.189C149.565 184.06 149.636 183.914 149.722 183.762C149.768 183.688 149.802 183.623 149.865 183.56C150.03 183.394 150.404 183.416 150.618 183.408C151.903 183.356 153.232 183.468 154.521 183.487C156.694 183.521 158.869 183.509 161.043 183.51C161.005 180.443 160.868 177.333 160.998 174.271Z" fill="#FEB917"/>
<path d="M149.476 184.243C151.649 184.821 160.658 184.284 163.455 184.225C164.441 184.204 165.743 184.02 166.695 184.213C166.888 184.252 167.024 184.359 167.171 184.485L167.401 185.027C167.345 185.073 167.301 185.139 167.233 185.167C166.684 185.39 157.184 184.822 155.282 185.099C153.396 185.07 151.455 185.271 149.582 185.072C149.447 184.81 149.481 184.533 149.476 184.242V184.243Z" fill="#F89E17"/>
<path d="M149.447 184.189L149.476 184.243C149.482 184.534 149.447 184.811 149.582 185.073C151.456 185.272 153.397 185.07 155.282 185.1C157.184 184.823 166.684 185.391 167.233 185.168C167.301 185.14 167.345 185.075 167.401 185.028C167.546 186.193 167.469 187.437 167.465 188.611L167.442 194.481L167.299 194.324C165.236 194.43 163.155 194.403 161.089 194.462C158.235 194.489 155.375 194.553 152.523 194.481C152.466 192.867 152.68 187.797 152.199 186.636C151.63 186.139 150.167 186.352 149.421 186.358C149.394 185.698 149.247 184.813 149.447 184.189Z" fill="#FDC64A"/>
<path d="M167.401 185.028C167.546 186.192 167.469 187.437 167.465 188.61L167.442 194.481L167.299 194.324C165.236 194.43 163.155 194.403 161.089 194.462C160.963 191.377 161.02 188.232 161.062 185.144C159.145 185.144 157.195 185.217 155.282 185.1C157.184 184.823 166.684 185.391 167.233 185.168C167.301 185.14 167.345 185.075 167.401 185.028Z" fill="#FEB917"/>
<path d="M174.095 73.0747C177.179 76.1062 180.064 79.3049 183.064 82.4123L189.48 89.0887C190.285 89.9248 191.143 90.7096 191.92 91.5724C191.233 92.3439 190.538 93.0056 189.706 93.619C187.344 95.362 184.706 96.8618 182.231 98.4448C179.463 100.214 176.699 101.955 173.882 103.647C172.52 104.465 171.081 105.488 169.576 106L169.519 106.133C169.673 106.19 169.807 106.232 169.968 106.27C169.687 106.301 169.521 106.346 169.251 106.234C169.13 105.838 169.251 105.344 169.302 104.937C170.05 98.9505 171.109 92.9799 172.022 87.0165C172.733 82.3754 173.28 77.7004 174.095 73.0747Z" fill="#FDC64A"/>
<path d="M23.1449 157.203C26.1815 156.232 29.4172 155.634 32.5153 154.854L49.2229 150.588C52.0912 149.865 54.974 149.241 57.8249 148.442C57.5458 149.783 57.6043 151.171 57.3171 152.505L57.1488 152.372C56.7569 152.534 56.5261 152.802 56.2584 153.119C54.382 155.336 52.6637 157.701 50.8232 159.952C49.5758 161.478 48.2308 162.929 46.9413 164.419C45.4127 166.187 43.9262 167.983 42.3792 169.737C41.4262 170.819 40.3572 172.44 39.16 173.233L28.7124 162.678C26.8668 160.848 24.9084 159.115 23.146 157.203H23.1449Z" fill="#FDC64A"/>
<path d="M159.035 140.413C162.798 140.348 166.592 140.34 170.355 140.419C166.708 140.649 163.033 140.365 159.382 140.509C162.152 143.207 164.818 146.009 167.535 148.759C170.971 152.238 174.501 155.656 177.999 159.075C180.104 161.133 182.179 163.226 184.305 165.262C185.397 166.309 187.86 168.366 188.586 169.472C185.882 169.463 168.717 169.246 167.915 169.58C167.839 169.875 167.798 170.139 167.774 170.442C167.695 169.161 167.918 167.855 167.886 166.568C167.874 166.113 167.782 165.483 167.391 165.179C166.95 164.837 166.313 164.953 165.788 164.971C163.574 164.748 161.162 164.906 158.932 164.91L159.035 140.413Z" fill="#45B9F8"/>
<path d="M170.355 140.419C176.83 140.345 183.311 140.42 189.787 140.407L189.803 159.545C189.81 162.887 189.972 166.247 189.877 169.588L188.586 169.472C187.86 168.366 185.397 166.309 184.305 165.263C182.179 163.226 180.105 161.133 177.999 159.075C174.501 155.656 170.972 152.239 167.535 148.759C164.818 146.009 162.152 143.207 159.382 140.509C163.033 140.365 166.708 140.65 170.355 140.419Z" fill="#379AEB"/>
<path d="M131.289 113.177C135.029 114.385 138.781 115.522 142.536 116.682C145.101 117.474 147.65 118.309 150.244 119.005C151.891 119.517 153.551 120.008 155.175 120.592L155.364 120.721C154.103 125.219 152.369 129.576 150.86 133.995L149.188 138.931C148.846 139.947 148.557 141.081 148.052 142.026C147.765 142.564 147.234 142.987 146.705 143.274C145.43 143.966 143.873 143.768 142.542 143.35C141.055 142.881 139.588 142.292 138.121 141.759C136.876 141.524 135.5 140.829 134.299 140.39C133.053 139.934 131.774 139.575 130.514 139.159C128.766 138.58 126.602 137.96 125.75 136.157C124.947 134.461 125.772 132.559 126.321 130.912C126.696 130.511 136.067 128.782 137.626 128.211C138.07 128.047 138.871 127.686 139.022 127.175C139.098 126.918 139.096 126.706 138.933 126.48C138.324 125.637 134.653 126.165 133.529 126.103C135.047 125.599 139.274 125.346 140.171 124.786C140.383 124.655 140.543 124.496 140.606 124.249C140.682 123.952 140.663 123.593 140.465 123.347C139.667 122.356 134.727 123.72 133.271 123.682C133.229 123.681 133.187 123.679 133.145 123.677C134.947 123.057 139.306 122.682 140.529 121.779C140.813 121.571 140.978 121.36 141.039 121.009C140.94 120.653 140.769 120.468 140.466 120.268C139.029 119.318 134.863 121.032 133.157 121.283C132.892 121.322 132.666 121.36 132.453 121.193C133.13 120.528 136.629 120.477 137.452 119.122C137.666 118.769 137.663 118.341 137.546 117.954C137.456 117.654 137.27 117.457 136.993 117.315C135.515 116.558 132.564 118.813 131.065 119.273L130.909 119.32C130.878 117.306 130.989 116.194 130.688 114.112L130.824 113.821C130.967 113.598 131.132 113.389 131.291 113.176L131.289 113.177Z" fill="#F55F50"/>
<path d="M131.289 113.177C135.029 114.385 138.781 115.523 142.536 116.682C145.101 117.474 147.65 118.309 150.244 119.006C151.891 119.517 153.551 120.008 155.175 120.593L155.364 120.721C154.103 125.219 152.369 129.576 150.86 133.995L149.188 138.931C148.846 139.947 148.557 141.081 148.052 142.026C147.765 142.564 147.234 142.988 146.705 143.274C145.43 143.966 143.873 143.768 142.542 143.35C141.055 142.881 139.588 142.292 138.121 141.76C138.171 141.707 138.334 141.554 138.397 141.531C138.691 141.421 139.209 141.427 139.533 141.373C140.64 141.187 141.864 140.911 142.854 140.366C143.983 139.745 144.935 138.899 145.65 137.825C147.245 135.429 148.276 131.301 149.124 128.538C149.713 126.621 150.344 124.719 150.911 122.795C148.931 121.841 146.907 120.992 144.933 120.019C141.805 118.479 138.73 116.817 135.531 115.422C134.019 114.762 132.298 114.542 130.822 113.822C130.965 113.599 131.13 113.39 131.289 113.177Z" fill="#D74442"/>
<path d="M126.597 121.271C127.673 119.439 128.852 115.126 129.772 114.059C130.092 113.947 130.367 114.041 130.686 114.112C130.988 116.195 130.876 117.307 130.907 119.32L131.063 119.273C132.561 118.813 135.513 116.558 136.991 117.315C137.268 117.456 137.454 117.654 137.544 117.954C137.661 118.341 137.664 118.769 137.45 119.122C136.628 120.478 133.129 120.529 132.451 121.193C132.664 121.359 132.89 121.322 133.155 121.283C134.861 121.033 139.028 119.318 140.464 120.268C140.766 120.468 140.938 120.653 141.037 121.009C140.977 121.36 140.811 121.571 140.527 121.779C139.305 122.681 134.945 123.056 133.143 123.677C133.185 123.679 133.227 123.681 133.269 123.682C134.725 123.72 139.665 122.356 140.463 123.347C140.661 123.593 140.681 123.952 140.604 124.249C140.541 124.496 140.38 124.654 140.169 124.786C139.273 125.347 135.046 125.599 133.527 126.104C134.651 126.165 138.322 125.637 138.931 126.48C139.094 126.706 139.097 126.918 139.02 127.176C138.869 127.687 138.069 128.048 137.624 128.211C136.066 128.782 126.694 130.511 126.319 130.912C126.201 130.867 126.111 130.846 125.98 130.843C125.096 130.817 123.92 131.192 123.025 131.332C121.659 131.54 120.289 131.702 118.912 131.819C114.25 132.236 109.826 131.598 105.287 130.61C104.019 130.381 102.71 129.88 101.519 129.402C96.8218 127.518 92.9213 124.778 89.5893 120.966C94.771 120.205 97.1849 118.058 101.098 114.866C102.907 116.548 104.706 117.827 106.948 118.889C112.928 122.13 120.032 122.156 126.596 121.271H126.597Z" fill="#F2AE7E"/>
<path d="M54.5954 101.927C55.4305 103.148 56.2502 104.354 56.9077 105.683C59.297 110.515 59.7987 116.213 58.8128 121.472C58.7779 121.654 58.74 121.837 58.7 122.018C58.66 122.2 58.6179 122.382 58.5738 122.562C58.5297 122.743 58.4835 122.923 58.4343 123.103C58.386 123.282 58.3348 123.461 58.2824 123.639C58.2291 123.818 58.1747 123.995 58.1173 124.173C58.0598 124.35 58.0003 124.526 57.9388 124.701C57.8772 124.876 57.8136 125.052 57.7479 125.225C57.6823 125.4 57.6146 125.572 57.5438 125.745C57.474 125.918 57.4022 126.089 57.3273 126.259C57.2535 126.43 57.1765 126.6 57.0986 126.768C57.0206 126.937 56.9396 127.105 56.8575 127.272C56.7754 127.439 56.6913 127.604 56.6041 127.769C56.5179 127.935 56.4297 128.098 56.3384 128.261C56.2481 128.424 56.1558 128.585 56.0614 128.745C55.967 128.905 55.8706 129.064 55.7731 129.222C55.6746 129.38 55.5751 129.537 55.4725 129.693C55.371 129.849 55.2663 130.003 55.1607 130.156C55.055 130.309 54.9473 130.46 54.8385 130.611C54.7298 130.762 54.618 130.911 54.5051 131.058C54.3923 131.206 54.2774 131.353 54.1604 131.498C54.0435 131.642 53.9255 131.786 53.8055 131.928C53.6855 132.071 53.5634 132.212 53.4403 132.35C53.3172 132.49 53.192 132.627 53.0648 132.763C52.9376 132.9 52.8094 133.034 52.6791 133.167C52.5488 133.3 52.4175 133.431 52.2841 133.561C52.1507 133.691 52.0163 133.819 51.8799 133.945C51.7435 134.071 51.606 134.197 51.4665 134.32C51.327 134.443 51.1864 134.564 51.0438 134.684C50.9012 134.804 50.7576 134.922 50.6129 135.038C50.4673 135.154 50.3206 135.269 50.1728 135.382C50.0251 135.494 49.8753 135.605 49.7245 135.714C49.5737 135.823 49.4219 135.93 49.269 136.036C44.3797 139.346 38.6163 140.228 32.8313 139.588C31.8752 136.417 31.6228 133.118 31.6115 129.825C30.4513 129.433 29.6316 128.68 28.7842 127.83C29.3156 127.513 29.9353 127.297 30.4872 127.004C32.4117 125.982 34.3773 124.728 35.9787 123.251C36.8928 122.408 37.576 121.306 38.485 120.491C38.5311 120.45 38.5773 120.41 38.6234 120.37L38.5947 120.301C39.2236 119.67 39.8484 119.049 40.5326 118.477C40.0658 118.128 39.6688 117.752 39.2605 117.338C39.635 117.226 40.0053 117.103 40.3716 116.969C40.7378 116.835 41.101 116.69 41.459 116.534C41.817 116.378 42.1699 116.212 42.5177 116.035C42.8655 115.858 43.2081 115.671 43.5456 115.474C43.8821 115.276 44.2135 115.069 44.5377 114.853C44.8618 114.635 45.1799 114.408 45.4907 114.172C45.8015 113.936 46.1052 113.691 46.4017 113.437C46.6982 113.182 46.9864 112.92 47.2665 112.648C47.9785 111.967 48.6012 111.198 49.3234 110.532L49.4014 110.461L49.4157 110.407C49.7697 110.17 50.0364 109.73 50.2888 109.391C51.3711 107.934 52.2615 106.298 53.0904 104.685C53.5562 103.778 53.9665 102.735 54.5944 101.93L54.5954 101.927Z" fill="#7CBDF0"/>
<path d="M49.4034 110.459C50.1226 111.692 50.2364 113.506 49.904 114.875C49.5101 116.498 48.3796 118.032 46.93 118.862C45.5717 119.639 43.9878 119.855 42.4777 119.418C41.7626 119.211 41.1574 118.874 40.5336 118.477C40.0669 118.128 39.6698 117.752 39.2615 117.338C39.636 117.226 40.0063 117.103 40.3726 116.969C40.7388 116.835 41.102 116.69 41.46 116.534C41.818 116.378 42.1709 116.212 42.5187 116.035C42.8665 115.858 43.2091 115.671 43.5466 115.474C43.8831 115.276 44.2145 115.069 44.5387 114.853C44.8629 114.635 45.1809 114.408 45.4917 114.172C45.8026 113.936 46.1062 113.691 46.4027 113.437C46.6992 113.182 46.9875 112.92 47.2675 112.648C47.9795 111.967 48.6022 111.198 49.3244 110.532L49.4024 110.461L49.4034 110.459Z" fill="#379AEB"/>
<path d="M38.6255 120.369C39.5929 121.642 39.8955 123.344 39.6719 124.908C39.6586 125.008 39.6421 125.106 39.6247 125.204C39.6062 125.302 39.5857 125.4 39.5621 125.497C39.5385 125.595 39.5139 125.691 39.4852 125.787C39.4575 125.883 39.4267 125.977 39.3939 126.072C39.361 126.166 39.3262 126.26 39.2892 126.353C39.2523 126.445 39.2123 126.538 39.1702 126.628C39.1282 126.719 39.0841 126.808 39.0379 126.897C38.9917 126.985 38.9435 127.072 38.8922 127.158C38.842 127.244 38.7886 127.33 38.7342 127.413C38.6799 127.496 38.6224 127.579 38.5639 127.659C38.5055 127.74 38.4439 127.819 38.3813 127.897C38.3188 127.975 38.2541 128.051 38.1874 128.126C38.1208 128.201 38.053 128.273 37.9823 128.344C37.9125 128.415 37.8407 128.485 37.7668 128.552C37.693 128.62 37.6181 128.686 37.5411 128.749C37.4642 128.813 37.3862 128.876 37.3062 128.935C36.0218 129.893 34.404 130.362 32.8098 130.123C32.3984 130.061 32.0096 129.952 31.6136 129.823C30.4533 129.432 29.6336 128.679 28.7863 127.828C29.3177 127.511 29.9373 127.295 30.4892 127.002C32.4138 125.981 34.3794 124.726 35.9808 123.25C36.8948 122.406 37.5781 121.305 38.487 120.489C38.5332 120.448 38.5793 120.408 38.6255 120.368V120.369Z" fill="#379AEB"/>
<path d="M92.1919 35.5355C92.9562 33.6417 93.9041 32.2404 95.7835 31.3181C98.0867 30.1876 101.205 30.2358 103.592 31.0729C106.702 32.1645 108.75 34.4789 110.137 37.3852C110.917 36.983 111.691 36.7574 112.561 36.6681C115.267 36.3921 117.7 37.0723 119.806 38.7701C117.443 39.2769 115.274 40.8927 113.968 42.9157C112.982 44.4443 112.656 46.1278 112.56 47.919C111.957 47.4358 111.352 47.0069 110.65 46.6756C110.16 48.9418 109.32 50.6273 107.327 51.923C105.435 53.153 102.793 53.7049 100.577 53.2217C98.813 52.8381 97.6671 51.8419 96.672 50.4016C96.6135 50.2539 96.5242 50.1543 96.4083 50.0466C95.8071 49.4865 82.285 46.3104 80.7677 46.0621C79.432 45.8436 78.0635 45.7892 76.7124 45.8272C72.7894 45.938 69.8226 47.0644 67.1204 49.9307C66.71 49.0792 66.3407 48.2267 66.234 47.2788C66.2022 46.9957 66.1694 46.8254 66.0381 46.573C66.3653 46.0159 66.8003 45.4732 67.2466 45.0065C69.2194 42.9414 72.0713 42.1084 74.8484 42.0478C74.7899 40.2577 75.2433 38.8245 76.3749 37.4396C78.3128 35.0698 81.3832 33.6458 84.3993 33.3627C87.2769 33.0919 89.9524 33.6777 92.1919 35.5335V35.5355Z" fill="#793E38"/>
<path d="M67.1204 49.9328C69.8226 47.0665 72.7894 45.9411 76.7124 45.8293C78.0635 45.7913 79.432 45.8457 80.7677 46.0642C82.286 46.3124 95.8072 49.4876 96.4083 50.0487C96.5243 50.1564 96.6125 50.257 96.672 50.4037C96.0975 52.3908 95.1998 54.1266 93.3173 55.1648C91.321 56.2666 88.8373 56.3733 86.6737 55.7372C86.4121 55.6593 86.1526 55.5751 85.8941 55.4869C86.1331 57.7028 85.5288 59.6838 84.1203 61.4124C83.0452 62.7307 81.7238 63.6468 80.2404 64.4511C82.2706 67.738 82.8431 69.9929 82.443 73.8451C81.7598 71.9893 80.7472 69.917 78.8514 69.0429C77.6521 68.489 76.1841 68.6008 74.9787 69.0819C73.6973 69.5918 72.7115 70.5756 72.1698 71.8415C71.4137 73.6091 71.6846 75.5634 72.4129 77.289C73.1772 79.0986 74.5888 80.8108 76.4375 81.5761C77.9209 82.1896 79.8916 82.0501 81.3781 81.4776C83.1591 84.3717 85.3544 86.9097 88.1407 88.8845C86.6932 89.3123 85.0651 89.6006 83.5581 89.6201C81.6254 89.6447 79.4597 89.1902 78.0532 87.7725C77.1125 86.8235 76.7637 85.6591 76.7576 84.3573C75.6578 84.5963 74.5642 84.6722 73.4573 84.4106C72.2139 84.1162 71.1449 83.3848 70.4822 82.2819C69.5969 80.8088 69.7374 79.2464 70.1396 77.6655C69.3527 77.4572 68.6562 77.1423 67.9986 76.6652C66.6536 75.6917 65.6544 74.2636 65.398 72.6038C65.1056 70.7131 65.6237 68.9526 66.7388 67.4261C66.0248 67.2384 65.3241 67.0271 64.6603 66.7019C63.1379 65.956 61.8402 64.6583 61.3129 63.02C61.2893 62.9482 61.2678 62.8763 61.2483 62.8035C61.2288 62.7307 61.2103 62.6578 61.1949 62.584C61.1785 62.5101 61.1641 62.4362 61.1518 62.3624C61.1395 62.2885 61.1293 62.2136 61.12 62.1387C61.1118 62.0639 61.1046 61.989 61.0995 61.9141C61.0944 61.8392 61.0913 61.7633 61.0903 61.6884C61.0893 61.6135 61.0903 61.5376 61.0923 61.4627C61.0954 61.3878 61.0995 61.3119 61.1057 61.237C61.1118 61.1621 61.1211 61.0872 61.1303 61.0123C61.1405 60.9374 61.1529 60.8636 61.1662 60.7897C61.1806 60.7158 61.1959 60.642 61.2134 60.5691C61.2308 60.4963 61.2503 60.4235 61.2719 60.3516C61.2934 60.2798 61.316 60.208 61.3416 60.1362C61.3662 60.0654 61.3929 59.9946 61.4216 59.9249C61.4504 59.8551 61.4801 59.7864 61.5119 59.7177C61.5437 59.6499 61.5776 59.5822 61.6135 59.5156C62.4198 58.0065 63.695 57.3622 65.2441 56.8636C64.8358 55.9137 64.4798 54.9565 64.2962 53.9368C63.8171 51.2757 64.5034 48.7684 66.035 46.5782C66.1663 46.8305 66.1992 47.0008 66.231 47.284C66.3377 48.2319 66.707 49.0844 67.1173 49.9359L67.1204 49.9328Z" fill="#50201E"/>
<path d="M93.8888 139.167C96.8013 139.079 99.4183 138.43 101.93 136.952C101.823 137.942 101.53 138.926 101.475 139.913C101.378 141.694 101.631 143.568 101.74 145.351C101.921 148.357 102.069 151.364 102.183 154.374C102.326 158.69 102.435 163.006 102.512 167.323C102.643 173.001 102.768 178.722 102.567 184.396L102.62 184.792C102.978 185.053 103.389 184.773 103.46 185.299C103.624 186.517 103.38 188.007 103.372 189.254C102.555 189.269 101.738 189.296 100.921 189.267C99.6481 189.265 98.3791 189.26 97.107 189.206C94.6479 189.021 92.1304 189.144 89.6601 189.058C88.7665 188.989 87.872 188.963 86.9774 188.933C86.9774 188.028 86.5168 185.259 86.8923 184.625C87.1344 184.623 87.2995 184.629 87.517 184.514L87.5734 184.279C87.0513 180.65 86.9671 176.905 86.7127 173.246C86.1834 165.986 85.7299 158.72 85.3545 151.451C85.3196 150.217 85.5709 148.76 85.813 147.546L86.9435 147.659C88.1223 146.877 89.3051 146.13 90.2233 145.038C91.8637 143.639 93.263 141.223 93.8898 139.166L93.8888 139.167Z" fill="#304C80"/>
<path d="M86.9425 147.66C91.3425 147.65 96.199 144.253 99.9363 142.099C99.7589 142.467 99.5824 142.834 99.3198 143.15C98.5134 144.124 97.4629 144.895 96.4935 145.699C94.2899 147.526 91.9888 149.254 89.8119 151.104C89.8427 153.195 90.0427 155.282 90.174 157.368C90.5752 163.323 91.0378 169.272 91.5631 175.216C91.796 178.073 92.1027 180.949 92.2186 183.813C94.3381 183.988 96.4596 184.128 98.5842 184.234C99.8502 184.288 101.263 184.202 102.505 184.397L102.435 184.96C101.595 185.202 88.5614 184.821 87.7078 184.588L87.5714 184.28C87.0492 180.651 86.9651 176.906 86.7107 173.247C86.1813 165.987 85.7279 158.721 85.3524 151.452C85.3175 150.218 85.5689 148.761 85.811 147.548L86.9415 147.66H86.9425Z" fill="#09336A"/>
<path d="M160.463 29.9517C160.487 29.9486 160.51 29.9435 160.533 29.9414C160.808 29.9158 161.083 29.8963 161.358 29.884C161.633 29.8707 161.909 29.8645 162.185 29.8645C162.461 29.8645 162.736 29.8707 163.012 29.884C163.287 29.8973 163.562 29.9168 163.836 29.9425C164.111 29.9681 164.384 30.0009 164.657 30.0389C164.93 30.0779 165.202 30.123 165.473 30.1743C165.744 30.2256 166.013 30.2831 166.281 30.3477C166.549 30.4113 166.816 30.4821 167.08 30.559C167.345 30.636 167.608 30.718 167.869 30.8073C168.13 30.8965 168.388 30.9909 168.646 31.0925C168.902 31.194 169.157 31.3007 169.408 31.4136C169.659 31.5264 169.909 31.6454 170.154 31.7696C170.4 31.8937 170.643 32.024 170.882 32.1604C171.122 32.2969 171.358 32.4374 171.592 32.5851C171.825 32.7318 172.055 32.8847 172.282 33.0427C172.507 33.2007 172.73 33.3638 172.948 33.532C176.571 36.3337 179.357 40.8137 179.932 45.383C180.579 50.5289 179.384 55.5926 176.146 59.7177C172.965 63.772 168.285 66.112 163.229 66.7286C158.403 66.8332 154.027 65.9181 150.149 62.8569C150.032 62.7625 149.916 62.6671 149.801 62.5696C149.686 62.4722 149.574 62.3737 149.462 62.2742C149.35 62.1747 149.238 62.0731 149.128 61.9705C149.019 61.8679 148.911 61.7643 148.803 61.6587C148.697 61.553 148.59 61.4463 148.486 61.3386C148.382 61.2309 148.279 61.1211 148.176 61.0113C148.075 60.9005 147.974 60.7887 147.875 60.6759C147.775 60.563 147.678 60.4491 147.581 60.3332C147.485 60.2183 147.391 60.1014 147.297 59.9834C147.204 59.8654 147.112 59.7474 147.021 59.6274C146.931 59.5074 146.842 59.3863 146.755 59.2642C146.667 59.1422 146.581 59.0191 146.497 58.8949C146.413 58.7708 146.33 58.6456 146.249 58.5194C146.168 58.3933 146.088 58.2661 146.01 58.1378C145.932 58.0096 145.855 57.8803 145.78 57.75C145.705 57.6198 145.631 57.4884 145.559 57.3571C145.488 57.2248 145.418 57.0924 145.349 56.9591C145.28 56.8257 145.214 56.6913 145.149 56.5559C145.083 56.4205 145.02 56.2841 144.958 56.1476C144.897 56.0112 144.836 55.8737 144.778 55.7352C144.719 55.5967 144.663 55.4582 144.607 55.3177C144.552 55.1781 144.499 55.0376 144.447 54.896C144.396 54.7545 144.346 54.6129 144.298 54.4713C144.249 54.3287 144.203 54.1861 144.158 54.0425C144.114 53.8989 144.071 53.7553 144.03 53.6106C143.989 53.466 143.95 53.3213 143.912 53.1756C143.874 53.03 143.839 52.8843 143.805 52.7376C143.771 52.5909 143.739 52.4442 143.709 52.2975C143.679 52.1508 143.65 52.003 143.624 51.8553C143.597 51.7076 143.572 51.5588 143.55 51.4111C143.527 51.2624 143.506 51.1146 143.486 50.9649C143.467 50.8161 143.449 50.6663 143.434 50.5176C142.859 45.3092 144.3 40.5973 147.577 36.543C150.765 32.6016 155.5 30.4954 160.462 29.9527L160.463 29.9517Z" fill="#F55F50"/>
<path d="M170.947 46.7524C172.29 47.2387 173.677 47.6706 175 48.2051C174.627 52.4676 173.556 55.8407 170.156 58.6958C167.517 60.9117 163.896 62.0278 160.465 61.719C157.746 61.4749 155.239 60.3536 153.132 58.6373C154.094 58.3018 155.077 58.0156 156.049 57.7099C156.7 57.4155 157.482 57.2534 158.168 57.0472C160.334 56.3978 162.612 55.8325 164.634 54.8046C168.252 52.9642 169.747 50.4867 170.947 46.7524Z" fill="#FDC64A"/>
<path d="M153.133 58.6375C152.869 58.4498 152.607 58.2312 152.37 58.0086C149.986 55.7712 148.494 51.8472 148.393 48.6167C148.281 45.0702 149.72 41.497 152.17 38.9457C154.696 36.3153 158.201 34.9991 161.818 34.9427C165.358 34.8883 168.621 36.2979 171.151 38.7569C173.693 41.2272 174.956 44.6968 175 48.2043C173.677 47.6708 172.29 47.2379 170.947 46.7516C169.748 50.4858 168.253 52.9633 164.634 54.8038C162.613 55.8317 160.334 56.397 158.168 57.0463C157.482 57.2525 156.7 57.4146 156.049 57.7091C155.078 58.0148 154.094 58.3 153.132 58.6365L153.133 58.6375Z" fill="white"/>
<path d="M156.05 57.7101C155.423 55.2008 154.951 52.6463 154.385 50.1227C153.976 48.2987 153.365 46.3864 153.194 44.5275C153.151 44.0566 153.196 43.6288 153.362 43.1857C153.594 42.5691 154.034 42.01 154.65 41.7463C155.277 41.4776 156.017 41.5555 156.661 41.7125C157.518 41.9207 158.369 42.3167 159.197 42.6245L164.131 44.4321C165.33 44.866 166.525 45.3215 167.738 45.7155C168.803 46.0612 169.906 46.3402 170.947 46.7537C169.748 50.4879 168.253 52.9654 164.634 54.8058C162.613 55.8338 160.334 56.399 158.168 57.0484C157.482 57.2546 156.7 57.4167 156.049 57.7111L156.05 57.7101Z" fill="#FDD79D"/>
<path d="M70.2073 129.319L70.4904 129.622C70.2863 130.186 70.1221 130.746 69.9703 131.324C71.1285 132.506 72.3032 133.736 73.6081 134.757C74.4924 135.448 75.5142 136.028 76.3646 136.748L76.4098 136.702L76.9094 136.827C77.2274 136.258 77.5413 135.685 77.8501 135.11C79.4023 135.88 81.1032 136.839 82.8133 137.167C85.1031 138.614 90.5392 139.185 93.2558 139.219L93.8888 139.167C93.2619 141.224 91.8626 143.64 90.2222 145.039C89.3031 146.131 88.1212 146.878 86.9425 147.66L85.812 147.548C85.5699 148.76 85.3185 150.218 85.3534 151.452L85.2159 151.394C84.6558 152.401 84.5963 154.109 84.3378 155.238C83.9008 157.146 83.3929 159.039 82.9539 160.947C82.4337 163.213 81.9762 165.494 81.4222 167.752C80.3225 172.076 79.1889 176.391 78.0225 180.698C77.6726 181.998 76.537 185.422 76.5401 186.607L76.9217 186.754C77.1935 187.517 76.381 190.144 76.1718 191.071C75.0802 190.948 73.9764 190.903 72.8889 190.764C70.2637 190.288 67.5482 190.082 64.8963 189.751C63.8817 189.625 62.8353 189.545 61.8381 189.317C61.0985 189.183 60.3352 189.111 59.5894 189.012C59.9115 187.548 59.9587 186.043 60.287 184.589C60.5312 184.429 60.6902 184.484 60.9733 184.493L60.9928 184.347C61.0328 182.721 61.2739 181.054 61.437 179.432C61.8597 175.242 62.4157 171.078 62.904 166.897L64.8019 151.9C65.6955 144.626 66.5131 137.281 68.4058 130.185C68.7998 130.354 69.2163 130.507 69.5918 130.713C69.8698 130.282 70.0278 129.795 70.2073 129.317V129.319Z" fill="#4774BA"/>
<path d="M89.4385 145.163C89.7124 145.122 89.7206 145.167 89.9196 144.954C90.1176 144.743 90.4028 144.428 90.6859 144.357L90.1915 144.905L90.2223 145.04C89.3031 146.132 88.1212 146.879 86.9425 147.661L85.812 147.548C87.0995 146.866 88.2813 146.047 89.4385 145.164V145.163Z" fill="#083066"/>
<path d="M93.2558 139.221L93.8888 139.168C93.2619 141.225 91.8626 143.641 90.2223 145.04L90.1915 144.905L90.6859 144.357C90.4028 144.428 90.1166 144.743 89.9196 144.954C89.7196 145.168 89.7124 145.122 89.4385 145.163C90.6141 144.021 91.5836 142.802 92.3828 141.369C92.6957 140.662 92.9337 139.925 93.2558 139.221Z" fill="#09336A"/>
<path d="M76.4098 136.702L76.9094 136.827L76.8499 137.027C75.5552 139.344 71.9933 143.13 69.3548 143.814C69.1178 143.876 69.0326 143.865 68.81 143.793C68.768 143.629 68.7485 143.539 68.7587 143.367C68.89 143.337 68.9824 143.278 69.0993 143.213C69.1752 142.905 69.1917 142.618 69.204 142.303L69.286 143.186C69.4112 143.204 69.4184 143.213 69.5641 143.189C69.9323 143.126 70.4412 142.71 70.7561 142.492C72.9187 141.002 75.0689 139.066 76.3636 136.747L76.4087 136.701L76.4098 136.702Z" fill="#09336A"/>
<path d="M70.2073 129.319L70.4904 129.622C70.2863 130.185 70.1221 130.746 69.9703 131.324C69.0255 134.901 69.1753 138.635 69.205 142.303C69.1927 142.618 69.1763 142.904 69.1004 143.213C68.9834 143.279 68.8911 143.337 68.7598 143.367C68.6274 139.41 68.2202 134.472 69.5918 130.715C69.8698 130.284 70.0278 129.797 70.2073 129.319Z" fill="#083066"/>
<path d="M77.8501 135.111C79.4023 135.881 81.1032 136.84 82.8133 137.168C85.1031 138.615 90.5392 139.185 93.2558 139.22C92.9337 139.925 92.6957 140.663 92.3828 141.369C87.0841 141.074 81.4438 139.765 76.8499 137.027L76.9094 136.827C77.2274 136.258 77.5413 135.685 77.8501 135.11V135.111Z" fill="#304C80"/>
<path d="M69.9693 131.324C71.1275 132.506 72.3021 133.736 73.6071 134.757C74.4914 135.448 75.5132 136.028 76.3636 136.748C75.0679 139.066 72.9187 141.003 70.7561 142.493C70.4412 142.709 69.9324 143.127 69.5641 143.19C69.4184 143.214 69.4122 143.205 69.2861 143.186L69.204 142.304C69.1742 138.636 69.0244 134.902 69.9693 131.325V131.324Z" fill="#4774BA"/>
<path d="M60.9908 184.348C64.7773 184.901 68.5843 185.269 72.3729 185.807C73.5722 185.977 74.8597 186.063 76.0363 186.331C76.2508 186.38 76.3862 186.449 76.5401 186.608L76.9217 186.755C77.1935 187.518 76.381 190.145 76.1718 191.072C75.0802 190.948 73.9764 190.904 72.8889 190.765C70.2637 190.289 67.5482 190.083 64.8963 189.752C63.8817 189.626 62.8353 189.546 61.8381 189.318C61.0985 189.184 60.3352 189.112 59.5894 189.013C59.9115 187.549 59.9587 186.044 60.287 184.59C60.5312 184.43 60.6902 184.485 60.9733 184.494L60.9928 184.348H60.9908Z" fill="#4774BA"/>
<path d="M60.9908 184.348C64.7773 184.901 68.5843 185.269 72.3729 185.807C73.5722 185.977 74.8597 186.063 76.0363 186.331C76.2508 186.38 76.3862 186.449 76.5401 186.608C76.5318 186.617 76.5257 186.627 76.5165 186.636C76.3585 186.771 76.3616 186.786 76.142 186.787C74.2123 186.795 72.1257 186.264 70.2011 186.002C67.382 185.617 64.4326 185.407 61.6545 184.799C61.3785 184.739 61.1775 184.703 60.9723 184.495L60.9918 184.349L60.9908 184.348Z" fill="#083066"/>
<path d="M32.8334 139.588C32.3091 139.501 31.787 139.407 31.2658 139.305C25.5947 138.16 20.5187 135.02 17.3138 130.162C13.3949 124.221 12.9805 116.487 14.4198 109.673C15.4293 104.896 17.5949 100.574 21.7908 97.865C27.6137 94.1041 37.5452 93.5943 44.2289 95.0859C48.1221 95.9538 52.4267 98.5031 54.5964 101.928C53.9686 102.733 53.5593 103.776 53.0925 104.683C52.2636 106.296 51.3731 107.932 50.2908 109.389C50.0384 109.728 49.7717 110.168 49.4178 110.405L49.4034 110.459L49.3254 110.53C48.6032 111.196 47.9805 111.965 47.2686 112.646C46.9885 112.918 46.7002 113.18 46.4037 113.435C46.1073 113.689 45.8036 113.934 45.4928 114.17C45.1819 114.406 44.8639 114.633 44.5397 114.851C44.2155 115.068 43.8842 115.275 43.5477 115.472C43.2112 115.669 42.8685 115.857 42.5197 116.033C42.172 116.211 41.8191 116.377 41.461 116.532C41.103 116.688 40.7409 116.833 40.3736 116.967C40.0074 117.101 39.636 117.224 39.2626 117.336C39.6709 117.75 40.0679 118.126 40.5347 118.475C39.8504 119.047 39.2256 119.668 38.5968 120.299L38.6255 120.368C38.5793 120.408 38.5332 120.448 38.487 120.489C37.5781 121.304 36.8959 122.407 35.9808 123.249C34.3794 124.726 32.4138 125.98 30.4892 127.002C29.9373 127.296 29.3177 127.512 28.7863 127.828C29.6336 128.678 30.4543 129.431 31.6136 129.823C31.6238 133.116 31.8772 136.415 32.8334 139.586V139.588Z" fill="#9AD0F8"/>
<path d="M30.4841 109.033C31.1365 109.092 31.7469 109.253 32.2896 109.636C32.382 109.702 32.4702 109.771 32.5553 109.845C32.6405 109.92 32.7205 109.998 32.7975 110.08C32.8744 110.163 32.9462 110.249 33.0149 110.339C33.0826 110.429 33.1463 110.521 33.2047 110.618C33.2632 110.714 33.3165 110.814 33.3658 110.915C33.414 111.017 33.4571 111.121 33.4951 111.227C33.533 111.334 33.5658 111.441 33.5925 111.55C33.6192 111.66 33.6407 111.771 33.6561 111.883C33.7792 112.724 33.5905 113.611 33.0724 114.293C32.4753 115.079 31.7346 115.339 30.7867 115.443C30.1496 115.419 29.5669 115.376 28.9986 115.059C28.9083 115.01 28.8211 114.955 28.736 114.897C28.6519 114.838 28.5698 114.775 28.4918 114.708C28.4139 114.641 28.339 114.569 28.2692 114.495C28.1984 114.42 28.1317 114.341 28.0702 114.259C28.0076 114.176 27.9502 114.091 27.8968 114.004C27.8435 113.916 27.7942 113.826 27.7501 113.732C27.706 113.639 27.667 113.544 27.6332 113.447C27.5993 113.35 27.5706 113.251 27.546 113.152C27.5203 113.043 27.5008 112.933 27.4865 112.822C27.4721 112.712 27.4639 112.6 27.4608 112.488C27.4577 112.376 27.4608 112.264 27.47 112.153C27.4793 112.042 27.4936 111.931 27.5142 111.821C27.5347 111.711 27.5603 111.603 27.5921 111.495C27.6239 111.387 27.6609 111.282 27.7029 111.179C27.745 111.075 27.7932 110.975 27.8455 110.876C27.8978 110.778 27.9563 110.682 28.0189 110.589C28.6119 109.701 29.4582 109.234 30.4851 109.033H30.4841Z" fill="#35B7C5"/>
<path d="M28.7863 127.829C27.8896 126.645 27.4188 125.48 27.4003 123.977C27.3787 122.268 28.025 120.692 29.2315 119.481C30.4133 118.294 31.9726 117.698 33.6418 117.737C35.7869 117.788 37.1698 118.795 38.5968 120.3L38.6255 120.369C38.5793 120.409 38.5332 120.449 38.487 120.49C37.5781 121.305 36.8959 122.408 35.9808 123.25C34.3794 124.727 32.4138 125.981 30.4892 127.003C29.9373 127.297 29.3177 127.513 28.7863 127.829Z" fill="#45B9F8"/>
<path d="M39.2616 117.337C39.1097 117.141 38.9538 116.945 38.8225 116.734C37.8746 115.224 37.5093 113.136 37.9135 111.397C38.2664 109.877 39.2882 108.602 40.5973 107.783C41.9976 106.907 43.6749 106.597 45.2886 106.997C47.2521 107.483 48.4278 108.749 49.4178 110.404L49.4034 110.458L49.3255 110.529C48.6032 111.195 47.9805 111.964 47.2686 112.645C46.9885 112.917 46.7002 113.18 46.4037 113.434C46.1073 113.688 45.8036 113.934 45.4928 114.169C45.1819 114.405 44.8639 114.632 44.5397 114.85C44.2155 115.067 43.8842 115.274 43.5477 115.471C43.2112 115.668 42.8686 115.856 42.5198 116.033C42.172 116.21 41.8191 116.376 41.461 116.531C41.103 116.687 40.7409 116.832 40.3736 116.966C40.0074 117.1 39.636 117.224 39.2626 117.335L39.2616 117.337Z" fill="#45B9F8"/>
<path d="M91.2994 92.2915L92.076 92.1592C92.116 92.5388 92.2432 92.8014 92.4146 93.1399C96.4165 94.491 99.2285 94.7259 103.4 94.2561C103.463 93.6775 103.441 93.0948 103.436 92.5131C104.232 92.9594 104.923 93.46 105.631 94.0335C105.638 94.0673 105.642 94.1022 105.654 94.134C105.758 94.4407 106.101 94.7444 106.293 95.0142C106.776 95.6944 107.27 96.4884 107.57 97.2701C109.252 101.659 108.511 105.99 108.369 110.466C108.241 110.666 107.173 117.763 106.95 118.889C104.708 117.827 102.908 116.549 101.1 114.866C97.187 118.058 94.7731 120.205 89.5913 120.966C92.9234 124.779 96.8238 127.518 101.521 129.402C102.713 129.88 104.022 130.38 105.289 130.61C104.922 132.342 104.425 134.561 103.204 135.923C102.857 136.31 102.213 136.569 101.93 136.951C99.4183 138.43 96.8012 139.077 93.8888 139.166L93.2558 139.218C90.5392 139.184 85.1031 138.613 82.8133 137.166C81.1032 136.838 79.4023 135.88 77.8501 135.109C77.5413 135.684 77.2274 136.257 76.9094 136.826L76.4098 136.701L76.3646 136.747C75.5142 136.027 74.4924 135.447 73.6081 134.756C72.3032 133.735 71.1285 132.506 69.9703 131.323C70.1221 130.745 70.2863 130.184 70.4904 129.621L70.2073 129.318L69.1568 128.332C68.7567 127.889 68.1535 127.334 67.9986 126.744C67.777 125.899 68.3145 124.501 68.5597 123.669C70.3919 117.451 73.2265 111.272 76.3934 105.618C77.7342 103.223 79.5623 100.116 81.3853 98.1155C83.8484 95.4123 87.8012 93.2825 91.3004 92.2915H91.2994Z" fill="#1CBA88"/>
<path d="M88.6742 119.89C89.4036 119.745 90.1597 119.745 90.8973 119.6C93.2732 119.134 95.6625 117.939 97.5111 116.38C98.4242 115.611 99.2049 114.651 100.171 113.952C100.198 113.932 100.226 113.914 100.252 113.895L101.099 114.867C97.1859 118.059 94.772 120.206 89.5903 120.967C89.2733 120.619 88.9768 120.25 88.6742 119.89Z" fill="#D6845A"/>
<path d="M70.4904 129.622C71.7379 130.871 73.009 131.971 74.4821 132.951C75.3664 133.54 76.458 134.103 77.2582 134.792L77.8491 135.111C77.5403 135.686 77.2264 136.259 76.9083 136.828L76.4087 136.703L76.3636 136.749C75.5131 136.029 74.4914 135.449 73.607 134.758C72.3021 133.737 71.1275 132.508 69.9693 131.325C70.1211 130.747 70.2852 130.186 70.4894 129.623L70.4904 129.622Z" fill="#304C80"/>
<path d="M76.4098 136.702C76.6724 136.058 76.9135 135.396 77.2592 134.791L77.8501 135.11C77.5413 135.685 77.2274 136.258 76.9094 136.827L76.4098 136.702Z" fill="#083066"/>
<path d="M82.8133 137.168C83.7951 137.19 84.7799 137.278 85.7617 137.264C89.6211 137.208 93.1316 135.743 95.7907 132.929C96.0472 132.658 96.2062 132.437 96.1929 132.049C95.5948 131.074 93.9862 130.204 93.066 129.527C87.7304 125.608 83.156 119.694 81.2242 113.319C80.8231 111.998 80.6179 110.661 80.4097 109.3C80.9924 110.547 81.7228 111.753 82.4697 112.911C83.5509 114.586 86.8502 119.497 88.6732 119.891C88.9758 120.251 89.2723 120.62 89.5893 120.968C92.9213 124.781 96.8218 127.52 101.519 129.404C102.711 129.882 104.02 130.382 105.287 130.612C104.92 132.344 104.423 134.563 103.202 135.925C102.855 136.312 102.211 136.571 101.928 136.953C99.4162 138.432 96.7992 139.079 93.8867 139.168L93.2537 139.22C90.5372 139.186 85.101 138.615 82.8113 137.168H82.8133Z" fill="#05946C"/>
<path d="M91.2994 92.2915L92.076 92.1592C92.116 92.5388 92.2432 92.8014 92.4145 93.1399C96.4165 94.491 99.2285 94.7259 103.4 94.2561C103.463 93.6775 103.441 93.0948 103.436 92.5131C104.232 92.9594 104.923 93.46 105.631 94.0335C105.638 94.0673 105.642 94.1022 105.654 94.134C105.758 94.4407 106.101 94.7444 106.293 95.0142C106.776 95.6944 107.27 96.4884 107.57 97.2701C109.252 101.659 108.511 105.99 108.369 110.466C108.241 110.666 107.173 117.763 106.95 118.889C104.708 117.827 102.908 116.549 101.1 114.866L100.253 113.894C101.026 112.978 101.488 111.883 101.849 110.753C101.139 109.407 94.7771 101.887 93.4486 100.63C90.2704 97.624 88.0351 97.1501 83.8546 97.2701C85.814 95.7159 88.0699 95.1537 90.2838 94.1299C90.8747 93.857 91.797 93.3543 92.0247 92.7203C91.7836 92.5172 91.5908 92.4136 91.3004 92.2915H91.2994Z" fill="#05946C"/>
<path d="M92.4146 93.1399C96.4165 94.491 99.2285 94.7259 103.4 94.2561C103.355 94.4192 103.305 94.5813 103.254 94.7423C102.864 95.9672 102.096 97.0485 100.918 97.6199C99.6963 98.2139 98.221 98.1226 96.9684 97.6681C94.8408 96.8956 93.3358 95.1537 92.4146 93.1409V93.1399Z" fill="#F2AE7E"/>
<path d="M110.65 46.6766C111.351 47.008 111.957 47.4368 112.56 47.92C116.341 51.3557 117.631 54.2425 118.952 59.0929C119.267 60.248 119.482 61.635 120.002 62.706C120.5 64.606 121.206 66.5869 121.492 68.5259C121.805 69.3712 122.059 70.1683 122.204 71.0608C123.017 74.6145 122.27 78.0891 120.333 81.1575C117.542 85.5801 112.281 88.8947 107.218 90.0201C106.492 90.1812 103.776 90.5197 103.445 90.7003C103.281 90.9865 103.304 91.1209 103.299 91.4451C103.329 91.76 103.323 92.2207 103.436 92.512C103.441 93.0927 103.463 93.6764 103.4 94.255C99.2285 94.7259 96.4165 94.4899 92.4146 93.1388C92.2432 92.8003 92.116 92.5377 92.076 92.1581C92.2802 91.7282 92.1878 90.9588 92.194 90.4767C91.0553 90.1412 89.1584 88.9348 88.1407 88.8814C85.3544 86.9056 83.1591 84.3686 81.3781 81.4745C79.8916 82.047 77.9209 82.1875 76.4375 81.573C74.5888 80.8077 73.1772 79.0945 72.4129 77.2859C71.6846 75.5603 71.4137 73.606 72.1698 71.8384C72.7115 70.5725 73.6973 69.5897 74.9787 69.0788C76.1841 68.5987 77.6521 68.4869 78.8514 69.0398C80.7472 69.9139 81.7608 71.9862 82.443 73.842C82.8431 69.9898 82.2706 67.7339 80.2404 64.448C81.7238 63.6447 83.0452 62.7286 84.1203 61.4093C85.5288 59.6807 86.1331 57.7007 85.8941 55.4838C86.1526 55.572 86.4121 55.6562 86.6737 55.7341C88.8373 56.3702 91.321 56.2635 93.3173 55.1617C95.2009 54.1235 96.0985 52.3877 96.672 50.4006C97.6661 51.8419 98.813 52.837 100.578 53.2207C102.794 53.7029 105.435 53.152 107.327 51.9219C109.32 50.6252 110.16 48.9397 110.65 46.6746V46.6766Z" fill="#F2AE7E"/>
<path d="M110.835 54.5391C111.637 54.5575 112.478 54.535 113.272 54.6529C114.531 54.8396 115.707 55.5208 116.449 56.5559C116.455 56.6421 116.505 56.7396 116.462 56.8145L116.509 56.6832C116.358 56.8206 116.297 56.8996 116.093 56.9468C115.367 56.5816 114.603 56.2666 113.805 56.0984C112.836 55.8943 111.183 56.1969 110.396 55.6409C110.283 55.4049 110.192 55.2551 110.3 54.9833C110.411 54.7012 110.584 54.6468 110.836 54.5411L110.835 54.5391Z" fill="#50201E"/>
<path d="M93.503 58.1244C93.5841 58.1223 93.6436 58.1152 93.7256 58.1398C93.9903 58.2198 94.1001 58.4116 94.2345 58.6332C94.2191 59.4837 91.7006 60.089 90.848 60.6204C90.0797 61.0994 89.5503 61.7211 88.9984 62.4208C88.8137 62.5767 88.8722 62.5798 88.6044 62.5777C88.587 62.5336 88.5644 62.4905 88.5501 62.4444C88.427 62.0258 88.6301 61.4 88.8271 61.0287C89.6673 59.4488 91.8883 58.5594 93.502 58.1244H93.503Z" fill="#50201E"/>
<path d="M106.898 69.2769C107.722 69.5467 109.329 70.1119 109.757 70.9008C109.761 71.0619 109.795 71.1676 109.703 71.3112C109.238 72.0303 107.812 72.1555 107.051 72.3073C106.56 72.3822 106.035 72.5925 105.536 72.5392C105.247 72.5094 105.125 72.4673 104.935 72.2519L104.984 71.979C105.678 71.0137 106.744 70.5602 107.814 70.1376L106.899 69.2769H106.898Z" fill="#D74442"/>
<path d="M113.213 74.2308C113.478 74.3416 113.554 74.4277 113.668 74.6729C113.598 75.3828 112.662 76.4262 112.179 76.9504C110.761 78.4913 108.967 79.354 106.867 79.4381C104.302 79.5418 101.996 78.6913 100.112 76.9668C100.021 76.8683 99.9753 76.8211 99.8912 76.7072C99.7476 76.5133 99.6347 76.3728 99.6881 76.1286C100.259 76.1081 101.428 77.0714 101.924 77.372C103.713 78.4523 106.269 78.7282 108.279 78.2204C110.512 77.6562 112.057 76.1615 113.214 74.2297L113.213 74.2308Z" fill="#D74442"/>
<path d="M122.204 71.0608C121.861 71.9728 121.401 72.6745 120.535 73.1741C119.616 73.7045 118.276 73.8707 117.26 73.5506C116.638 73.3536 116.127 72.9412 115.845 72.3483C115.53 71.6866 115.522 70.8915 115.797 70.2154C116.144 69.365 116.907 68.7649 117.751 68.4479C118.883 68.0221 120.377 68.0355 121.492 68.5248C121.805 69.3701 122.059 70.1672 122.204 71.0597V71.0608Z" fill="#F55F50"/>
<path d="M76.6478 72.3904C77.0356 72.3678 77.49 72.335 77.8727 72.4016C78.838 72.5709 79.7018 73.368 80.2127 74.1641C80.8293 75.1264 81.1617 76.302 80.9031 77.4356C80.6887 78.3733 80.1163 79.116 79.311 79.6187C78.7478 79.6628 78.2184 79.6782 77.6767 79.4905C76.6139 79.1212 75.8548 78.2338 75.388 77.2397C74.9181 76.2384 74.634 74.8884 75.0587 73.8256C75.3767 73.0274 75.8835 72.7115 76.6478 72.3893V72.3904Z" fill="#D6845A"/>
<path d="M90.9219 74.1057C92.0411 74.0205 93.1522 73.9549 94.1893 74.4781C94.93 74.8515 95.565 75.4906 95.7877 76.3062C95.961 76.9423 95.84 77.5937 95.5035 78.1528C94.8182 79.2905 93.5523 79.8465 92.312 80.141C91.2143 80.2825 90.1443 80.2189 89.1399 79.706C88.4218 79.3397 87.7735 78.7181 87.5488 77.9251C87.3518 77.2336 87.5016 76.4909 87.872 75.8846C88.5419 74.7879 89.738 74.3776 90.9219 74.1057Z" fill="#F55F50"/>
<path d="M113.638 60.7988C114.4 60.8193 115.023 60.9599 115.664 61.3846C116.502 61.9396 117.098 62.8916 117.276 63.8765C117.47 64.9506 117.148 66.1303 116.499 67.0003C115.819 67.9123 114.961 68.2149 113.885 68.3852C113.023 68.3934 112.278 68.3452 111.518 67.8846C110.724 67.4045 110.224 66.5786 110.045 65.681C110.02 65.5548 110 65.4276 109.987 65.2994C109.974 65.1711 109.966 65.0429 109.966 64.9136C109.966 64.7844 109.971 64.6561 109.984 64.5279C109.996 64.3997 110.015 64.2725 110.039 64.1463C110.064 64.0201 110.095 63.8949 110.132 63.7718C110.168 63.6487 110.212 63.5266 110.261 63.4076C110.31 63.2886 110.364 63.1717 110.425 63.0578C110.485 62.9439 110.551 62.8332 110.623 62.7265C111.337 61.6575 112.403 61.0553 113.637 60.7988H113.638Z" fill="white"/>
<path d="M112.479 62.068C112.895 62.0813 113.265 62.1603 113.655 62.3091C113.765 62.3501 113.874 62.3962 113.98 62.4475C114.085 62.4988 114.188 62.5563 114.288 62.6178C114.389 62.6794 114.485 62.7471 114.579 62.8179C114.672 62.8897 114.761 62.9656 114.848 63.0467C114.934 63.1277 115.015 63.2118 115.092 63.3011C115.169 63.3903 115.241 63.4827 115.309 63.5781C115.377 63.6745 115.44 63.773 115.498 63.8756C115.555 63.9782 115.609 64.0828 115.656 64.1905C115.947 64.8645 116.021 65.6565 115.725 66.3408C115.358 67.1861 114.723 67.5072 113.904 67.8078C113.271 67.8847 112.712 67.8981 112.12 67.6262C111.372 67.2836 110.831 66.6331 110.573 65.8576C110.304 65.0492 110.316 64.0879 110.732 63.3298C111.136 62.5932 111.704 62.3049 112.481 62.0659L112.479 62.068Z" fill="black"/>
<path d="M113.299 62.6516C113.331 62.6578 113.363 62.6619 113.394 62.6701C113.715 62.7542 114.038 62.9245 114.183 63.2394C114.294 63.4795 114.274 63.7401 114.157 63.974C113.998 64.2899 113.745 64.4018 113.442 64.5351C113.084 64.4654 112.939 64.4151 112.664 64.1771C112.557 63.9319 112.503 63.8488 112.552 63.5759C112.631 63.1297 112.962 62.9081 113.301 62.6537L113.299 62.6516Z" fill="white"/>
<path d="M94.4561 64.1104C95.4809 64.1565 96.3981 64.2848 97.2629 64.8931C98.18 65.5384 98.7514 66.515 98.8951 67.624C99.0469 68.7986 98.7514 69.9907 98.021 70.9284C97.0905 72.1225 95.881 72.5093 94.4458 72.697C93.5256 72.6221 92.6597 72.4395 91.8749 71.9245C90.9486 71.3161 90.2592 70.3057 90.0684 69.209C89.8909 68.1862 90.1915 67.1654 90.7947 66.3324C91.6626 65.1332 93.0178 64.373 94.4571 64.1104H94.4561Z" fill="white"/>
<path d="M94.0324 65.5876C94.6192 65.5692 95.1609 65.5917 95.7128 65.8092C95.8215 65.8513 95.9282 65.8985 96.0329 65.9508C96.1375 66.0031 96.2391 66.0606 96.3375 66.1242C96.436 66.1867 96.5314 66.2544 96.6227 66.3263C96.7151 66.3981 96.8033 66.475 96.8874 66.5561C96.9715 66.6371 97.0516 66.7222 97.1275 66.8105C97.2034 66.8997 97.2742 66.9921 97.3409 67.0875C97.4075 67.1839 97.4691 67.2824 97.5255 67.385C97.5819 67.4865 97.6343 67.5912 97.6804 67.6989C97.7215 67.7922 97.7574 67.8887 97.7881 67.9861C97.8189 68.0836 97.8456 68.1821 97.8671 68.2826C97.8887 68.3821 97.9041 68.4837 97.9153 68.5852C97.9266 68.6868 97.9328 68.7884 97.9338 68.891C97.9338 68.9936 97.9307 69.0951 97.9215 69.1967C97.9123 69.2982 97.8979 69.3998 97.8784 69.5003C97.8589 69.6009 97.8353 69.7004 97.8056 69.7978C97.7769 69.8963 97.743 69.9928 97.704 70.0871C97.3019 71.0545 96.5766 71.5316 95.6553 71.9224C95.0377 71.9963 94.4592 71.9009 93.8949 71.6352C92.9788 71.2054 92.2525 70.3631 91.9355 69.4039C91.679 68.6273 91.6985 67.7563 92.0853 67.0259C92.5048 66.2329 93.2014 65.84 94.0314 65.5876H94.0324Z" fill="black"/>
<path d="M94.0796 66.2896C94.4571 66.3203 94.8777 66.4147 95.1044 66.7522C95.2439 66.9595 95.2768 67.1944 95.1967 67.4303C95.0911 67.7381 94.8192 67.894 94.5597 68.0551C94.5074 68.053 94.455 68.053 94.4027 68.0489C94.0662 68.0253 93.739 67.9484 93.5328 67.653C93.385 67.4406 93.3625 67.2098 93.4353 66.9625C93.5297 66.6425 93.82 66.464 94.0785 66.2896H94.0796Z" fill="white"/>
<path d="M81.3781 81.4756C82.1639 80.9667 83.0257 80.6323 83.7694 80.0537C88.2936 85.7371 92.7757 89.7083 100.331 90.5413C101.266 90.6429 102.204 90.6819 103.143 90.6572C103.264 90.924 103.27 91.1579 103.298 91.4461C103.328 91.7611 103.322 92.2217 103.435 92.513C103.44 93.0937 103.462 93.6774 103.399 94.256C99.2274 94.7269 96.4155 94.491 92.4135 93.1399C92.2422 92.8013 92.115 92.5387 92.075 92.1591C92.2791 91.7293 92.1868 90.9599 92.193 90.4777C91.0542 90.1422 89.1574 88.9358 88.1397 88.8825C85.3534 86.9066 83.158 84.3696 81.3771 81.4756H81.3781Z" fill="#D6845A"/>
</g>
<defs>
<clipPath id="clip0_134_853">
<rect width="218" height="218" fill="white"/>
</clipPath>
</defs>
</svg>
