<svg width="46" height="56" viewBox="0 0 46 56" fill="none" xmlns="http://www.w3.org/2000/svg">
<g clip-path="url(#clip0_88_1289)">
<path d="M39.9758 43.9076C38.5784 37.8953 38.339 31.7716 38.9644 25.5704C39.4921 20.2945 40.2396 14.7618 38.1876 9.81054C36.3994 5.48906 32.8083 2.35937 28.7286 0.935029C20.8038 -1.8313 10.4312 1.56 7.19193 10.7795C5.04706 16.8887 7.45577 23.1965 7.8906 29.3202C8.16421 33.162 7.9248 37.0426 7.32873 40.8554C7.03558 42.7303 6.65449 44.5956 6.205 46.4365C5.83856 47.9432 4.75879 49.9441 6.07308 51.1601C6.54212 51.5913 7.14307 51.8142 7.73426 51.9934C17.1981 54.8373 27.087 56.5281 36.8342 53.3354C41.2412 51.8917 40.9187 47.9432 39.9807 43.9076H39.9758Z" fill="#2D201B"/>
<path d="M46 56H0C4.01614 49.5323 10.2162 44.8523 17.4277 43.2342V35.846H28.5772V43.2342C35.7837 44.8523 41.9839 49.5372 46 56Z" fill="#9E6C52"/>
<path d="M28.5772 37.2268V42.3331C20.8722 43.491 18.8055 39.1937 18.8055 39.1937L28.5772 37.2219V37.2268Z" fill="#874B30"/>
<path d="M32.9255 44.6343C27.942 47.1875 23.2223 52.0273 23.2223 52.0273C23.2223 52.0273 14.892 44.8136 13.9539 44.2855C8.23749 46.4511 3.35656 50.5981 0 56H45.9951C42.8144 50.8743 38.2609 46.8823 32.9207 44.6343H32.9255Z" fill="#58587A"/>
<path d="M9.89866 29.451C8.70163 30.7688 6.56653 30.5556 5.1301 28.9665C3.69367 27.3775 3.49335 25.0229 4.69037 23.7052C5.8874 22.3874 8.0225 22.6006 9.45894 24.1896C10.8954 25.7787 11.0957 28.1332 9.89866 29.451Z" fill="#9E6C52"/>
<path d="M9.62993 27.5325C9.55665 27.0432 9.4687 26.5684 9.24884 26.1275C9.03875 25.7012 8.73094 25.3572 8.37428 25.0811C7.99807 24.7855 7.55346 24.6402 7.10397 24.5821C6.60073 24.5191 6.11703 24.645 5.66265 24.863C5.51607 24.9309 5.39393 25.1489 5.34996 25.3088C5.30598 25.488 5.32553 25.7254 5.41836 25.8804C5.63822 26.2535 5.99488 26.3116 6.34178 26.1469C6.1952 26.2147 6.31246 26.1614 6.34666 26.1469C6.38575 26.1324 6.42972 26.1178 6.46881 26.1033C6.5079 26.0888 6.55187 26.0791 6.59095 26.0694C6.6105 26.0694 6.62516 26.0597 6.63493 26.0597C6.70333 26.05 6.77662 26.05 6.84502 26.05C6.88899 26.05 6.92808 26.05 6.97205 26.05C6.99159 26.05 7.01114 26.05 7.02091 26.05C7.08931 26.0597 7.15771 26.0791 7.22123 26.0984C7.26031 26.113 7.30428 26.1275 7.34337 26.142C7.35803 26.1469 7.37757 26.1566 7.39223 26.1614C7.44109 26.1808 7.42643 26.176 7.34337 26.1372C7.39712 26.1372 7.49483 26.2196 7.5388 26.2486C7.59255 26.2825 7.64629 26.3407 7.70492 26.3697C7.73424 26.3988 7.76355 26.4279 7.79287 26.457C7.84661 26.5102 7.89058 26.5684 7.93944 26.6314C7.93456 26.6217 7.92478 26.612 7.9199 26.6023C7.9199 26.612 7.92967 26.6217 7.93944 26.6314C7.93944 26.6314 7.93944 26.6314 7.93944 26.6362C7.95898 26.6653 7.98341 26.6895 7.93944 26.6362C7.95898 26.6653 7.98341 26.6992 7.99807 26.7234C8.03227 26.7864 8.06647 26.8494 8.10067 26.9124C8.10067 26.9124 8.11533 26.9366 8.1251 26.9608C8.12999 26.9753 8.13487 26.9947 8.13976 27.0093C8.16907 27.1013 8.1935 27.1982 8.21793 27.2951C8.26191 27.4986 8.29122 27.7069 8.32542 27.9152C8.38405 28.3028 8.83355 28.5499 9.15601 28.4336C9.5371 28.2979 9.68856 27.9297 9.62993 27.5179V27.5325Z" fill="#874B30"/>
<path d="M35.857 29.451C37.054 30.7688 39.1891 30.5556 40.6256 28.9665C42.062 27.3775 42.2623 25.0229 41.0653 23.7052C39.8683 22.3874 37.7332 22.6006 36.2967 24.1896C34.8603 25.7787 34.66 28.1332 35.857 29.451Z" fill="#9E6C52"/>
<path d="M36.5948 28.4481C36.9172 28.5644 37.3667 28.3125 37.4254 27.9297C37.4547 27.7214 37.484 27.5131 37.5329 27.3096C37.5524 27.2127 37.5817 27.1158 37.611 27.0238C37.6159 27.0092 37.6208 26.9899 37.6257 26.9753C37.6355 26.9511 37.6501 26.9317 37.6501 26.9269C37.6794 26.8639 37.7136 26.7961 37.7527 26.7379C37.7674 26.7089 37.7918 26.6798 37.8114 26.6507C37.7625 26.7089 37.7869 26.6846 37.8114 26.6507C37.8114 26.6507 37.8114 26.6507 37.8162 26.6459C37.8211 26.6362 37.8309 26.6265 37.8358 26.6168C37.8358 26.6265 37.826 26.6362 37.8162 26.6459C37.8651 26.5878 37.914 26.5296 37.9628 26.4715C37.9921 26.4424 38.0214 26.4133 38.0508 26.3843C38.1094 26.3504 38.1631 26.2971 38.2169 26.2632C38.2608 26.2341 38.3635 26.1517 38.4123 26.1517C38.3293 26.1905 38.3146 26.1953 38.3634 26.176C38.3781 26.1711 38.3977 26.1614 38.4123 26.1566C38.4514 26.142 38.4954 26.1275 38.5345 26.113C38.598 26.0936 38.6664 26.0742 38.7348 26.0645C38.7445 26.0645 38.7592 26.0645 38.7836 26.0645C38.8276 26.0645 38.8667 26.0645 38.9107 26.0645C38.9742 26.0645 39.0524 26.0645 39.1208 26.0742C39.1305 26.0742 39.1452 26.0791 39.1647 26.0839C39.2087 26.0936 39.2478 26.1033 39.2869 26.1178C39.326 26.1324 39.3699 26.142 39.409 26.1614C39.4432 26.176 39.5605 26.2292 39.4139 26.1614C39.7608 26.3261 40.1175 26.268 40.3373 25.895C40.4302 25.7351 40.4497 25.4977 40.4057 25.3233C40.3666 25.1634 40.2396 24.9454 40.093 24.8776C39.6338 24.6596 39.1501 24.5336 38.6517 24.5966C38.1973 24.6547 37.7576 24.8001 37.3814 25.0956C37.0247 25.3717 36.7169 25.7206 36.5068 26.142C36.287 26.5829 36.199 27.0577 36.1257 27.547C36.0671 27.9588 36.2186 28.327 36.5997 28.4627L36.5948 28.4481Z" fill="#874B30"/>
<path d="M37.8122 26.6411L37.8065 26.6468L37.8122 26.6411Z" fill="#874B30"/>
<path d="M36.9123 20.527C36.9123 32.8277 30.6829 40.1675 23.0024 40.1675C15.3219 40.1675 9.09247 32.8277 9.09247 20.527C9.09247 8.22632 15.317 4.26819 23.0024 4.26819C30.6878 4.26819 36.9123 8.22632 36.9123 20.527Z" fill="#9E6C52"/>
<path d="M13.734 20.2945C14.4034 19.8245 15.1607 19.4515 15.9815 19.3062C16.8023 19.156 17.6622 19.248 18.4635 19.5145C18.7029 19.5968 18.8348 19.8681 18.7615 20.1298C18.6882 20.3914 18.4391 20.5416 18.2045 20.4592C18.1899 20.4544 18.1703 20.4447 18.1557 20.4398C17.4912 20.1201 16.773 19.9408 16.0401 19.9747C15.3073 20.0038 14.5744 20.2412 13.8855 20.6094C13.8073 20.653 13.7096 20.6142 13.6705 20.527C13.6363 20.4447 13.6607 20.3478 13.7291 20.2993L13.734 20.2945Z" fill="#5B3D31"/>
<path d="M32.2708 20.2945C31.6015 19.8245 30.8442 19.4515 30.0233 19.3062C29.2025 19.156 28.3426 19.248 27.5413 19.5145C27.3019 19.5968 27.17 19.8681 27.2433 20.1298C27.3166 20.3914 27.5658 20.5416 27.8003 20.4592C27.815 20.4544 27.8345 20.4447 27.8492 20.4398C28.5136 20.1201 29.2318 19.9408 29.9647 19.9747C30.6976 20.0038 31.4305 20.2412 32.1194 20.6094C32.1975 20.653 32.2952 20.6142 32.3343 20.527C32.3685 20.4447 32.3441 20.3478 32.2757 20.2993L32.2708 20.2945Z" fill="#5B3D31"/>
<path d="M18.6296 23.9232C18.6296 24.6547 18.0922 25.2506 17.4277 25.2506C16.7632 25.2506 16.2258 24.6547 16.2258 23.9232C16.2258 23.1916 16.7632 22.5957 17.4277 22.5957C18.0922 22.5957 18.6296 23.1916 18.6296 23.9232Z" fill="#2D2D2D"/>
<path d="M17.3642 23.5647C17.3642 23.773 17.2127 23.9426 17.0222 23.9426C16.8316 23.9426 16.6802 23.773 16.6802 23.5647C16.6802 23.3564 16.8316 23.1868 17.0222 23.1868C17.2127 23.1868 17.3642 23.3564 17.3642 23.5647Z" fill="white"/>
<path d="M29.7791 23.9232C29.7791 24.6547 29.2416 25.2506 28.5772 25.2506C27.9127 25.2506 27.3752 24.6547 27.3752 23.9232C27.3752 23.1916 27.9127 22.5957 28.5772 22.5957C29.2416 22.5957 29.7791 23.1916 29.7791 23.9232Z" fill="#2D2D2D"/>
<path d="M28.5137 23.5647C28.5137 23.773 28.3622 23.9426 28.1717 23.9426C27.9811 23.9426 27.8297 23.773 27.8297 23.5647C27.8297 23.3564 27.9811 23.1868 28.1717 23.1868C28.3622 23.1868 28.5137 23.3564 28.5137 23.5647Z" fill="white"/>
<path d="M22.8852 26.8736C22.8607 26.7912 22.8119 26.6943 22.7386 26.6604C22.636 26.612 22.5334 26.5732 22.4161 26.5829C22.2989 26.5926 22.2011 26.6217 22.0937 26.6798C21.908 26.7815 21.781 26.985 21.7223 27.1982C21.6686 27.3968 21.6784 27.6245 21.7321 27.8183C21.7956 28.0315 21.9031 28.2107 22.0301 28.3803C22.079 28.4481 22.1865 28.4869 22.2598 28.4869C22.338 28.4869 22.4357 28.4481 22.4894 28.3803C22.548 28.3125 22.5871 28.2204 22.5822 28.1284C22.5822 28.0315 22.5432 27.9588 22.4894 27.8813L22.5041 27.9007C22.4503 27.8232 22.4064 27.7408 22.3722 27.6584C22.3575 27.6197 22.3477 27.5761 22.338 27.5325C22.338 27.4986 22.338 27.4647 22.338 27.4307C22.338 27.4114 22.3477 27.3871 22.3526 27.3678C22.3575 27.3532 22.3673 27.3387 22.377 27.3242C22.377 27.3242 22.377 27.3242 22.3819 27.3193C22.3917 27.3145 22.4015 27.3048 22.4112 27.2999C22.4161 27.2999 22.421 27.2999 22.4259 27.2951C22.4308 27.2951 22.4357 27.2951 22.4406 27.2951C22.4503 27.2951 22.4601 27.2951 22.4699 27.3048C22.465 27.3048 22.4601 27.2999 22.4503 27.2951C22.4503 27.2951 22.4601 27.2951 22.465 27.2951C22.5236 27.3193 22.5871 27.329 22.6555 27.3096C22.7288 27.2854 22.8119 27.2224 22.851 27.1449C22.89 27.0625 22.9096 26.9608 22.8852 26.8688V26.8736Z" fill="#874B30"/>
<path d="M29.3344 30.449C30.1709 30.449 30.849 29.7007 30.849 28.7776C30.849 27.8545 30.1709 27.1061 29.3344 27.1061C28.4979 27.1061 27.8198 27.8545 27.8198 28.7776C27.8198 29.7007 28.4979 30.449 29.3344 30.449Z" fill="#9C5252"/>
<path d="M18.185 28.7776C18.185 29.7029 17.5058 30.449 16.6704 30.449C15.8349 30.449 15.1558 29.6981 15.1558 28.7776C15.1558 27.8571 15.8349 27.1061 16.6704 27.1061C17.5058 27.1061 18.185 27.8571 18.185 28.7776Z" fill="#9C5252"/>
<path d="M25.8557 32.1156C25.8557 32.7212 24.4731 34.1116 22.763 34.1116C21.053 34.1116 19.6703 32.7212 19.6703 32.1156C19.6703 31.51 21.053 31.9218 22.763 31.9218C24.4731 31.9218 25.8557 31.51 25.8557 32.1156Z" fill="white"/>
<path d="M9.26351 23.991C9.26351 23.991 13.2992 20.1249 13.6559 11.6273C13.6559 11.6273 13.1526 16.2879 17.0222 16.2879C20.8918 16.2879 21.0335 10.5566 21.0335 10.5566C21.0335 10.5566 20.926 15.692 24.434 15.692C27.942 15.692 28.1668 10.5566 28.1668 10.5566C28.1668 10.5566 28.2645 15.6533 30.9908 15.6533C33.717 15.6533 33.3897 12.5333 33.3897 12.5333C33.3897 12.5333 33.5705 18.2306 36.756 23.7391C36.756 23.7391 41.4806 3.32831 23.2174 3.32831C4.95422 3.32831 9.26351 23.9862 9.26351 23.9862V23.991Z" fill="#2D201B"/>
</g>
<defs>
<clipPath id="clip0_88_1289">
<rect width="46" height="56" fill="white"/>
</clipPath>
</defs>
</svg>
