<svg width="46" height="56" viewBox="0 0 46 56" fill="none" xmlns="http://www.w3.org/2000/svg">
<g clip-path="url(#clip0_88_1074)">
<path d="M46 56H0C4.01168 49.525 10.2125 44.8398 17.4247 43.2247V35.8233H28.5753V43.2247C35.7827 44.8398 41.9834 49.5299 46 56Z" fill="#F0D0C6"/>
<path d="M28.5753 37.3947V42.502C20.8695 43.666 18.7977 39.3639 18.7977 39.3639L28.5753 37.3899V37.3947Z" fill="#D99F8F"/>
<path d="M46 56H0C1.54897 53.507 3.41555 51.2808 5.546 49.3989C6.28872 48.7344 7.06076 48.1136 7.86701 47.5413C10.6229 45.5673 13.7111 44.1268 17.0191 43.3265C17.8449 44.0686 18.7733 44.6555 19.7799 45.0532C22.482 46.1105 25.6044 45.9456 28.1649 44.4905C28.673 44.2044 29.1372 43.86 29.5917 43.4769C32.8215 44.345 35.8266 45.8195 38.5044 47.8081C39.3057 48.3998 40.0729 49.0303 40.8107 49.7142C42.7946 51.533 44.539 53.6477 46.0049 56H46Z" fill="#DE5959"/>
<path d="M40.8058 49.7142C39.1543 50.3398 37.4734 50.8685 35.7729 51.305C25.7999 53.8465 15.177 53.2305 5.54602 49.3989C6.28874 48.7344 7.06079 48.1136 7.86703 47.5413C9.74827 48.2155 11.6539 48.7635 13.5889 49.1855C21.842 50.9946 30.4615 50.495 38.5044 47.8081C39.3057 48.3998 40.0729 49.0303 40.8107 49.7142H40.8058Z" fill="#6DA69F"/>
<path d="M45.9023 22.5533C45.7459 21.525 45.4967 20.4871 44.9396 19.5898C44.2702 18.5179 43.2001 17.7128 42.0323 17.1356C40.366 16.3111 38.4164 15.7242 36.5596 15.4429L38.2014 25.9726C39.4865 26.2539 40.6641 26.4528 41.9883 26.4868C43.5275 26.5207 45.4527 26.1375 45.8925 24.5127C46.0635 23.8774 46.0049 23.2032 45.9023 22.5533Z" fill="#DEA126"/>
<path d="M23.2296 2.21652C17.3318 2.21652 8.3947 3.98198 6.97277 12.2079C6.26914 16.282 6.64538 21.6754 9.1814 24.8619C9.33776 25.0559 9.62605 25.2257 9.75798 25.0074C9.82639 24.891 9.79707 24.731 9.85082 24.6049C9.91435 24.4545 10.0707 24.3963 10.2124 24.3575C11.3802 24.0374 12.5725 23.8677 13.7648 23.7076C17.4589 23.2226 21.1823 22.5921 24.9056 22.6357C29.0346 22.6891 33.0023 23.6979 36.9163 25.1918C37.141 25.2791 37.488 25.1432 37.5857 24.8716C38.4164 22.6503 38.7682 20.2203 38.8904 17.8147C39.0027 15.5593 39.1054 12.9887 38.4897 10.8207C37.7714 8.27923 36.2078 6.26156 34.2434 4.92291C30.9647 2.69184 26.9481 2.21167 23.2296 2.21167V2.21652Z" fill="#5B3D31"/>
<path d="M9.89484 29.426C8.69769 30.7452 6.56236 30.5318 5.12577 28.9409C3.68919 27.3501 3.48885 24.9929 4.686 23.6737C5.88316 22.3544 8.01849 22.5678 9.45507 24.1587C10.8917 25.7495 11.092 28.1067 9.89484 29.426Z" fill="#F0D0C6"/>
<path d="M9.62612 27.5005C9.55283 27.0106 9.46487 26.5353 9.24499 26.0939C9.03487 25.6671 8.72703 25.3227 8.37033 25.0463C7.99408 24.7504 7.54943 24.6049 7.09988 24.5467C6.59659 24.4836 6.11284 24.6098 5.65841 24.828C5.51182 24.8959 5.38966 25.1142 5.34569 25.2742C5.30171 25.4537 5.32125 25.6913 5.4141 25.8465C5.63398 26.22 5.99068 26.2782 6.33761 26.1133C6.19102 26.1812 6.3083 26.1279 6.3425 26.1133C6.38159 26.0988 6.42557 26.0842 6.46466 26.0697C6.50375 26.0551 6.54773 26.0454 6.58682 26.0357C6.60636 26.0357 6.62102 26.026 6.63079 26.026C6.6992 26.0163 6.7725 26.0163 6.84091 26.0163C6.88488 26.0163 6.92397 26.0163 6.96795 26.0163C6.9875 26.0163 7.00704 26.0163 7.01681 26.0163C7.08522 26.026 7.15363 26.0454 7.21716 26.0648C7.25625 26.0794 7.30022 26.0939 7.33931 26.1085C7.35397 26.1133 7.37352 26.123 7.38818 26.1279C7.43704 26.1473 7.42238 26.1424 7.33931 26.1036C7.39306 26.1036 7.49079 26.1861 7.53477 26.2152C7.58852 26.2491 7.64227 26.3073 7.7009 26.3364C7.73022 26.3655 7.75954 26.3946 7.78886 26.4237C7.84261 26.4771 7.88658 26.5353 7.93545 26.5983C7.93056 26.5886 7.92079 26.5789 7.9159 26.5692C7.9159 26.5789 7.92567 26.5886 7.93545 26.5983C7.93545 26.5983 7.93545 26.5983 7.93545 26.6032C7.95499 26.6323 7.97942 26.6565 7.93545 26.6032C7.95499 26.6323 7.97942 26.6662 7.99408 26.6905C8.02829 26.7535 8.06249 26.8166 8.0967 26.8796C8.0967 26.8796 8.11136 26.9039 8.12113 26.9281C8.12601 26.9427 8.1309 26.9621 8.13579 26.9766C8.16511 27.0688 8.18954 27.1658 8.21397 27.2628C8.25795 27.4665 8.28726 27.6751 8.32147 27.8836C8.3801 28.2716 8.82965 28.519 9.15215 28.4026C9.53328 28.2668 9.68476 27.8982 9.62612 27.4859V27.5005Z" fill="#D99F8F"/>
<path d="M35.8559 29.426C37.0531 30.7452 39.1884 30.5318 40.625 28.9409C42.0616 27.3501 42.2619 24.9929 41.0648 23.6737C39.8676 22.3544 37.7323 22.5678 36.2957 24.1587C34.8591 25.7495 34.6588 28.1067 35.8559 29.426Z" fill="#F0D0C6"/>
<path d="M36.5937 28.4171C36.9162 28.5335 37.3658 28.2813 37.4244 27.8981C37.4537 27.6896 37.4831 27.481 37.5319 27.2773C37.5515 27.1803 37.5808 27.0833 37.6101 26.9912C37.615 26.9766 37.6199 26.9572 37.6248 26.9427C37.6345 26.9184 37.6492 26.899 37.6492 26.8942C37.6785 26.8311 37.7127 26.7632 37.7518 26.705C37.7665 26.6759 37.7909 26.6468 37.8104 26.6177C37.7616 26.6759 37.786 26.6516 37.8104 26.6177C37.8104 26.6177 37.8104 26.6177 37.8104 26.6128C37.8153 26.6031 37.8251 26.5934 37.83 26.5837C37.83 26.5934 37.8202 26.6031 37.8104 26.6128C37.8593 26.5546 37.9082 26.4964 37.957 26.4382C37.9863 26.4091 38.0157 26.38 38.045 26.3509C38.1036 26.3218 38.1574 26.2636 38.2111 26.2297C38.2551 26.2006 38.3577 26.1181 38.4066 26.1181C38.3235 26.1569 38.3088 26.1618 38.3577 26.1424C38.3724 26.1375 38.3919 26.1278 38.4066 26.123C38.4457 26.1084 38.4896 26.0939 38.5287 26.0793C38.5923 26.0599 38.6607 26.0405 38.7291 26.0308C38.7388 26.0308 38.7535 26.0308 38.7779 26.0308C38.8219 26.0308 38.861 26.0308 38.905 26.0308C38.9685 26.0308 39.0467 26.0308 39.1151 26.0405C39.1249 26.0405 39.1395 26.0454 39.1591 26.0502C39.203 26.0599 39.2421 26.0696 39.2812 26.0842C39.3203 26.0987 39.3643 26.1084 39.4034 26.1278C39.4376 26.1424 39.5549 26.1957 39.4083 26.1278C39.7552 26.2927 40.1119 26.2345 40.3318 25.8611C40.4246 25.701 40.4442 25.4634 40.4002 25.2888C40.3611 25.1287 40.2341 24.9104 40.0875 24.8425C39.6282 24.6243 39.1444 24.4982 38.646 24.5612C38.1916 24.6194 37.7518 24.7649 37.3756 25.0608C37.0189 25.3373 36.711 25.6865 36.5009 26.1084C36.281 26.5498 36.1931 27.0251 36.1198 27.515C36.0611 27.9272 36.2126 28.2959 36.5937 28.4317V28.4171Z" fill="#D99F8F"/>
<path d="M36.9114 20.4871C36.9114 32.8016 30.6814 40.1496 23 40.1496C15.3187 40.1496 9.08862 32.8016 9.08862 20.4871C9.08862 8.17252 15.3138 4.20993 23 4.20993C30.6862 4.20993 36.9114 8.17252 36.9114 20.4871Z" fill="#F0D0C6"/>
<path d="M13.7306 20.2591C14.4 19.7887 15.1574 19.4152 15.9783 19.2697C16.7992 19.1193 17.6592 19.2115 18.4606 19.4782C18.7 19.5607 18.8319 19.8323 18.7586 20.0942C18.6854 20.3561 18.4362 20.5065 18.2016 20.424C18.1869 20.4192 18.1674 20.4095 18.1527 20.4046C17.4882 20.0845 16.7699 19.9051 16.037 19.939C15.304 19.9681 14.5711 20.2058 13.8821 20.5744C13.8039 20.618 13.7062 20.5792 13.6671 20.4919C13.6329 20.4095 13.6573 20.3125 13.7257 20.264L13.7306 20.2591Z" fill="#5B3D31"/>
<path d="M32.2693 20.2591C31.5999 19.7887 30.8425 19.4152 30.0216 19.2697C29.2007 19.1193 28.3407 19.2115 27.5394 19.4782C27.2999 19.5607 27.168 19.8323 27.2413 20.0942C27.3146 20.3561 27.5638 20.5065 27.7983 20.424C27.813 20.4192 27.8325 20.4095 27.8472 20.4046C28.5117 20.0845 29.23 19.9051 29.963 19.939C30.6959 19.9681 31.4289 20.2058 32.1179 20.5744C32.196 20.618 32.2938 20.5792 32.3329 20.4919C32.3671 20.4095 32.3426 20.3125 32.2742 20.264L32.2693 20.2591Z" fill="#5B3D31"/>
<path d="M18.6316 23.8871C18.6316 24.6194 18.0941 25.216 17.4296 25.216C16.765 25.216 16.2275 24.6194 16.2275 23.8871C16.2275 23.1547 16.765 22.5581 17.4296 22.5581C18.0941 22.5581 18.6316 23.1547 18.6316 23.8871Z" fill="#2D2D2D"/>
<path d="M17.3661 23.533C17.3661 23.7415 17.2146 23.9113 17.0241 23.9113C16.8335 23.9113 16.682 23.7415 16.682 23.533C16.682 23.3244 16.8335 23.1547 17.0241 23.1547C17.2146 23.1547 17.3661 23.3244 17.3661 23.533Z" fill="white"/>
<path d="M29.7774 23.8871C29.7774 24.6194 29.2399 25.216 28.5753 25.216C27.9108 25.216 27.3733 24.6194 27.3733 23.8871C27.3733 23.1547 27.9108 22.5581 28.5753 22.5581C29.2399 22.5581 29.7774 23.1547 29.7774 23.8871Z" fill="#2D2D2D"/>
<path d="M28.5118 23.533C28.5118 23.7415 28.3604 23.9113 28.1698 23.9113C27.9792 23.9113 27.8278 23.7415 27.8278 23.533C27.8278 23.3244 27.9792 23.1547 28.1698 23.1547C28.3604 23.1547 28.5118 23.3244 28.5118 23.533Z" fill="white"/>
<path d="M22.8827 26.8408C22.8582 26.7583 22.8094 26.6613 22.7361 26.6274C22.6335 26.5789 22.5308 26.5401 22.4136 26.5498C22.2963 26.5595 22.1986 26.5886 22.0911 26.6468C21.9054 26.7486 21.7784 26.9523 21.7197 27.1657C21.666 27.3646 21.6757 27.5926 21.7295 27.7866C21.793 28 21.9005 28.1794 22.0276 28.3492C22.0764 28.4171 22.1839 28.4559 22.2572 28.4559C22.3354 28.4559 22.4331 28.4171 22.4869 28.3492C22.5455 28.2813 22.5846 28.1891 22.5797 28.097C22.5797 28 22.5406 27.9272 22.4869 27.8496L22.5015 27.869C22.4478 27.7914 22.4038 27.709 22.3696 27.6265C22.3549 27.5877 22.3452 27.5441 22.3354 27.5004C22.3354 27.4665 22.3354 27.4325 22.3354 27.3986C22.3354 27.3792 22.3452 27.3549 22.3501 27.3355C22.3549 27.321 22.3647 27.3064 22.3745 27.2918C22.3745 27.2918 22.3745 27.2918 22.3794 27.287C22.3891 27.2821 22.3989 27.2724 22.4087 27.2676C22.4136 27.2676 22.4185 27.2676 22.4233 27.2627C22.4282 27.2627 22.4331 27.2627 22.438 27.2627C22.4478 27.2627 22.4576 27.2627 22.4673 27.2724C22.4624 27.2724 22.4576 27.2676 22.4478 27.2627C22.4478 27.2627 22.4576 27.2627 22.4624 27.2627C22.5211 27.287 22.5846 27.2967 22.653 27.2773C22.7263 27.253 22.8094 27.19 22.8485 27.1124C22.8876 27.0299 22.9071 26.9281 22.8827 26.8359V26.8408Z" fill="#D99F8F"/>
<path d="M30.8475 28.7469C30.8475 29.6733 30.1683 30.4202 29.3328 30.4202C28.4972 30.4202 27.818 29.6684 27.818 28.7469C27.818 27.8254 28.4972 27.0736 29.3328 27.0736C30.1683 27.0736 30.8475 27.8254 30.8475 28.7469Z" fill="#DB9999"/>
<path d="M18.1821 28.7469C18.1821 29.6733 17.5029 30.4202 16.6674 30.4202C15.8318 30.4202 15.1526 29.6684 15.1526 28.7469C15.1526 27.8254 15.8318 27.0736 16.6674 27.0736C17.5029 27.0736 18.1821 27.8254 18.1821 28.7469Z" fill="#DB9999"/>
<path d="M25.9709 31.2447C24.1141 32.3118 21.8126 32.2293 20.0145 31.0507C19.7555 30.881 19.5258 31.332 19.7848 31.5018C21.7345 32.7822 24.2118 32.8404 26.2152 31.691C26.484 31.5358 26.2397 31.0944 25.9709 31.2496V31.2447Z" fill="#D99F8F"/>
<path d="M23.7623 33.7377C23.728 33.6019 23.5912 33.5243 23.4691 33.5631C23.0098 33.7135 22.5016 33.6844 22.0667 33.4758C21.9494 33.4176 21.8126 33.4467 21.7491 33.5728C21.6904 33.6844 21.7246 33.8687 21.837 33.9269C22.3941 34.1985 23.0146 34.2518 23.601 34.0578C23.7232 34.019 23.7965 33.8687 23.7574 33.7377H23.7623Z" fill="#D99F8F"/>
<path d="M37.3902 15.118C36.8674 12.0139 35.5676 9.10377 33.6326 7.23646C31.4778 5.15088 28.7414 4.49611 26.0979 4.0305C22.6042 3.41453 18.9394 3.07016 15.6265 4.55916L15.8757 3.91894C12.9488 5.02478 10.4176 7.86213 9.10321 11.5143C7.78878 15.1665 7.8914 20.7975 9.07878 24.5273C11.776 21.7578 13.2664 16.0929 13.3788 11.5677C14.6883 14.9288 18.6169 16.51 23.5717 14.7688C26.3569 18.0523 30.9842 17.5188 34.1115 17.3199C35.123 20.6957 35.2647 22.3496 36.9651 24.5273C37.6834 21.4911 37.8984 18.2172 37.3756 15.1131L37.3902 15.118Z" fill="#5B3D31"/>
<path d="M22.8192 0C3.20548 0 6.82626 18.5907 6.82626 18.5907C6.82626 18.5907 7.87194 14.017 22.0619 14.017C36.2518 14.017 38.8611 18.3724 38.8611 18.3724C38.8611 18.3724 42.433 0 22.8192 0ZM26.2153 11.4221C22.4528 10.7092 19.6578 11.4221 19.6578 11.4221C19.6578 11.4221 18.4215 5.66499 22.9365 5.66499C27.4515 5.66499 26.2153 11.4221 26.2153 11.4221Z" fill="#EFC336"/>
</g>
<defs>
<clipPath id="clip0_88_1074">
<rect width="46" height="56" fill="white"/>
</clipPath>
</defs>
</svg>
