<svg width="46" height="56" viewBox="0 0 46 56" fill="none" xmlns="http://www.w3.org/2000/svg">
<g clip-path="url(#clip0_88_1035)">
<path d="M6.10722 13.2209C5.06488 16.128 5.20679 19.3906 5.5102 22.5071C5.8136 25.6236 6.26871 28.7889 5.79892 31.881C5.45637 34.1503 4.62934 36.2929 4.17913 38.5377C3.72892 40.7826 3.70445 43.305 4.84956 45.209C5.93105 47.0108 7.82977 47.9116 9.66977 48.5398C17.3136 51.1596 25.4859 50.6581 33.4577 50.1322C35.6402 49.9861 37.994 49.7718 39.6725 48.1795C41.6349 46.3144 42.0998 43.0567 41.7866 40.1739C41.4685 37.2911 40.5191 34.5301 40.1864 31.6473C39.5404 26.0814 41.2336 20.4083 40.5289 14.8473C39.6432 7.88382 34.6664 1.83095 28.6032 0.36034C25.1434 -0.482095 21.4634 0.204514 18.3364 2.04521C16.7704 2.96556 15.3366 4.17808 14.1328 5.63895C13.6091 6.27199 12.4004 7.7913 12.4004 7.7913C12.4004 7.7913 10.8687 8.23443 10.1983 8.51686C8.32892 9.30086 6.85105 11.1562 6.11211 13.2257L6.10722 13.2209Z" fill="#E08A64"/>
<path d="M46 56H0C4.01614 49.5896 10.2162 44.9594 17.4277 43.3568V36.0348H28.5772V43.3568C35.7837 44.9594 41.9839 49.5944 46 56Z" fill="#F0D0C6"/>
<path d="M28.577 37.1048V42.1572C20.7353 43.2944 18.6295 39.048 18.6295 39.048L28.577 37.1048Z" fill="#D99F8F"/>
<path d="M0 55.9952H45.9951C42.1695 49.8919 36.3603 45.4008 29.5836 43.6063C29.1341 43.9854 28.6651 44.326 28.1619 44.6091C25.6017 46.0486 22.4797 46.2117 19.7778 45.1657C18.7713 44.7771 17.843 44.1917 17.0173 43.4576C9.98662 45.1369 3.94286 49.7096 0 55.9952Z" fill="#DE5959"/>
<path d="M28.7922 41.8646C26.1832 44.3644 20.1247 44.1533 17.4717 41.7398C15.5614 40.0029 12.796 42.9921 14.721 44.7435C19.1476 48.7692 27.1603 49.0666 31.5429 44.8682C33.4288 43.0593 30.6683 40.0653 28.7922 41.8646Z" fill="#6DA69F"/>
<path d="M9.91451 28.0341C8.71557 29.3586 6.57706 29.1444 5.13833 27.5471C3.69961 25.9499 3.49897 23.5833 4.69791 22.2588C5.89685 20.9343 8.03536 21.1485 9.47408 22.7457C10.9128 24.343 11.1134 26.7096 9.91451 28.0341Z" fill="#F0D0C6"/>
<path d="M9.64535 26.1057C9.57194 25.6139 9.48386 25.1367 9.26365 24.6936C9.05322 24.265 8.74492 23.9193 8.38769 23.6417C8.01088 23.3447 7.56556 23.1986 7.11535 23.1402C6.6113 23.0769 6.12684 23.2035 5.67173 23.4226C5.52492 23.4908 5.40258 23.7099 5.35854 23.8706C5.31449 24.0508 5.33407 24.2894 5.42705 24.4452C5.64726 24.8202 6.00449 24.8786 6.35194 24.713C6.20513 24.7812 6.32258 24.7277 6.35684 24.713C6.39598 24.6984 6.44003 24.6838 6.47918 24.6692C6.51832 24.6546 6.56237 24.6449 6.60152 24.6351C6.62109 24.6351 6.63577 24.6254 6.64556 24.6254C6.71407 24.6157 6.78747 24.6157 6.85598 24.6157C6.90003 24.6157 6.93918 24.6157 6.98322 24.6157C7.00279 24.6157 7.02237 24.6157 7.03215 24.6157C7.10067 24.6254 7.16918 24.6449 7.23279 24.6644C7.27194 24.679 7.31598 24.6936 7.35513 24.7082C7.36981 24.713 7.38939 24.7228 7.40407 24.7277C7.45301 24.7471 7.43833 24.7423 7.35513 24.7033C7.40896 24.7033 7.50684 24.7861 7.55088 24.8153C7.60471 24.8494 7.65854 24.9078 7.71726 24.937C7.74662 24.9663 7.77599 24.9955 7.80535 25.0247C7.85918 25.0783 7.90322 25.1367 7.95216 25.2C7.94726 25.1903 7.93747 25.1805 7.93258 25.1708C7.93258 25.1805 7.94237 25.1903 7.95216 25.2C7.95216 25.2 7.95216 25.2 7.95216 25.2049C7.97173 25.2341 7.9962 25.2584 7.95216 25.2049C7.97173 25.2341 7.9962 25.2682 8.01088 25.2925C8.04513 25.3558 8.07939 25.4191 8.11364 25.4824C8.11364 25.4824 8.12833 25.5068 8.13811 25.5311C8.14301 25.5457 8.1479 25.5652 8.15279 25.5798C8.18216 25.6724 8.20662 25.7697 8.23109 25.8671C8.27513 26.0717 8.3045 26.281 8.33875 26.4904C8.39748 26.88 8.84769 27.1284 9.17067 27.0115C9.55237 26.8751 9.70407 26.505 9.64535 26.0911V26.1057Z" fill="#D99F8F"/>
<path d="M35.9143 28.0341C37.1133 29.3586 39.2518 29.1444 40.6905 27.5471C42.1292 25.9499 42.3299 23.5833 41.1309 22.2588C39.932 20.9343 37.7935 21.1485 36.3548 22.7457C34.916 24.343 34.7154 26.7096 35.9143 28.0341Z" fill="#F0D0C6"/>
<path d="M36.6533 27.0261C36.9763 27.143 37.4265 26.8898 37.4852 26.5051C37.5146 26.2957 37.5439 26.0863 37.5929 25.8818C37.6124 25.7844 37.6418 25.687 37.6712 25.5945C37.6761 25.5798 37.681 25.5604 37.6858 25.5458C37.6956 25.5214 37.7103 25.5019 37.7103 25.4971C37.7397 25.4338 37.7739 25.3656 37.8131 25.3071C37.8278 25.2779 37.8522 25.2487 37.8718 25.2195C37.8229 25.2779 37.8473 25.2536 37.8718 25.2195C37.8718 25.2195 37.8718 25.2195 37.8767 25.2146C37.8816 25.2049 37.8914 25.1951 37.8963 25.1854C37.8963 25.1951 37.8865 25.2049 37.8767 25.2146C37.9256 25.1562 37.9746 25.0978 38.0235 25.0393C38.0529 25.0101 38.0822 24.9809 38.1116 24.9517C38.1703 24.9176 38.2241 24.864 38.278 24.8299C38.322 24.8007 38.4248 24.7179 38.4737 24.7179C38.3905 24.7569 38.3758 24.7618 38.4248 24.7423C38.4395 24.7374 38.459 24.7277 38.4737 24.7228C38.5129 24.7082 38.5569 24.6936 38.5961 24.679C38.6597 24.6595 38.7282 24.64 38.7967 24.6303C38.8065 24.6303 38.8212 24.6303 38.8456 24.6303C38.8897 24.6303 38.9288 24.6303 38.9729 24.6303C39.0365 24.6303 39.1148 24.6303 39.1833 24.64C39.1931 24.64 39.2078 24.6449 39.2273 24.6498C39.2714 24.6595 39.3105 24.6692 39.3497 24.6838C39.3888 24.6984 39.4329 24.7082 39.472 24.7277C39.5063 24.7423 39.6237 24.7958 39.4769 24.7277C39.8244 24.8932 40.1816 24.8348 40.4018 24.4598C40.4948 24.2991 40.5144 24.0605 40.4703 23.8852C40.4312 23.7245 40.3039 23.5054 40.1571 23.4372C39.6971 23.2181 39.2127 23.0915 38.7135 23.1548C38.2584 23.2132 37.818 23.3593 37.4412 23.6564C37.0839 23.9339 36.7756 24.2845 36.5652 24.7082C36.345 25.1513 36.2569 25.6285 36.1835 26.1204C36.1248 26.5343 36.2765 26.9044 36.6582 27.0407L36.6533 27.0261Z" fill="#D99F8F"/>
<path d="M37.8727 25.2097L37.8669 25.2155L37.8727 25.2097Z" fill="#D99F8F"/>
<path d="M36.9713 19.0643C36.9713 31.4282 30.732 38.8056 23.0392 38.8056C15.3464 38.8056 9.10706 31.4282 9.10706 19.0643C9.10706 6.70051 15.3415 2.72208 23.0392 2.72208C30.7368 2.72208 36.9713 6.70051 36.9713 19.0643Z" fill="#F0D0C6"/>
<path d="M13.756 18.8355C14.4264 18.3631 15.1849 17.9882 16.0071 17.8421C16.8292 17.6911 17.6905 17.7837 18.493 18.0515C18.7328 18.1343 18.8649 18.407 18.7915 18.6699C18.7181 18.9329 18.4685 19.0838 18.2336 19.001C18.219 18.9962 18.1994 18.9864 18.1847 18.9816C17.5192 18.6602 16.7998 18.48 16.0658 18.5141C15.3317 18.5433 14.5977 18.7819 13.9077 19.152C13.8294 19.1958 13.7315 19.1569 13.6924 19.0692C13.6581 18.9864 13.6826 18.889 13.7511 18.8403L13.756 18.8355Z" fill="#5B3D31"/>
<path d="M32.3224 18.8355C31.652 18.3631 30.8935 17.9882 30.0713 17.8421C29.2492 17.6911 28.3879 17.7837 27.5854 18.0515C27.3456 18.1343 27.2135 18.407 27.2869 18.6699C27.3603 18.9329 27.6098 19.0838 27.8447 19.001C27.8594 18.9962 27.879 18.9864 27.8937 18.9816C28.5592 18.6602 29.2786 18.48 30.0126 18.5141C30.7466 18.5433 31.4807 18.7819 32.1707 19.152C32.249 19.1958 32.3469 19.1569 32.386 19.0692C32.4203 18.9864 32.3958 18.889 32.3273 18.8403L32.3224 18.8355Z" fill="#5B3D31"/>
<path d="M18.6594 22.4779C18.6594 23.2132 18.1211 23.8122 17.4555 23.8122C16.79 23.8122 16.2517 23.2132 16.2517 22.4779C16.2517 21.7426 16.79 21.1436 17.4555 21.1436C18.1211 21.1436 18.6594 21.7426 18.6594 22.4779Z" fill="#2D2D2D"/>
<path d="M17.3919 22.1176C17.3919 22.3269 17.2402 22.4974 17.0493 22.4974C16.8585 22.4974 16.7068 22.3269 16.7068 22.1176C16.7068 21.9082 16.8585 21.7377 17.0493 21.7377C17.2402 21.7377 17.3919 21.9082 17.3919 22.1176Z" fill="white"/>
<path d="M29.8266 22.4779C29.8266 23.2132 29.2883 23.8122 28.6228 23.8122C27.9572 23.8122 27.4189 23.2132 27.4189 22.4779C27.4189 21.7426 27.9572 21.1436 28.6228 21.1436C29.2883 21.1436 29.8266 21.7426 29.8266 22.4779Z" fill="#2D2D2D"/>
<path d="M28.5591 22.1176C28.5591 22.3269 28.4074 22.4974 28.2166 22.4974C28.0257 22.4974 27.874 22.3269 27.874 22.1176C27.874 21.9082 28.0257 21.7377 28.2166 21.7377C28.4074 21.7377 28.5591 21.9082 28.5591 22.1176Z" fill="white"/>
<path d="M22.9217 25.4435C22.8972 25.3607 22.8483 25.2633 22.7749 25.2292C22.6721 25.1805 22.5693 25.1416 22.4519 25.1513C22.3344 25.1611 22.2366 25.1903 22.1289 25.2487C21.943 25.351 21.8157 25.5555 21.757 25.7697C21.7032 25.9694 21.713 26.1983 21.7668 26.3931C21.8304 26.6073 21.9381 26.7875 22.0653 26.9579C22.1142 27.0261 22.2219 27.0651 22.2953 27.0651C22.3736 27.0651 22.4715 27.0261 22.5253 26.9579C22.584 26.8897 22.6232 26.7972 22.6183 26.7047C22.6183 26.6073 22.5791 26.5343 22.5253 26.4564L22.54 26.4758C22.4862 26.3979 22.4421 26.3151 22.4079 26.2324C22.3932 26.1934 22.3834 26.1496 22.3736 26.1057C22.3736 26.0717 22.3736 26.0376 22.3736 26.0035C22.3736 25.984 22.3834 25.9597 22.3883 25.9402C22.3932 25.9256 22.403 25.911 22.4127 25.8964C22.4127 25.8964 22.4127 25.8964 22.4176 25.8915C22.4274 25.8866 22.4372 25.8769 22.447 25.872C22.4519 25.872 22.4568 25.872 22.4617 25.8671C22.4666 25.8671 22.4715 25.8671 22.4764 25.8671C22.4862 25.8671 22.4959 25.8671 22.5057 25.8769C22.5008 25.8769 22.4959 25.872 22.4862 25.8671C22.4862 25.8671 22.4959 25.8671 22.5008 25.8671C22.5596 25.8915 22.6232 25.9012 22.6917 25.8817C22.7651 25.8574 22.8483 25.7941 22.8874 25.7162C22.9266 25.6334 22.9462 25.5311 22.9217 25.4386V25.4435Z" fill="#D99F8F"/>
<path d="M30.8983 27.3572C30.8983 28.2873 30.2181 29.0372 29.3813 29.0372C28.5445 29.0372 27.8643 28.2824 27.8643 27.3572C27.8643 26.432 28.5445 25.6772 29.3813 25.6772C30.2181 25.6772 30.8983 26.432 30.8983 27.3572Z" fill="#DB9999"/>
<path d="M18.2141 27.3572C18.2141 28.2873 17.5339 29.0372 16.6971 29.0372C15.8603 29.0372 15.1801 28.2824 15.1801 27.3572C15.1801 26.432 15.8603 25.6772 16.6971 25.6772C17.5339 25.6772 18.2141 26.432 18.2141 27.3572Z" fill="#DB9999"/>
<path d="M25.9949 29.8651C24.1354 30.9364 21.8305 30.8536 20.0296 29.6703C19.7703 29.4998 19.5403 29.9527 19.7996 30.1231C21.7522 31.4087 24.2332 31.4671 26.2396 30.3131C26.5088 30.1572 26.2641 29.7141 25.9949 29.8699V29.8651Z" fill="#D99F8F"/>
<path d="M23.783 32.3631C23.7487 32.2268 23.6117 32.1489 23.4894 32.1878C23.0294 32.3388 22.5204 32.3096 22.0849 32.1002C21.9675 32.0418 21.8304 32.071 21.7668 32.1976C21.7081 32.3096 21.7424 32.4946 21.8549 32.5531C22.4128 32.8258 23.0343 32.8793 23.6215 32.6845C23.7438 32.6456 23.8172 32.4946 23.7781 32.3631H23.783Z" fill="#D99F8F"/>
<path d="M13.7903 10.5231C14.1084 11.0296 14.4607 11.536 14.955 11.833C15.4443 12.1301 16.105 12.169 16.5307 11.7649C16.9565 11.3656 16.9614 10.4793 16.4622 10.192C17.5877 11.5652 19.0411 12.6122 20.6316 13.1965C21.3411 13.4595 22.1388 13.625 22.8239 13.2988C23.5139 12.9725 23.9788 11.984 23.5873 11.2779C26.4892 15.12 30.7712 17.6473 35.2684 18.1683C35.3809 19.751 35.9584 21.2849 36.8931 22.4876C37.9256 19.6438 37.7886 16.4591 37.4656 13.4156C37.2405 11.2779 36.9077 9.06712 35.8067 7.28973C34.642 5.41495 32.7629 4.25112 30.8837 3.32103C28.0209 1.90399 24.9575 0.857033 21.8256 0.788859C18.6888 0.720686 15.4639 1.6946 13.0709 3.93947C10.7416 6.12103 9.35178 9.36417 8.84774 12.6949C8.59817 14.3603 8.55413 16.0549 8.65689 17.7349C8.74498 19.2104 8.76944 21.2946 9.35668 22.6337C10.6046 20.9976 11.4952 18.8014 12.2097 16.8292C12.5816 15.8066 12.9046 14.7596 13.1688 13.6932C13.296 13.1916 14.0546 10.9419 13.7903 10.5231Z" fill="#E08A64"/>
</g>
<defs>
<clipPath id="clip0_88_1035">
<rect width="46" height="56" fill="white"/>
</clipPath>
</defs>
</svg>
