<svg width="46" height="56" viewBox="0 0 46 56" fill="none" xmlns="http://www.w3.org/2000/svg">
<g clip-path="url(#clip0_88_1157)">
<path d="M44.3093 48.8091C45.2866 46.4418 45.4576 43.5852 44.9104 41.1339C44.5341 39.4436 43.8012 37.9165 43.2392 36.3103C42.6773 34.7041 42.2864 32.9002 42.6431 31.205C42.8043 30.4439 43.1024 29.7471 43.3223 29.0107C44.0308 26.6186 43.7914 23.8263 42.692 21.6715C41.8711 20.0653 40.5615 18.6271 40.586 16.7244C40.6348 12.8052 39.5012 8.75261 37.2095 5.81201C33.6474 1.24048 27.6371 -0.35091 22.4772 0.0642342C17.5175 0.464552 11.649 2.73302 8.47292 7.34903C6.20566 10.6405 5.56555 14.446 5.33589 18.5233C5.21862 20.5694 4.7984 22.5809 4.08988 24.3947C3.60124 25.65 2.98068 26.8114 2.58488 28.126C1.56852 31.5213 3.32272 34.6448 4.02147 37.8226C4.62249 40.5705 4.46124 43.605 3.57681 46.2046C3.19568 47.3264 2.56045 48.4434 2.50182 49.6641C2.46272 50.44 2.67284 51.2555 3.17613 51.7843C3.68431 52.323 4.41726 52.5059 5.11601 52.5503C15.4946 53.1582 25.9172 53.3609 36.3055 53.6821C38.0793 53.7365 39.9361 53.5289 41.4557 52.491C42.7506 51.6064 43.6937 50.3066 44.3142 48.8042L44.3093 48.8091Z" fill="#5B3D31"/>
<path d="M28.5753 42.9773V35.4355H17.4247V42.9773C10.2125 44.628 4.01168 49.4022 0 56H46C41.9834 49.4022 35.7827 44.628 28.5753 42.9773Z" fill="#E9AE8F"/>
<path d="M28.5753 41.895C20.8451 43.091 18.7684 38.6974 18.7684 38.6974L28.5753 36.676V41.89V41.895Z" fill="#CC7F57"/>
<path d="M43.9232 52.9951C44.0063 53.1039 44.0942 53.2126 44.1724 53.3213C44.0894 53.2126 44.0063 53.1039 43.9232 52.9951Z" fill="#EFC336"/>
<path d="M43.2393 52.155C43.3272 52.2637 43.4152 52.3675 43.508 52.4762C43.4201 52.3675 43.3321 52.2588 43.2393 52.155Z" fill="#EFC336"/>
<path d="M34.8005 45.3001C35.0204 45.4138 35.2354 45.5374 35.4504 45.656C34.6295 45.1964 33.789 44.7713 32.9241 44.4007C27.9401 47.0003 22.1546 47.4451 16.853 45.4286C15.8561 45.0481 14.8838 44.5786 13.9456 44.0399C13.0025 44.4056 12.0839 44.8257 11.1946 45.2952C11.8542 46.7877 12.851 50.1138 12.3087 55.9901H33.6815C33.144 50.1138 34.1359 46.7877 34.7956 45.2952L34.8005 45.3001Z" fill="#EFC336"/>
<path d="M42.8092 51.6558C42.7212 51.552 42.6284 51.4482 42.5355 51.3494C42.6284 51.4482 42.7163 51.552 42.8092 51.6558Z" fill="#EFC336"/>
<path d="M45.2377 54.8089C45.2963 54.8979 45.3598 54.9868 45.4185 55.0807C45.3598 54.9918 45.2963 54.9028 45.2377 54.8089Z" fill="#EFC336"/>
<path d="M44.5829 53.8748C44.6611 53.9786 44.7344 54.0824 44.8125 54.1911C44.7392 54.0874 44.6611 53.9836 44.5829 53.8748Z" fill="#EFC336"/>
<path d="M41.0648 49.8272C41.1332 49.8964 41.2065 49.9656 41.2749 50.0348C41.2065 49.9656 41.1381 49.8964 41.0648 49.8272Z" fill="#EFC336"/>
<path d="M37.4342 46.8866C37.5955 46.9953 37.7567 47.109 37.9131 47.2227C37.7518 47.109 37.5955 46.9953 37.4342 46.8866Z" fill="#EFC336"/>
<path d="M35.6849 45.7894C35.8755 45.8982 36.0661 46.0118 36.2518 46.1304C36.0612 46.0168 35.8755 45.9031 35.6849 45.7894Z" fill="#EFC336"/>
<path d="M38.2844 47.4945C38.4359 47.6032 38.5825 47.7169 38.7291 47.8305C38.5825 47.7169 38.431 47.6081 38.2844 47.4945Z" fill="#EFC336"/>
<path d="M9.89484 28.9168C8.69769 30.261 6.56236 30.0436 5.12577 28.4226C3.68919 26.8015 3.48885 24.3996 4.686 23.0553C5.88316 21.7111 8.01849 21.9285 9.45507 23.5496C10.8917 25.1706 11.092 27.5725 9.89484 28.9168Z" fill="#E9AE8F"/>
<path d="M9.62612 26.9547C9.55283 26.4556 9.46487 25.9712 9.24499 25.5215C9.03487 25.0866 8.72703 24.7357 8.37033 24.454C7.99408 24.1525 7.54943 24.0042 7.09988 23.9449C6.59659 23.8807 6.11284 24.0092 5.65841 24.2316C5.51182 24.3008 5.38966 24.5232 5.34569 24.6863C5.30171 24.8691 5.32125 25.1113 5.4141 25.2694C5.63398 25.65 5.99068 25.7093 6.33761 25.5413C6.19102 25.6104 6.3083 25.5561 6.3425 25.5413C6.38159 25.5264 6.42557 25.5116 6.46466 25.4968C6.50375 25.4819 6.54773 25.4721 6.58682 25.4622C6.60636 25.4622 6.62102 25.4523 6.63079 25.4523C6.6992 25.4424 6.7725 25.4424 6.84091 25.4424C6.88488 25.4424 6.92397 25.4424 6.96795 25.4424C6.9875 25.4424 7.00704 25.4424 7.01681 25.4424C7.08522 25.4523 7.15363 25.4721 7.21716 25.4918C7.25625 25.5067 7.30022 25.5215 7.33931 25.5363C7.35397 25.5413 7.37352 25.5511 7.38818 25.5561C7.43704 25.5759 7.42238 25.5709 7.33931 25.5314C7.39306 25.5314 7.49079 25.6154 7.53477 25.645C7.58852 25.6796 7.64227 25.7389 7.7009 25.7686C7.73022 25.7982 7.75954 25.8279 7.78886 25.8576C7.84261 25.9119 7.88658 25.9712 7.93545 26.0355C7.93056 26.0256 7.92079 26.0157 7.9159 26.0058C7.9159 26.0157 7.92567 26.0256 7.93545 26.0355C7.93545 26.0355 7.93545 26.0355 7.93545 26.0404C7.95499 26.0701 7.97942 26.0948 7.93545 26.0404C7.95499 26.0701 7.97942 26.1047 7.99408 26.1294C8.02829 26.1936 8.06249 26.2579 8.0967 26.3221C8.0967 26.3221 8.11136 26.3468 8.12113 26.3715C8.12601 26.3864 8.1309 26.4061 8.13579 26.421C8.16511 26.5149 8.18954 26.6137 8.21397 26.7126C8.25795 26.9201 8.28726 27.1326 8.32147 27.3452C8.3801 27.7405 8.82965 27.9926 9.15215 27.874C9.53328 27.7356 9.68476 27.36 9.62612 26.9399V26.9547Z" fill="#CC7F57"/>
<path d="M35.8559 28.9168C37.0531 30.261 39.1884 30.0436 40.625 28.4226C42.0616 26.8015 42.2619 24.3996 41.0648 23.0553C39.8676 21.7111 37.7323 21.9285 36.2957 23.5496C34.8591 25.1706 34.6588 27.5725 35.8559 28.9168Z" fill="#E9AE8F"/>
<path d="M36.5939 27.8937C36.9164 28.0124 37.3659 27.7554 37.4245 27.3649C37.4539 27.1524 37.4832 26.9399 37.532 26.7323C37.5516 26.6335 37.5809 26.5346 37.6102 26.4407C37.6151 26.4259 37.62 26.4061 37.6249 26.3913C37.6346 26.3666 37.6493 26.3468 37.6493 26.3419C37.6786 26.2776 37.7128 26.2085 37.7519 26.1492C37.7666 26.1195 37.791 26.0898 37.8106 26.0602C37.7617 26.1195 37.7861 26.0948 37.8106 26.0602C37.8106 26.0602 37.8106 26.0602 37.8154 26.0553C37.8203 26.0454 37.8301 26.0355 37.835 26.0256C37.835 26.0355 37.8252 26.0454 37.8154 26.0553C37.8643 25.9959 37.9132 25.9366 37.962 25.8773C37.9914 25.8477 38.0207 25.818 38.05 25.7884C38.1086 25.7538 38.1624 25.6994 38.2161 25.6648C38.2601 25.6352 38.3627 25.5511 38.4116 25.5511C38.3285 25.5907 38.3138 25.5956 38.3627 25.5759C38.3774 25.5709 38.3969 25.561 38.4116 25.5561C38.4507 25.5413 38.4946 25.5264 38.5337 25.5116C38.5973 25.4918 38.6657 25.4721 38.7341 25.4622C38.7438 25.4622 38.7585 25.4622 38.7829 25.4622C38.8269 25.4622 38.866 25.4622 38.91 25.4622C38.9735 25.4622 39.0517 25.4622 39.1201 25.4721C39.1299 25.4721 39.1445 25.477 39.1641 25.482C39.208 25.4918 39.2471 25.5017 39.2862 25.5166C39.3253 25.5314 39.3693 25.5413 39.4084 25.561C39.4426 25.5759 39.5599 25.6302 39.4133 25.561C39.7602 25.7291 40.1169 25.6698 40.3368 25.2892C40.4296 25.1261 40.4492 24.884 40.4052 24.706C40.3661 24.5429 40.2391 24.3205 40.0925 24.2513C39.6332 24.029 39.1494 23.9005 38.651 23.9647C38.1966 24.024 37.7568 24.1723 37.3806 24.4737C37.0239 24.7555 36.716 25.1113 36.5059 25.5413C36.286 25.991 36.1981 26.4753 36.1248 26.9745C36.0661 27.3946 36.2176 27.7702 36.5987 27.9086L36.5939 27.8937Z" fill="#CC7F57"/>
<path d="M36.9114 19.8083C36.9114 32.3566 30.6814 39.844 23 39.844C15.3187 39.844 9.08862 32.3566 9.08862 19.8083C9.08862 7.2601 15.3187 3.22726 23 3.22726C30.6814 3.22726 36.9114 7.26504 36.9114 19.8133V19.8083Z" fill="#E9AE8F"/>
<path d="M13.7306 19.576C14.4 19.0967 15.1574 18.7161 15.9783 18.5678C16.7992 18.4146 17.6592 18.5085 18.4606 18.7803C18.7 18.8644 18.8319 19.1411 18.7586 19.408C18.6854 19.6749 18.4362 19.8281 18.2016 19.7441C18.1869 19.7391 18.1674 19.7293 18.1527 19.7243C17.4882 19.3981 16.7699 19.2153 16.037 19.2499C15.304 19.2795 14.5711 19.5217 13.8821 19.8973C13.8039 19.9418 13.7062 19.9022 13.6671 19.8133C13.6329 19.7293 13.6573 19.6304 13.7257 19.581L13.7306 19.576Z" fill="#5B3D31"/>
<path d="M32.2693 19.576C31.5999 19.0967 30.8425 18.7161 30.0216 18.5678C29.2007 18.4146 28.3407 18.5085 27.5394 18.7803C27.2999 18.8644 27.168 19.1411 27.2413 19.408C27.3146 19.6749 27.5638 19.8281 27.7983 19.7441C27.813 19.7391 27.8325 19.7293 27.8472 19.7243C28.5117 19.3981 29.23 19.2153 29.963 19.2499C30.6959 19.2795 31.4289 19.5217 32.1179 19.8973C32.196 19.9418 32.2938 19.9022 32.3329 19.8133C32.3671 19.7293 32.3426 19.6304 32.2742 19.581L32.2693 19.576Z" fill="#5B3D31"/>
<path d="M18.6316 23.2728C18.6316 24.0191 18.0941 24.627 17.4296 24.627C16.765 24.627 16.2275 24.0191 16.2275 23.2728C16.2275 22.5265 16.765 21.9186 17.4296 21.9186C18.0941 21.9186 18.6316 22.5265 18.6316 23.2728Z" fill="#2D2D2D"/>
<path d="M17.3661 22.912C17.3661 23.1245 17.2146 23.2975 17.0241 23.2975C16.8335 23.2975 16.682 23.1245 16.682 22.912C16.682 22.6995 16.8335 22.5265 17.0241 22.5265C17.2146 22.5265 17.3661 22.6995 17.3661 22.912Z" fill="white"/>
<path d="M29.7774 23.2728C29.7774 24.0191 29.2399 24.627 28.5753 24.627C27.9108 24.627 27.3733 24.0191 27.3733 23.2728C27.3733 22.5265 27.9108 21.9186 28.5753 21.9186C29.2399 21.9186 29.7774 22.5265 29.7774 23.2728Z" fill="#2D2D2D"/>
<path d="M28.5167 22.912C28.5167 23.1245 28.3653 23.2975 28.1747 23.2975C27.9841 23.2975 27.8326 23.1245 27.8326 22.912C27.8326 22.6995 27.9841 22.5265 28.1747 22.5265C28.3653 22.5265 28.5167 22.6995 28.5167 22.912Z" fill="white"/>
<path d="M26.3178 30.5826C25.8829 29.4064 24.1873 30.6271 22.8778 30.6271C21.5683 30.6271 19.8678 29.4064 19.4378 30.5826C18.8954 32.0653 20.762 33.3898 22.8778 33.3898C24.9936 33.3898 26.8651 32.0653 26.3178 30.5826Z" fill="#663837"/>
<path d="M19.7799 32.1787C20.3956 32.8953 21.5879 33.3895 22.8778 33.3895C24.1678 33.3895 25.3601 32.8953 25.9758 32.1787C25.2428 31.6301 24.1287 31.2841 22.8778 31.2841C21.6269 31.2841 20.5129 31.635 19.7799 32.1787Z" fill="#A75A5A"/>
<path d="M19.946 30.1029C20.7327 30.9678 21.8077 31.5016 22.9218 31.4719C24.0017 31.4472 25.0376 30.9382 25.795 30.098C25.0767 29.9299 23.8649 30.6268 22.873 30.6268C21.881 30.6268 20.6643 29.925 19.946 30.098V30.1029Z" fill="white"/>
<path d="M22.8827 26.2826C22.8582 26.1986 22.8094 26.0998 22.7361 26.0652C22.6335 26.0157 22.5308 25.9762 22.4136 25.9861C22.2963 25.996 22.1986 26.0256 22.0911 26.0849C21.9054 26.1887 21.7784 26.3963 21.7197 26.6137C21.666 26.8164 21.6757 27.0487 21.7295 27.2463C21.793 27.4638 21.9005 27.6467 22.0276 27.8196C22.0764 27.8888 22.1839 27.9284 22.2572 27.9284C22.3354 27.9284 22.4331 27.8888 22.4869 27.8196C22.5455 27.7504 22.5846 27.6565 22.5797 27.5626C22.5797 27.4638 22.5406 27.3897 22.4869 27.3106L22.5015 27.3304C22.4478 27.2513 22.4038 27.1673 22.3696 27.0832C22.3549 27.0437 22.3452 26.9992 22.3354 26.9548C22.3354 26.9202 22.3354 26.8856 22.3354 26.851C22.3354 26.8312 22.3452 26.8065 22.3501 26.7867C22.3549 26.7719 22.3647 26.7571 22.3745 26.7422C22.3745 26.7422 22.3745 26.7422 22.3794 26.7373C22.3891 26.7324 22.3989 26.7225 22.4087 26.7175C22.4136 26.7175 22.4185 26.7175 22.4233 26.7126C22.4282 26.7126 22.4331 26.7126 22.438 26.7126C22.4478 26.7126 22.4576 26.7126 22.4673 26.7225C22.4624 26.7225 22.4576 26.7175 22.4478 26.7126C22.4478 26.7126 22.4576 26.7126 22.4624 26.7126C22.5211 26.7373 22.5846 26.7472 22.653 26.7274C22.7263 26.7027 22.8094 26.6385 22.8485 26.5594C22.8876 26.4754 22.9071 26.3716 22.8827 26.2777V26.2826Z" fill="#CC7F57"/>
<path d="M29.3328 29.93C30.1693 29.93 30.8475 29.1666 30.8475 28.2249C30.8475 27.2832 30.1693 26.5198 29.3328 26.5198C28.4962 26.5198 27.818 27.2832 27.818 28.2249C27.818 29.1666 28.4962 29.93 29.3328 29.93Z" fill="#E59090"/>
<path d="M18.187 28.2249C18.187 29.1689 17.5078 29.93 16.6722 29.93C15.8367 29.93 15.1575 29.1639 15.1575 28.2249C15.1575 27.2859 15.8367 26.5198 16.6722 26.5198C17.5078 26.5198 18.187 27.2859 18.187 28.2249Z" fill="#E59090"/>
<path d="M37.3902 14.3373C36.8674 11.1743 35.5676 8.20899 33.6326 6.30624C31.4729 4.1811 28.7414 3.5139 26.0979 3.03945C22.6042 2.41179 18.9394 2.0609 15.6265 3.57815L15.8757 2.92578C12.9488 4.0526 10.4176 6.94378 9.10321 10.6653C7.78878 14.3867 7.8914 20.1246 9.07878 23.9252C11.776 21.1032 12.6018 18.3701 12.7142 13.7591C15.2502 16.3488 30.1975 15.7755 33.4567 13.7591C33.6375 17.2235 35.2647 21.7061 36.97 23.9252C37.6883 20.8313 37.9033 17.4954 37.3805 14.3324L37.3902 14.3373Z" fill="#5B3D31"/>
<path d="M34.2141 11.4511C34.2141 11.4511 33.0365 5.0361 23.1221 5.0361C13.2077 5.0361 11.7858 12.3258 11.7858 12.3258C11.7858 12.3258 15.4114 7.72466 23.1514 7.72466C30.8914 7.72466 34.2141 11.4511 34.2141 11.4511Z" fill="#EFC336"/>
</g>
<defs>
<clipPath id="clip0_88_1157">
<rect width="46" height="56" fill="white"/>
</clipPath>
</defs>
</svg>
