<svg width="46" height="56" viewBox="0 0 46 56" fill="none" xmlns="http://www.w3.org/2000/svg">
<g clip-path="url(#clip0_88_1250)">
<path d="M46 56H0C4.01614 49.9831 10.2163 45.6293 17.4228 44.1239V37.2507H28.5723V44.1239C35.7837 45.6293 41.9839 49.9876 46 56Z" fill="#E2BF80"/>
<path d="M28.5723 38.6659V43.4163C20.8332 44.5161 18.7616 40.5048 18.7616 40.5048L28.5723 38.6614V38.6659Z" fill="#CC9D55"/>
<path d="M32.9255 45.4265C27.942 47.8017 22.1572 48.2028 16.8561 46.3639C15.8594 46.0169 14.8871 45.5932 13.949 45.102C8.23261 47.1166 3.35167 50.9746 0 56H45.9951C42.8144 51.2315 38.2609 47.5177 32.9207 45.4265H32.9255Z" fill="#6DA69F"/>
<path d="M9.89384 31.3014C8.69681 32.5273 6.56171 32.329 5.12528 30.8507C3.68884 29.3724 3.48853 27.182 4.68555 25.956C5.88258 24.7301 8.01768 24.9284 9.45411 26.4067C10.8905 27.8851 11.0909 30.0755 9.89384 31.3014Z" fill="#E2BF80"/>
<path d="M9.62518 29.5166C9.55189 29.0614 9.46394 28.6197 9.24408 28.2096C9.03399 27.8129 8.72618 27.4929 8.36952 27.236C7.99331 26.9611 7.5487 26.8259 7.09921 26.7718C6.59597 26.7132 6.11227 26.8304 5.65789 27.0332C5.51131 27.0963 5.38917 27.2991 5.3452 27.4479C5.30122 27.6146 5.32077 27.8355 5.4136 27.9797C5.63346 28.3267 5.99012 28.3808 6.33702 28.2276C6.19044 28.2907 6.3077 28.2411 6.3419 28.2276C6.38099 28.2141 6.42496 28.2005 6.46405 28.187C6.50314 28.1735 6.54711 28.1645 6.59108 28.1555C6.61062 28.1555 6.62528 28.1465 6.63505 28.1465C6.70345 28.1374 6.77674 28.1374 6.84514 28.1374C6.88912 28.1374 6.9282 28.1374 6.97217 28.1374C6.99172 28.1374 7.01126 28.1374 7.02103 28.1374C7.08943 28.1465 7.15784 28.1645 7.22135 28.1825C7.26044 28.196 7.30441 28.2096 7.3435 28.2231C7.35815 28.2276 7.3777 28.2366 7.39236 28.2411C7.44121 28.2591 7.42656 28.2546 7.3435 28.2186C7.39724 28.2186 7.49496 28.2952 7.53893 28.3222C7.59267 28.3538 7.64642 28.4079 7.70505 28.4349C7.73436 28.4619 7.76368 28.489 7.79299 28.516C7.84674 28.5656 7.89071 28.6197 7.93957 28.6783C7.93468 28.6693 7.92491 28.6603 7.92002 28.6512C7.92002 28.6603 7.9298 28.6693 7.93957 28.6783C7.93957 28.6783 7.93957 28.6783 7.93957 28.6828C7.95911 28.7098 7.98354 28.7324 7.93957 28.6828C7.95911 28.7098 7.98354 28.7414 7.9982 28.7639C8.0324 28.8225 8.0666 28.8811 8.1008 28.9397C8.1008 28.9397 8.11546 28.9622 8.12523 28.9848C8.13011 28.9983 8.135 29.0163 8.13989 29.0298C8.1692 29.1155 8.19363 29.2056 8.21806 29.2958C8.26203 29.485 8.29135 29.6788 8.32555 29.8727C8.38418 30.2332 8.83367 30.4631 9.15614 30.3549C9.53723 30.2287 9.68869 29.8862 9.63006 29.5031L9.62518 29.5166Z" fill="#CC9D55"/>
<path d="M7.93958 28.6873L7.94532 28.693L7.93958 28.6873Z" fill="#CC9D55"/>
<path d="M35.8522 31.3014C37.0492 32.5273 39.1843 32.329 40.6207 30.8507C42.0572 29.3724 42.2575 27.182 41.0605 25.956C39.8634 24.7301 37.7283 24.9284 36.2919 26.4067C34.8555 27.8851 34.6552 30.0755 35.8522 31.3014Z" fill="#E2BF80"/>
<path d="M36.5948 30.3684C36.9172 30.4766 37.3667 30.2422 37.4254 29.8862C37.4547 29.6924 37.484 29.4986 37.5329 29.3093C37.5524 29.2191 37.5817 29.129 37.611 29.0434C37.6159 29.0298 37.6208 29.0118 37.6257 28.9983C37.6355 28.9757 37.6501 28.9577 37.6501 28.9532C37.6794 28.8946 37.7136 28.8315 37.7527 28.7774C37.7674 28.7504 37.7918 28.7234 37.8114 28.6963C37.7625 28.7504 37.7869 28.7279 37.8114 28.6963C37.8114 28.6963 37.8114 28.6963 37.8114 28.6918C37.8162 28.6828 37.826 28.6738 37.8309 28.6648C37.8309 28.6738 37.8211 28.6828 37.8114 28.6918C37.8602 28.6377 37.9091 28.5836 37.9579 28.5296C37.9872 28.5025 38.0166 28.4755 38.0459 28.4484C38.1045 28.4169 38.1582 28.3673 38.212 28.3357C38.256 28.3087 38.3586 28.2321 38.4074 28.2321C38.3244 28.2681 38.3097 28.2727 38.3586 28.2546C38.3732 28.2501 38.3928 28.2411 38.4074 28.2366C38.4465 28.2231 38.4905 28.2096 38.5296 28.196C38.5931 28.178 38.6615 28.16 38.7299 28.151C38.7397 28.151 38.7543 28.151 38.7787 28.151C38.8227 28.151 38.8618 28.151 38.9058 28.151C38.9693 28.151 39.0475 28.151 39.1159 28.16C39.1256 28.16 39.1403 28.1645 39.1598 28.169C39.2038 28.178 39.2429 28.187 39.2869 28.2005C39.326 28.2141 39.3699 28.2231 39.409 28.2411C39.4432 28.2546 39.5605 28.3042 39.4139 28.2411C39.7608 28.3943 40.1175 28.3403 40.3373 27.9932C40.4302 27.8445 40.4497 27.6236 40.4057 27.4614C40.3666 27.3127 40.2396 27.1098 40.093 27.0467C39.6338 26.8439 39.1501 26.7267 38.6517 26.7853C38.1973 26.8394 37.7576 26.9746 37.3814 27.2496C37.0247 27.5065 36.7169 27.831 36.5068 28.2231C36.287 28.6332 36.199 29.0749 36.1257 29.5301C36.0671 29.9132 36.2186 30.2558 36.5997 30.3819L36.5948 30.3684Z" fill="#CC9D55"/>
<path d="M36.9124 22.9994C36.9124 34.4428 30.683 41.271 23.0025 41.271C15.322 41.271 9.09253 34.4428 9.09253 22.9994C9.09253 11.5561 15.322 7.87381 23.0025 7.87381C30.683 7.87381 36.9124 11.5561 36.9124 22.9994Z" fill="#E2BF80"/>
<path d="M13.7291 22.7831C14.3985 22.3459 15.1558 21.9989 15.9766 21.8637C16.7974 21.724 17.6573 21.8096 18.4586 22.0575C18.698 22.1341 18.8299 22.3865 18.7566 22.6299C18.6834 22.8733 18.4342 23.013 18.1997 22.9364C18.185 22.9318 18.1655 22.9228 18.1508 22.9183C17.4863 22.6209 16.7681 22.4541 16.0352 22.4856C15.3024 22.5127 14.5695 22.7335 13.8806 23.0761C13.8024 23.1166 13.7047 23.0806 13.6656 22.9994C13.6314 22.9228 13.6558 22.8327 13.7242 22.7876L13.7291 22.7831Z" fill="#5B3D31"/>
<path d="M32.2659 22.7831C31.5965 22.3459 30.8392 21.9989 30.0184 21.8637C29.1976 21.724 28.3377 21.8096 27.5364 22.0575C27.297 22.1341 27.1651 22.3865 27.2384 22.6299C27.3117 22.8733 27.5608 23.013 27.7953 22.9364C27.81 22.9318 27.8296 22.9228 27.8442 22.9183C28.5087 22.6209 29.2269 22.4541 29.9598 22.4856C30.6926 22.5127 31.4255 22.7335 32.1144 23.0761C32.1926 23.1166 32.2903 23.0806 32.3294 22.9994C32.3636 22.9228 32.3392 22.8327 32.2708 22.7876L32.2659 22.7831Z" fill="#5B3D31"/>
<path d="M18.6297 26.1589C18.6297 26.8394 18.0922 27.3938 17.4277 27.3938C16.7633 27.3938 16.2258 26.8394 16.2258 26.1589C16.2258 25.4783 16.7633 24.924 17.4277 24.924C18.0922 24.924 18.6297 25.4783 18.6297 26.1589Z" fill="#2D2D2D"/>
<path d="M17.3642 25.8254C17.3642 26.0192 17.2127 26.1769 17.0222 26.1769C16.8316 26.1769 16.6802 26.0192 16.6802 25.8254C16.6802 25.6316 16.8316 25.4738 17.0222 25.4738C17.2127 25.4738 17.3642 25.6316 17.3642 25.8254Z" fill="white"/>
<path d="M29.7791 26.1589C29.7791 26.8394 29.2416 27.3938 28.5772 27.3938C27.9127 27.3938 27.3752 26.8394 27.3752 26.1589C27.3752 25.4783 27.9127 24.924 28.5772 24.924C29.2416 24.924 29.7791 25.4783 29.7791 26.1589Z" fill="#2D2D2D"/>
<path d="M28.5136 25.8254C28.5136 26.0192 28.3621 26.1769 28.1716 26.1769C27.9811 26.1769 27.8296 26.0192 27.8296 25.8254C27.8296 25.6316 27.9811 25.4738 28.1716 25.4738C28.3621 25.4738 28.5136 25.6316 28.5136 25.8254Z" fill="white"/>
<path d="M22.8802 28.9037C22.8558 28.8271 22.8069 28.7369 22.7336 28.7054C22.631 28.6603 22.5284 28.6242 22.4112 28.6333C22.2939 28.6423 22.1962 28.6693 22.0887 28.7234C21.9031 28.818 21.776 29.0073 21.7174 29.2057C21.6637 29.3904 21.6734 29.6023 21.7272 29.7826C21.7907 29.9809 21.8982 30.1476 22.0252 30.3054C22.0741 30.3685 22.1815 30.4045 22.2548 30.4045C22.333 30.4045 22.4307 30.3685 22.4845 30.3054C22.5431 30.2423 22.5822 30.1566 22.5773 30.071C22.5773 29.9809 22.5382 29.9133 22.4845 29.8411L22.4991 29.8592C22.4454 29.7871 22.4014 29.7104 22.3672 29.6338C22.3525 29.5978 22.3428 29.5572 22.333 29.5166C22.333 29.4851 22.333 29.4535 22.333 29.422C22.333 29.404 22.3428 29.3814 22.3477 29.3634C22.3526 29.3499 22.3623 29.3364 22.3721 29.3228C22.3721 29.3228 22.3721 29.3228 22.377 29.3183C22.3868 29.3138 22.3965 29.3048 22.4063 29.3003C22.4112 29.3003 22.4161 29.3003 22.421 29.2958C22.4258 29.2958 22.4307 29.2958 22.4356 29.2958C22.4454 29.2958 22.4552 29.2958 22.4649 29.3048C22.46 29.3048 22.4552 29.3003 22.4454 29.2958C22.4454 29.2958 22.4552 29.2958 22.46 29.2958C22.5187 29.3183 22.5822 29.3273 22.6506 29.3093C22.7239 29.2868 22.8069 29.2282 22.846 29.1561C22.8851 29.0795 22.9046 28.9848 22.8802 28.8992V28.9037Z" fill="#CC9D55"/>
<path d="M30.849 30.675C30.849 31.5358 30.1699 32.2299 29.3344 32.2299C28.499 32.2299 27.8198 31.5313 27.8198 30.675C27.8198 29.8186 28.499 29.12 29.3344 29.12C30.1699 29.12 30.849 29.8186 30.849 30.675Z" fill="#E08F80"/>
<path d="M16.6655 32.2299C17.502 32.2299 18.1801 31.5337 18.1801 30.675C18.1801 29.8162 17.502 29.12 16.6655 29.12C15.829 29.12 15.1509 29.8162 15.1509 30.675C15.1509 31.5337 15.829 32.2299 16.6655 32.2299Z" fill="#E08F80"/>
<path d="M25.8509 32.7978C23.9942 33.7893 21.693 33.7127 19.895 32.6175C19.6361 32.4597 19.4065 32.8789 19.6654 33.0366C21.6148 34.2265 24.092 34.2806 26.0951 33.2124C26.3639 33.0682 26.1196 32.658 25.8509 32.8023V32.7978Z" fill="#CC9D55"/>
<path d="M23.6424 35.1144C23.6082 34.9882 23.4714 34.9161 23.3493 34.9521C22.89 35.0918 22.3819 35.0648 21.947 34.871C21.8298 34.8169 21.693 34.8439 21.6294 34.9611C21.5708 35.0648 21.605 35.2361 21.7174 35.2901C22.2744 35.5425 22.8949 35.5921 23.4812 35.4118C23.6033 35.3758 23.6766 35.2361 23.6375 35.1144H23.6424Z" fill="#CC9D55"/>
<path d="M37.3913 18.0056C36.8685 15.1211 35.5689 12.4169 33.6341 10.6817C31.4794 8.74366 28.7434 8.13521 26.1001 7.70254C22.6068 7.13014 18.9424 6.81014 15.6298 8.1938L15.879 7.59887C12.9524 8.62648 10.4215 11.2631 9.10726 14.6569C7.79297 18.0507 7.89558 23.2834 9.08283 26.7493C11.5013 24.4372 12.9475 19.9707 13.3042 16.0361C13.4947 17.4648 14.0713 19.3127 15.6738 20.7775C15.6738 20.7775 15.4246 18.6456 16.5142 17.1763C18.1363 18.2084 19.9831 18.9927 22.4651 19.5921C25.9975 20.4439 30.986 20.2321 34.1178 20.0473C35.1291 23.1842 35.2708 24.7211 36.9711 26.7448C37.6893 23.9234 37.9092 20.8811 37.3815 17.9966L37.3913 18.0056Z" fill="#5B3D31"/>
<path d="M8.76522 12.0608C8.76522 12.0608 8.54047 0 23.0807 0C37.6209 0 36.6779 11.5515 36.6779 11.5515" fill="#EFC336"/>
<path d="M8.13489 20.5747C8.13489 20.5747 5.9607 16.978 8.13489 12.6693C8.13489 12.6693 12.6347 7.51324 22.5823 7.51324C32.5298 7.51324 37.9335 12.5116 37.9335 12.5116C37.9335 12.5116 39.5849 16.311 37.6404 19.7048C37.6404 19.7048 33.805 15.3014 22.3331 15.3014C10.8612 15.3014 8.13489 20.5747 8.13489 20.5747Z" fill="#DEA126"/>
</g>
<defs>
<clipPath id="clip0_88_1250">
<rect width="46" height="56" fill="white"/>
</clipPath>
</defs>
</svg>
