<svg width="46" height="56" viewBox="0 0 46 56" fill="none" xmlns="http://www.w3.org/2000/svg">
<g clip-path="url(#clip0_88_1324)">
<path d="M33.9356 40.2558C33.3151 39.1617 32.0984 39.4516 31.1211 39.7368C29.9631 40.0782 28.7806 40.3447 27.5883 40.5364C25.2966 40.9058 22.9414 40.9573 20.6301 40.7515C19.4379 40.644 18.2603 40.4522 17.0924 40.1857C16.0565 39.9519 14.8887 39.4095 13.8235 39.7275C12.4797 40.1296 12.1377 41.5324 12.7583 42.7014C13.0172 43.1924 13.3837 43.5945 13.3055 44.1931C13.2469 44.6466 12.9293 45.0955 12.5042 45.2732C12.0155 45.479 11.6686 45.9372 11.8201 46.4983C11.9471 46.9706 12.5335 47.4008 13.027 47.1951C14.1362 46.7321 31.3166 45.8764 31.7612 46.316C32.2694 46.8163 33.0317 46.6293 33.3151 45.984C33.6718 45.1844 32.9144 44.5812 32.8362 43.8237C32.7874 43.3514 33.061 43.0053 33.3249 42.6546C33.833 41.986 34.4096 41.0882 33.9308 40.2465L33.9356 40.2558Z" fill="#EFC336"/>
<path d="M46 56H0C4.01168 49.7575 10.2125 45.2405 17.4247 43.6787V36.5478H28.5753V43.6787C35.7827 45.2405 41.9834 49.7622 46 56Z" fill="#E9AE8F"/>
<path d="M28.5753 37.8711V42.8089C20.7278 44.0107 18.6316 39.8069 18.6316 39.8069L28.5753 37.8711Z" fill="#CC7F57"/>
<path d="M46 56H0C4.01168 49.7575 10.2125 45.2405 17.4247 43.6787C17.4247 43.6787 19.0714 45.8203 22.873 45.8203C26.6745 45.8203 28.5704 43.6787 28.5704 43.6787C35.7778 45.2405 41.9785 49.7622 45.9951 56H46Z" fill="#EFC336"/>
<path d="M33.3591 45.6052C33.3591 45.6052 33.4666 50.5197 25.8536 49.3039C25.8536 49.3039 27.7349 50.8423 30.7986 49.837C33.8623 48.827 33.3591 45.6052 33.3591 45.6052Z" fill="#DEA126"/>
<path d="M13.2127 45.6052C13.2127 45.6052 13.1052 50.5197 20.7181 49.3039C20.7181 49.3039 18.8368 50.8423 15.7731 49.837C12.7094 48.827 13.2127 45.6052 13.2127 45.6052Z" fill="#DEA126"/>
<path d="M28.1502 47.1857C27.642 46.835 27.1729 47.7001 27.6762 48.0461C27.9694 48.2472 28.1209 48.6212 28.1062 48.986C28.0867 49.4489 27.7495 49.7341 27.4563 50.0381C27.0654 50.4496 26.8016 50.9172 26.7429 51.5017C26.6892 52.0394 26.826 52.6099 27.1338 53.0401C27.2902 53.2552 27.5345 53.3674 27.7739 53.2178C27.9694 53.0962 28.0964 52.7502 27.9401 52.5351C27.6762 52.1703 27.5687 51.684 27.7495 51.2445C27.9596 50.7395 28.4825 50.4355 28.7659 49.9726C29.3229 49.0468 28.9906 47.7609 28.1453 47.1857H28.1502Z" fill="#DE5959"/>
<path d="M19.9705 50.4309C19.648 50.1176 19.1398 49.8464 18.9834 49.3881C18.8173 48.9018 19.0372 48.4155 19.4574 48.1957C19.9998 47.9105 19.56 47.0267 19.0225 47.312C17.8791 47.9152 17.6641 49.5331 18.5681 50.4776C18.8857 50.805 19.4134 51.0715 19.5942 51.5204C19.7506 51.9225 19.5942 52.3621 19.2815 52.6099C19.0812 52.7736 19.0909 53.1289 19.2522 53.316C19.4379 53.5311 19.7115 53.5077 19.9119 53.3487C20.8109 52.6286 20.767 51.2071 19.9705 50.4355V50.4309Z" fill="#DE5959"/>
<path d="M35.4211 2.7635C31.8003 0.626561 30.8474 3.52102 30.8474 3.52102C26.137 0.4629 13.926 -1.7395 7.48096 1.87038C1.69064 5.11086 6.66494 11.3627 7.74482 12.6065C6.34733 18.6947 8.41425 25.1055 8.41425 25.1055L38.2747 24.694C38.2747 24.694 38.3089 24.4743 38.348 24.0815C39.4083 20.4622 40.5224 5.77018 35.4259 2.75883L35.4211 2.7635Z" fill="#E08A64"/>
<path d="M9.89484 30.3754C8.69769 31.6473 6.56236 31.4416 5.12577 29.9078C3.68919 28.3741 3.48885 26.1015 4.686 24.8297C5.88316 23.5578 8.01849 23.7635 9.45507 25.2973C10.8917 26.831 11.092 29.1035 9.89484 30.3754Z" fill="#E9AE8F"/>
<path d="M9.62606 28.519C9.55277 28.0467 9.46481 27.5885 9.24493 27.163C9.03481 26.7515 8.72697 26.4195 8.37027 26.153C7.99402 25.8677 7.54937 25.7274 7.09982 25.6713C6.59653 25.6105 6.11278 25.7321 5.65835 25.9425C5.51176 26.008 5.3896 26.2184 5.34563 26.3727C5.30165 26.5457 5.32119 26.7749 5.41403 26.9245C5.63392 27.2846 5.99062 27.3407 6.33755 27.1817C6.19096 27.2471 6.30823 27.1957 6.34244 27.1817C6.38153 27.1677 6.42551 27.1536 6.4646 27.1396C6.50369 27.1256 6.54767 27.1162 6.58676 27.1069C6.6063 27.1069 6.62096 27.0975 6.63073 27.0975C6.69914 27.0882 6.77244 27.0882 6.84085 27.0882C6.88482 27.0882 6.92391 27.0882 6.96789 27.0882C6.98744 27.0882 7.00698 27.0882 7.01675 27.0882C7.08516 27.0975 7.15357 27.1162 7.21709 27.1349C7.25619 27.149 7.30016 27.163 7.33925 27.177C7.35391 27.1817 7.37346 27.191 7.38812 27.1957C7.43698 27.2144 7.42232 27.2097 7.33925 27.1723C7.393 27.1723 7.49073 27.2518 7.53471 27.2799C7.58846 27.3126 7.64221 27.3687 7.70084 27.3968C7.73016 27.4248 7.75948 27.4529 7.7888 27.4809C7.84255 27.5324 7.88652 27.5885 7.93539 27.6493C7.9305 27.6399 7.92073 27.6306 7.91584 27.6212C7.91584 27.6306 7.92561 27.6399 7.93539 27.6493C7.93539 27.6493 7.93539 27.6493 7.93539 27.654C7.95493 27.682 7.97936 27.7054 7.93539 27.654C7.95493 27.682 7.97936 27.7148 7.99402 27.7381C8.02823 27.7989 8.06243 27.8597 8.09664 27.9205C8.09664 27.9205 8.11129 27.9439 8.12107 27.9673C8.12595 27.9813 8.13084 28 8.13573 28.014C8.16504 28.1029 8.18948 28.1964 8.21391 28.2899C8.25788 28.4863 8.2872 28.6874 8.32141 28.8884C8.38004 29.2625 8.82959 29.501 9.15208 29.3888C9.53322 29.2578 9.6847 28.9025 9.62606 28.505V28.519Z" fill="#CC7F57"/>
<path d="M35.856 30.3754C37.0531 31.6473 39.1885 31.4416 40.6251 29.9078C42.0616 28.3741 42.262 26.1015 41.0648 24.8297C39.8677 23.5578 37.7323 23.7635 36.2958 25.2973C34.8592 26.831 34.6588 29.1035 35.856 30.3754Z" fill="#E9AE8F"/>
<path d="M36.5938 29.4028C36.9163 29.515 37.3658 29.2719 37.4245 28.9025C37.4538 28.7014 37.4831 28.5003 37.532 28.3039C37.5515 28.2104 37.5808 28.1169 37.6102 28.0281C37.615 28.014 37.6199 27.9953 37.6248 27.9813C37.6346 27.9579 37.6493 27.9392 37.6493 27.9345C37.6786 27.8737 37.7128 27.8083 37.7519 27.7522C37.7665 27.7241 37.791 27.6961 37.8105 27.668C37.7616 27.7241 37.7861 27.7007 37.8105 27.668C37.8105 27.668 37.8105 27.668 37.8105 27.6633C37.8154 27.654 37.8252 27.6446 37.83 27.6353C37.83 27.6446 37.8203 27.654 37.8105 27.6633C37.8594 27.6072 37.9082 27.5511 37.9571 27.495C37.9864 27.4669 38.0157 27.4389 38.045 27.4108C38.1037 27.3781 38.1574 27.3267 38.2112 27.2939C38.2552 27.2659 38.3578 27.1864 38.4066 27.1864C38.3236 27.2238 38.3089 27.2285 38.3578 27.2098C38.3724 27.2051 38.392 27.1957 38.4066 27.191C38.4457 27.177 38.4897 27.163 38.5288 27.149C38.5923 27.1303 38.6607 27.1116 38.7291 27.1022C38.7389 27.1022 38.7536 27.1022 38.778 27.1022C38.822 27.1022 38.8611 27.1022 38.905 27.1022C38.9686 27.1022 39.0467 27.1022 39.1152 27.1116C39.1249 27.1116 39.1396 27.1162 39.1591 27.1209C39.2031 27.1303 39.2422 27.1396 39.2813 27.1536C39.3204 27.1677 39.3644 27.177 39.4034 27.1957C39.4377 27.2098 39.5549 27.2612 39.4083 27.1957C39.7553 27.3547 40.112 27.2986 40.3319 26.9385C40.4247 26.7842 40.4442 26.5551 40.4003 26.3868C40.3612 26.2325 40.2341 26.022 40.0875 25.9566C39.6282 25.7462 39.1445 25.6246 38.6461 25.6854C38.1916 25.7415 37.7519 25.8818 37.3756 26.167C37.0189 26.4335 36.7111 26.7702 36.501 27.177C36.2811 27.6025 36.1931 28.0608 36.1198 28.5331C36.0612 28.9305 36.2127 29.2859 36.5938 29.4168V29.4028Z" fill="#CC7F57"/>
<path d="M36.9114 21.7575C36.9114 33.6299 30.6813 40.7141 23 40.7141C15.3186 40.7141 9.08856 33.6299 9.08856 21.7575C9.08856 9.8851 15.3138 6.06479 23 6.06479C30.6862 6.06479 36.9114 9.8851 36.9114 21.7575Z" fill="#E9AE8F"/>
<path d="M13.7306 21.5377C14.4 21.0842 15.1574 20.7241 15.9783 20.5838C16.7992 20.4389 17.6592 20.5277 18.4606 20.7849C18.7 20.8644 18.8319 21.1263 18.7586 21.3788C18.6854 21.6313 18.4362 21.7762 18.2016 21.6967C18.1869 21.6921 18.1674 21.6827 18.1527 21.678C17.4882 21.3694 16.7699 21.1964 16.037 21.2291C15.304 21.2572 14.5711 21.4863 13.8821 21.8417C13.8039 21.8838 13.7062 21.8464 13.6671 21.7622C13.6329 21.6827 13.6573 21.5892 13.7257 21.5424L13.7306 21.5377Z" fill="#5B3D31"/>
<path d="M32.2694 21.5377C31.6 21.0842 30.8426 20.7241 30.0217 20.5838C29.2008 20.4389 28.3408 20.5277 27.5394 20.7849C27.3 20.8644 27.1681 21.1263 27.2414 21.3788C27.3147 21.6313 27.5639 21.7762 27.7984 21.6967C27.8131 21.6921 27.8326 21.6827 27.8473 21.678C28.5118 21.3694 29.2301 21.1964 29.963 21.2291C30.696 21.2572 31.429 21.4863 32.1179 21.8417C32.1961 21.8838 32.2938 21.8464 32.3329 21.7622C32.3671 21.6827 32.3427 21.5892 32.2743 21.5424L32.2694 21.5377Z" fill="#5B3D31"/>
<path d="M18.6316 25.0354C18.6316 25.7415 18.0941 26.3166 17.4296 26.3166C16.765 26.3166 16.2275 25.7415 16.2275 25.0354C16.2275 24.3293 16.765 23.7542 17.4296 23.7542C18.0941 23.7542 18.6316 24.3293 18.6316 25.0354Z" fill="#2D2D2D"/>
<path d="M17.366 24.6941C17.366 24.8951 17.2146 25.0588 17.024 25.0588C16.8334 25.0588 16.6819 24.8951 16.6819 24.6941C16.6819 24.493 16.8334 24.3293 17.024 24.3293C17.2146 24.3293 17.366 24.493 17.366 24.6941Z" fill="white"/>
<path d="M29.7774 25.0354C29.7774 25.7415 29.2399 26.3166 28.5753 26.3166C27.9108 26.3166 27.3733 25.7415 27.3733 25.0354C27.3733 24.3293 27.9108 23.7542 28.5753 23.7542C29.2399 23.7542 29.7774 24.3293 29.7774 25.0354Z" fill="#2D2D2D"/>
<path d="M28.5118 24.6941C28.5118 24.8951 28.3603 25.0588 28.1697 25.0588C27.9792 25.0588 27.8277 24.8951 27.8277 24.6941C27.8277 24.493 27.9792 24.3293 28.1697 24.3293C28.3603 24.3293 28.5118 24.493 28.5118 24.6941Z" fill="white"/>
<path d="M26.3178 31.9515C25.8829 30.8386 24.1873 31.9936 22.8778 31.9936C21.5683 31.9936 19.8678 30.8386 19.4378 31.9515C18.8954 33.3543 20.762 34.6075 22.8778 34.6075C24.9936 34.6075 26.8651 33.3543 26.3178 31.9515Z" fill="#663837"/>
<path d="M19.775 33.4616C20.3906 34.1396 21.5829 34.6072 22.8729 34.6072C24.1629 34.6072 25.3552 34.1396 25.9708 33.4616C25.2379 32.9426 24.1238 32.6152 22.8729 32.6152C21.622 32.6152 20.5079 32.9472 19.775 33.4616Z" fill="#A75A5A"/>
<path d="M19.946 31.4977C20.7327 32.316 21.8077 32.821 22.9218 32.7929C24.0016 32.7695 25.0375 32.2879 25.7998 31.493C25.0815 31.334 23.8697 31.9933 22.8778 31.9933C21.8859 31.9933 20.6692 31.3293 19.9509 31.493L19.946 31.4977Z" fill="white"/>
<path d="M22.8827 27.8831C22.8583 27.8036 22.8094 27.7101 22.7361 27.6774C22.6335 27.6306 22.5309 27.5932 22.4136 27.6025C22.2964 27.6119 22.1986 27.64 22.0911 27.6961C21.9055 27.7943 21.7784 27.9907 21.7198 28.1964C21.666 28.3881 21.6758 28.6079 21.7296 28.7949C21.7931 29.0007 21.9006 29.1737 22.0276 29.3374C22.0765 29.4028 22.184 29.4402 22.2573 29.4402C22.3355 29.4402 22.4332 29.4028 22.4869 29.3374C22.5456 29.2719 22.5847 29.183 22.5798 29.0942C22.5798 29.0007 22.5407 28.9305 22.4869 28.8557L22.5016 28.8744C22.4478 28.7996 22.4039 28.7201 22.3697 28.6406C22.355 28.6032 22.3452 28.5611 22.3355 28.519C22.3355 28.4863 22.3355 28.4536 22.3355 28.4209C22.3355 28.4021 22.3452 28.3788 22.3501 28.3601C22.355 28.346 22.3648 28.332 22.3745 28.318C22.3745 28.318 22.3745 28.318 22.3794 28.3133C22.3892 28.3086 22.399 28.2993 22.4088 28.2946C22.4136 28.2946 22.4185 28.2946 22.4234 28.2899C22.4283 28.2899 22.4332 28.2899 22.4381 28.2899C22.4478 28.2899 22.4576 28.2899 22.4674 28.2993C22.4625 28.2993 22.4576 28.2946 22.4478 28.2899C22.4478 28.2899 22.4576 28.2899 22.4625 28.2899C22.5211 28.3133 22.5847 28.3227 22.6531 28.304C22.7264 28.2806 22.8094 28.2198 22.8485 28.145C22.8876 28.0655 22.9072 27.9673 22.8827 27.8784V27.8831Z" fill="#CC7F57"/>
<path d="M30.8475 29.7208C30.8475 30.6139 30.1683 31.334 29.3327 31.334C28.4971 31.334 27.8179 30.6092 27.8179 29.7208C27.8179 28.8323 28.4971 28.1075 29.3327 28.1075C30.1683 28.1075 30.8475 28.8323 30.8475 29.7208Z" fill="#E59090"/>
<path d="M18.1821 29.7208C18.1821 30.6139 17.5029 31.334 16.6673 31.334C15.8317 31.334 15.1525 30.6092 15.1525 29.7208C15.1525 28.8323 15.8317 28.1075 16.6673 28.1075C17.5029 28.1075 18.1821 28.8323 18.1821 29.7208Z" fill="#E59090"/>
<path d="M36.7599 24.8671C36.7599 24.8671 32.6261 21.1824 31.9078 12.6767C31.9078 12.6767 30.1878 17.6146 25.5653 14.0701C25.5653 14.0701 23.0782 18.5872 18.6267 15.501C18.6267 15.501 16.9165 19.0454 12.4553 16.0715C12.4553 16.0715 12.8071 20.6586 9.2596 25.1055C9.2596 25.1055 4.36349 5.16699 21.6807 5.16699C41.0404 5.55043 36.7599 24.8717 36.7599 24.8717V24.8671Z" fill="#E08A64"/>
</g>
<defs>
<clipPath id="clip0_88_1324">
<rect width="46" height="56" fill="white"/>
</clipPath>
</defs>
</svg>
