<svg width="46" height="56" viewBox="0 0 46 56" fill="none" xmlns="http://www.w3.org/2000/svg">
<g clip-path="url(#clip0_88_1115)">
<path d="M29.569 43.6045C29.1244 43.9786 28.6651 44.3336 28.1619 44.6118C25.6017 46.0509 22.4797 46.214 19.7729 45.1683C18.7713 44.7749 17.8479 44.1801 17.0222 43.4462C17.1541 43.4174 17.2909 43.3838 17.4229 43.355V36.0348H28.5723V43.355C28.9045 43.427 29.2368 43.5085 29.569 43.5997V43.6045Z" fill="#9E6C52"/>
<path d="M28.5722 37.4931V42.5539C20.7891 43.7484 18.7029 39.4646 18.7029 39.4646L28.5722 37.4931Z" fill="#874B30"/>
<path d="M22.123 55.9959H0C0.742645 54.8206 1.54881 53.7029 2.43314 52.6476C2.57972 52.4749 2.7214 52.2974 2.87775 52.1295C3.07318 51.904 3.27839 51.6834 3.47871 51.4627C3.61551 51.314 3.74743 51.1749 3.87934 51.0358C4.40701 50.4937 4.95423 49.9756 5.5161 49.4815C5.64313 49.3712 5.77016 49.2561 5.90207 49.1505C6.07308 48.997 6.25385 48.8531 6.42974 48.7092C7.33362 47.9753 8.27659 47.3085 9.25375 46.6993C9.43453 46.5889 9.62019 46.4786 9.80096 46.3731C9.94265 46.2867 10.0892 46.2052 10.2358 46.1236C10.397 46.0325 10.5534 45.9461 10.7146 45.8646C10.8514 45.7878 10.9931 45.7111 11.1299 45.6439C11.2667 45.572 11.4035 45.5 11.5403 45.4329C11.7651 45.3225 11.9947 45.2122 12.2292 45.1067C12.4295 45.0155 12.6299 44.9244 12.8351 44.8428C13.05 44.7469 13.2699 44.6606 13.4898 44.5694C13.6999 44.4831 13.9051 44.4063 14.1151 44.3296C14.2617 44.272 14.4034 44.224 14.5549 44.1713C14.7112 44.1185 14.8627 44.0705 15.019 44.0178C15.0532 44.0082 15.0825 43.9986 15.1167 43.989C15.2829 43.9314 15.449 43.8834 15.6151 43.8307C15.8105 43.7731 16.0108 43.7203 16.2063 43.6628C16.348 43.6292 16.4897 43.5908 16.6265 43.5572C16.69 43.5381 16.7584 43.5237 16.8268 43.5045C16.8854 43.4901 16.9489 43.4757 17.0027 43.4613L22.1035 56.0007L22.123 55.9959Z" fill="#9E6C52"/>
<path d="M45.9999 55.995H24.5316L29.5689 43.6044C29.6226 43.614 29.6764 43.6284 29.735 43.6475C29.7546 43.6523 29.7692 43.6571 29.7888 43.6619C29.9989 43.7195 30.2041 43.7819 30.4141 43.8394C30.6194 43.9018 30.8246 43.9689 31.0346 44.0361C31.2008 44.0937 31.3571 44.1416 31.5232 44.204C32.0998 44.4055 32.6714 44.6309 33.2333 44.8708C33.3652 44.9283 33.4971 44.9811 33.629 45.0435C33.7658 45.1058 33.9026 45.1682 34.0345 45.2306C34.2251 45.3217 34.4205 45.4128 34.616 45.5136C35.0019 45.7103 35.3733 45.9069 35.7495 46.118C35.9693 46.2427 36.1892 46.3674 36.4042 46.5018C36.5556 46.5881 36.7071 46.684 36.8586 46.78C37.0393 46.8903 37.225 47.0102 37.4009 47.1302C37.7624 47.3652 38.1142 47.6099 38.4611 47.8689C38.8129 48.1231 39.1549 48.387 39.492 48.6556C39.663 48.7947 39.8291 48.9338 39.9953 49.0682C40.4936 49.4807 40.9773 49.9172 41.4463 50.3729C41.6027 50.5264 41.7541 50.6799 41.9105 50.8334C42.2134 51.1405 42.5212 51.4571 42.8095 51.7785C42.9609 51.9415 43.1026 52.1046 43.2443 52.2677C43.386 52.4308 43.5277 52.5939 43.6596 52.757C43.7622 52.8818 43.8599 53.0017 43.9577 53.1264C44.0993 53.2943 44.2361 53.4766 44.3681 53.6493C44.4413 53.75 44.5244 53.8556 44.5977 53.9563C44.6905 54.0858 44.7834 54.2105 44.8811 54.34C45.2719 54.8773 45.6384 55.4242 45.995 55.995H45.9999Z" fill="#9E6C52"/>
<path d="M29.569 43.6044L24.5317 55.995H22.123L17.0222 43.4509C17.8479 44.1848 18.7713 44.7749 19.7729 45.173C22.4748 46.2188 25.6017 46.0557 28.1619 44.6166C28.6651 44.3335 29.1244 43.9834 29.569 43.6092V43.6044Z" fill="white"/>
<path d="M22.123 55.996H0C0.742645 54.8207 1.54881 53.703 2.43314 52.6477C2.57972 52.475 2.7214 52.2975 2.87775 52.1296C3.07318 51.9041 3.27839 51.6835 3.47871 51.4628C3.61551 51.3141 3.74743 51.175 3.87934 51.0359C4.40701 50.4938 4.95423 49.9758 5.5161 49.4817C5.64313 49.3713 5.77016 49.2562 5.90207 49.1507C6.07308 48.9972 6.25385 48.8533 6.42974 48.7093C7.33362 47.9754 8.27659 47.3086 9.25375 46.6994C9.43453 46.5891 9.62019 46.4787 9.80096 46.3732C9.94265 46.2869 10.0892 46.2053 10.2358 46.1238C10.397 46.0326 10.5534 45.9463 10.7146 45.8647C10.8514 45.788 10.9931 45.7112 11.1299 45.6441C11.2667 45.5721 11.4035 45.5002 11.5403 45.433C11.7651 45.3227 11.9947 45.2123 12.2292 45.1068C12.4295 45.0157 12.6299 44.9245 12.8351 44.843C13.05 44.747 13.2699 44.6607 13.4898 44.5695C13.6999 44.4832 13.9051 44.4064 14.1151 44.3297C14.2617 44.2721 14.4034 44.2242 14.5549 44.1714C14.7112 44.1186 14.8627 44.0706 15.019 44.0179C15.0532 44.0083 15.0825 43.9987 15.1167 43.9891C15.2829 43.9315 15.449 43.8836 15.6151 43.8308C15.8105 43.7732 16.0108 43.7205 16.2063 43.6629C16.348 43.6293 16.4897 43.5909 16.6265 43.5574C16.69 43.5382 16.7584 43.5238 16.8268 43.5046C16.8854 43.4902 16.9489 43.4758 17.0076 43.4566L22.1084 56.0008L22.123 55.996Z" fill="#58587A"/>
<path d="M45.9999 55.995H24.5316L29.5689 43.6044C29.6226 43.614 29.6764 43.6284 29.735 43.6475C29.7546 43.6523 29.7692 43.6571 29.7888 43.6619C29.9989 43.7195 30.2041 43.7819 30.4141 43.8394C30.6194 43.9018 30.8246 43.9689 31.0346 44.0361C31.2008 44.0937 31.3571 44.1416 31.5232 44.204C32.0998 44.4055 32.6714 44.6309 33.2333 44.8708C33.3652 44.9283 33.4971 44.9811 33.629 45.0435C33.7658 45.1058 33.9026 45.1682 34.0345 45.2306C34.2251 45.3217 34.4205 45.4128 34.616 45.5136C35.0019 45.7103 35.3733 45.9069 35.7495 46.118C35.9693 46.2427 36.1892 46.3674 36.4042 46.5018C36.5556 46.5881 36.7071 46.684 36.8586 46.78C37.0393 46.8903 37.225 47.0102 37.4009 47.1302C37.7624 47.37 38.1142 47.6147 38.4611 47.8689C38.8129 48.1231 39.1549 48.387 39.492 48.6556C39.663 48.7947 39.8291 48.9338 39.9953 49.0682C40.4936 49.4855 40.9724 49.922 41.4463 50.3729C41.6027 50.5264 41.7541 50.6799 41.9105 50.8334C42.2134 51.1405 42.5212 51.4571 42.8095 51.7785C42.9609 51.9415 43.1026 52.1046 43.2443 52.2677C43.386 52.4308 43.5277 52.5939 43.6596 52.757C43.7622 52.8818 43.8599 53.0017 43.9577 53.1264C44.0993 53.2943 44.2361 53.4766 44.3681 53.6493C44.4413 53.75 44.5244 53.8556 44.5977 53.9563C44.6905 54.0858 44.7834 54.2105 44.8811 54.34C45.2719 54.8773 45.6384 55.4242 45.995 55.995H45.9999Z" fill="#58587A"/>
<path d="M33.3896 51.6345C31.704 53.6253 27.9077 55.5969 24.5316 55.995L29.5689 43.6044C29.6226 43.614 29.6764 43.6284 29.735 43.6475C29.7546 43.6523 29.7692 43.6571 29.7888 43.6619C31.4011 45.7534 32.73 47.9361 33.3896 51.6345Z" fill="#DE5959"/>
<path d="M22.123 55.9951C18.742 55.597 14.9506 53.6254 13.265 51.6347C13.9344 47.821 15.3366 45.6144 17.0124 43.4558L22.1132 55.9951H22.123Z" fill="#DE5959"/>
<path d="M7.48021 23.1814C7.48021 23.1814 2.53087 9.59314 7.93948 9.47549C7.93948 9.47549 5.06662 0 22.2891 0C39.5117 0 36.9124 10.9755 36.9124 10.9755C36.9124 10.9755 41.378 9.18627 37.6795 23.5441L7.4851 23.1863L7.48021 23.1814Z" fill="#2D201B"/>
<path d="M9.89384 29.1372C8.69681 30.4706 6.56171 30.2549 5.12528 28.647C3.68884 27.0392 3.48853 24.6569 4.68555 23.3235C5.88258 21.9902 8.01768 22.2059 9.45411 23.8137C10.8905 25.4216 11.0909 27.8039 9.89384 29.1372Z" fill="#9E6C52"/>
<path d="M9.62518 27.1961C9.55189 26.701 9.46394 26.2206 9.24408 25.7745C9.03399 25.3431 8.72618 24.9951 8.36952 24.7157C7.99331 24.4167 7.5487 24.2696 7.09921 24.2108C6.59597 24.1471 6.11227 24.2745 5.65789 24.4951C5.51131 24.5637 5.38917 24.7843 5.3452 24.9461C5.30122 25.1275 5.32077 25.3676 5.4136 25.5245C5.63346 25.902 5.99012 25.9608 6.33702 25.7941C6.19044 25.8627 6.3077 25.8088 6.3419 25.7941C6.38099 25.7794 6.42496 25.7647 6.46405 25.75C6.50314 25.7353 6.54711 25.7255 6.59108 25.7157C6.61062 25.7157 6.62528 25.7059 6.63505 25.7059C6.70345 25.6961 6.77674 25.6961 6.84514 25.6961C6.88912 25.6961 6.9282 25.6961 6.97217 25.6961C6.99172 25.6961 7.01126 25.6961 7.02103 25.6961C7.08943 25.7059 7.15784 25.7255 7.22135 25.7451C7.26044 25.7598 7.30441 25.7745 7.3435 25.7892C7.35815 25.7941 7.3777 25.8039 7.39236 25.8088C7.44121 25.8284 7.42656 25.8235 7.3435 25.7843C7.39724 25.7843 7.49496 25.8676 7.53893 25.8971C7.59267 25.9314 7.64642 25.9902 7.70505 26.0196C7.73436 26.049 7.76368 26.0784 7.79299 26.1078C7.84674 26.1618 7.89071 26.2206 7.93957 26.2843C7.93468 26.2745 7.92491 26.2647 7.92002 26.2549C7.92002 26.2647 7.9298 26.2745 7.93957 26.2843C7.93957 26.2843 7.93957 26.2843 7.93957 26.2892C7.95911 26.3186 7.98354 26.3431 7.93957 26.2892C7.95911 26.3186 7.98354 26.3529 7.9982 26.3775C8.0324 26.4412 8.0666 26.5049 8.1008 26.5686C8.1008 26.5686 8.11546 26.5931 8.12523 26.6176C8.13011 26.6324 8.135 26.652 8.13989 26.6667C8.1692 26.7598 8.19363 26.8578 8.21806 26.9559C8.26203 27.1618 8.29135 27.3725 8.32555 27.5833C8.38418 27.9755 8.83367 28.2255 9.15614 28.1078C9.53723 27.9706 9.68869 27.598 9.63006 27.1814L9.62518 27.1961Z" fill="#874B30"/>
<path d="M35.8522 29.1372C37.0492 30.4706 39.1843 30.2549 40.6207 28.647C42.0572 27.0392 42.2575 24.6569 41.0605 23.3235C39.8634 21.9902 37.7283 22.2059 36.2919 23.8137C34.8555 25.4216 34.6552 27.8039 35.8522 29.1372Z" fill="#9E6C52"/>
<path d="M36.5948 28.1226C36.9172 28.2402 37.3667 27.9853 37.4254 27.598C37.4547 27.3873 37.484 27.1765 37.5329 26.9706C37.5524 26.8726 37.5817 26.7745 37.611 26.6814C37.6159 26.6667 37.6208 26.6471 37.6257 26.6324C37.6355 26.6078 37.6501 26.5882 37.6501 26.5833C37.6794 26.5196 37.7136 26.451 37.7527 26.3922C37.7674 26.3627 37.7918 26.3333 37.8114 26.3039C37.7625 26.3627 37.7869 26.3382 37.8114 26.3039C37.8114 26.3039 37.8114 26.3039 37.8114 26.299C37.8162 26.2892 37.826 26.2794 37.8309 26.2696C37.8309 26.2794 37.8211 26.2892 37.8114 26.299C37.8602 26.2402 37.9091 26.1814 37.9579 26.1226C37.9872 26.0931 38.0166 26.0637 38.0459 26.0343C38.1045 26 38.1582 25.9461 38.212 25.9118C38.256 25.8824 38.3586 25.799 38.4074 25.799C38.3244 25.8382 38.3097 25.8431 38.3586 25.8235C38.3732 25.8186 38.3928 25.8088 38.4074 25.8039C38.4465 25.7892 38.4905 25.7745 38.5296 25.7598C38.5931 25.7402 38.6615 25.7206 38.7299 25.7108C38.7397 25.7108 38.7543 25.7108 38.7787 25.7108C38.8227 25.7108 38.8618 25.7108 38.9058 25.7108C38.9693 25.7108 39.0475 25.7108 39.1159 25.7206C39.1256 25.7206 39.1403 25.7255 39.1598 25.7304C39.2038 25.7402 39.2429 25.75 39.2869 25.7647C39.326 25.7794 39.3699 25.7892 39.409 25.8088C39.4432 25.8235 39.5605 25.8775 39.4139 25.8088C39.7608 25.9755 40.1175 25.9167 40.3373 25.5392C40.4302 25.3775 40.4497 25.1373 40.4057 24.9608C40.3666 24.799 40.2396 24.5784 40.093 24.5098C39.6338 24.2892 39.1501 24.1618 38.6517 24.2255C38.1973 24.2843 37.7576 24.4314 37.3814 24.7304C37.0247 25.0098 36.7169 25.3627 36.5068 25.7892C36.287 26.2353 36.199 26.7157 36.1257 27.2108C36.0671 27.6275 36.2186 28 36.5997 28.1373L36.5948 28.1226Z" fill="#874B30"/>
<path d="M36.9124 20.1078C36.9124 32.5539 30.683 39.9804 23.0025 39.9804C15.322 39.9804 9.09253 32.5539 9.09253 20.1078C9.09253 7.66176 15.3171 3.65686 22.9976 3.65686C30.6781 3.65686 36.9075 7.66176 36.9075 20.1078H36.9124Z" fill="#9E6C52"/>
<path d="M13.7291 19.8725C14.3985 19.397 15.1558 19.0196 15.9766 18.8725C16.7974 18.7206 17.6573 18.8137 18.4586 19.0833C18.698 19.1667 18.8299 19.4412 18.7566 19.7059C18.6834 19.9706 18.4342 20.1225 18.1997 20.0392C18.185 20.0343 18.1655 20.0245 18.1508 20.0196C17.4863 19.6961 16.7681 19.5147 16.0352 19.549C15.3024 19.5784 14.5695 19.8186 13.8806 20.1912C13.8024 20.2353 13.7047 20.1961 13.6656 20.1078C13.6314 20.0245 13.6558 19.9265 13.7242 19.8774L13.7291 19.8725Z" fill="#5B3D31"/>
<path d="M32.2659 19.8725C31.5965 19.397 30.8392 19.0196 30.0184 18.8725C29.1976 18.7206 28.3377 18.8137 27.5364 19.0833C27.297 19.1667 27.1651 19.4412 27.2384 19.7059C27.3117 19.9706 27.5608 20.1225 27.7953 20.0392C27.81 20.0343 27.8296 20.0245 27.8442 20.0196C28.5087 19.6961 29.2269 19.5147 29.9598 19.549C30.6926 19.5784 31.4255 19.8186 32.1144 20.1912C32.1926 20.2353 32.2903 20.1961 32.3294 20.1078C32.3636 20.0245 32.3392 19.9265 32.2708 19.8774L32.2659 19.8725Z" fill="#5B3D31"/>
<path d="M18.6297 23.5441C18.6297 24.2843 18.0922 24.8872 17.4277 24.8872C16.7633 24.8872 16.2258 24.2843 16.2258 23.5441C16.2258 22.8039 16.7633 22.201 17.4277 22.201C18.0922 22.201 18.6297 22.8039 18.6297 23.5441Z" fill="#2D2D2D"/>
<path d="M17.3642 23.1814C17.3642 23.3921 17.2127 23.5637 17.0222 23.5637C16.8316 23.5637 16.6802 23.3921 16.6802 23.1814C16.6802 22.9706 16.8316 22.799 17.0222 22.799C17.2127 22.799 17.3642 22.9706 17.3642 23.1814Z" fill="white"/>
<path d="M29.7791 23.5441C29.7791 24.2843 29.2416 24.8872 28.5772 24.8872C27.9127 24.8872 27.3752 24.2843 27.3752 23.5441C27.3752 22.8039 27.9127 22.201 28.5772 22.201C29.2416 22.201 29.7791 22.8039 29.7791 23.5441Z" fill="#2D2D2D"/>
<path d="M28.5136 23.1814C28.5136 23.3921 28.3621 23.5637 28.1716 23.5637C27.9811 23.5637 27.8296 23.3921 27.8296 23.1814C27.8296 22.9706 27.9811 22.799 28.1716 22.799C28.3621 22.799 28.5136 22.9706 28.5136 23.1814Z" fill="white"/>
<path d="M22.8802 26.5294C22.8558 26.4461 22.8069 26.348 22.7336 26.3137C22.631 26.2647 22.5284 26.2255 22.4112 26.2353C22.2939 26.2451 22.1962 26.2745 22.0887 26.3333C21.9031 26.4363 21.776 26.6421 21.7174 26.8578C21.6637 27.0588 21.6734 27.2892 21.7272 27.4853C21.7907 27.701 21.8982 27.8823 22.0252 28.0539C22.0741 28.1225 22.1815 28.1617 22.2548 28.1617C22.333 28.1617 22.4307 28.1225 22.4845 28.0539C22.5431 27.9853 22.5822 27.8921 22.5773 27.799C22.5773 27.701 22.5382 27.6274 22.4845 27.549L22.4991 27.5686C22.4454 27.4902 22.4014 27.4068 22.3672 27.3235C22.3525 27.2843 22.3428 27.2402 22.333 27.1961C22.333 27.1617 22.333 27.1274 22.333 27.0931C22.333 27.0735 22.3428 27.049 22.3477 27.0294C22.3526 27.0147 22.3623 27 22.3721 26.9853C22.3721 26.9853 22.3721 26.9853 22.377 26.9804C22.3868 26.9755 22.3965 26.9657 22.4063 26.9608C22.4112 26.9608 22.4161 26.9608 22.421 26.9559C22.4258 26.9559 22.4307 26.9559 22.4356 26.9559C22.4454 26.9559 22.4552 26.9559 22.4649 26.9657C22.46 26.9657 22.4552 26.9608 22.4454 26.9559C22.4454 26.9559 22.4552 26.9559 22.46 26.9559C22.5187 26.9804 22.5822 26.9902 22.6506 26.9706C22.7239 26.9461 22.8069 26.8823 22.846 26.8039C22.8851 26.7206 22.9046 26.6176 22.8802 26.5245V26.5294Z" fill="#874B30"/>
<path d="M30.849 28.4559C30.849 29.3921 30.1699 30.147 29.3344 30.147C28.499 30.147 27.8198 29.3872 27.8198 28.4559C27.8198 27.5245 28.499 26.7647 29.3344 26.7647C30.1699 26.7647 30.849 27.5245 30.849 28.4559Z" fill="#9C5252"/>
<path d="M16.6655 30.147C17.502 30.147 18.1801 29.3899 18.1801 28.4559C18.1801 27.5218 17.502 26.7647 16.6655 26.7647C15.829 26.7647 15.1509 27.5218 15.1509 28.4559C15.1509 29.3899 15.829 30.147 16.6655 30.147Z" fill="#9C5252"/>
<path d="M25.7874 31.4215C25.7874 32.0343 24.4047 33.4412 22.6947 33.4412C20.9846 33.4412 19.6019 32.0343 19.6019 31.4215C19.6019 30.8088 20.9846 31.2255 22.6947 31.2255C24.4047 31.2255 25.7874 30.8088 25.7874 31.4215Z" fill="white"/>
<path d="M37.3912 14.6765C36.8684 11.5392 35.5687 8.59805 33.634 6.71079C31.4793 4.60295 28.7433 3.94119 26.1 3.4706C22.6067 2.84805 18.9423 2.50001 15.6297 4.00491L15.8789 3.35785C12.9523 4.4755 10.4214 7.34315 9.10714 11.0343C7.79285 14.7255 7.89545 20.4167 9.08271 24.1863C11.7797 21.3873 13.5386 16.9608 13.651 12.3873C16.1867 14.9559 25.5577 17.4657 33.8294 14.7451C34.8408 18.1569 35.2658 21.9853 36.971 24.1863C37.6892 21.1177 37.9042 17.8088 37.3814 14.6716L37.3912 14.6765Z" fill="#2D201B"/>
</g>
<defs>
<clipPath id="clip0_88_1115">
<rect width="46" height="56" fill="white"/>
</clipPath>
</defs>
</svg>
