<svg width="46" height="56" viewBox="0 0 46 56" fill="none" xmlns="http://www.w3.org/2000/svg">
<g clip-path="url(#clip0_88_1211)">
<path d="M46 56H0C4.01168 49.6011 10.2125 44.9791 17.4247 43.3794V36.0705H28.5753V43.3794C35.7827 44.9791 41.9834 49.6059 46 56Z" fill="#E2BF80"/>
<path d="M28.5753 37.402V42.4502C20.8549 43.6045 18.7831 39.3513 18.7831 39.3513L28.5753 37.3972V37.402Z" fill="#CC9D55"/>
<path d="M46 56H0C2.78521 51.56 6.62588 47.9774 11.1262 45.6736C12.1865 45.1276 13.2811 44.6534 14.4098 44.2511C15.2649 43.9494 16.1249 43.6955 17.0093 43.48C17.8351 44.2128 18.7635 44.7971 19.7701 45.1851C22.4723 46.234 25.5946 46.0712 28.1551 44.6343C28.6633 44.3469 29.1275 44.0068 29.5819 43.6285C30.3881 43.844 31.1797 44.093 31.9567 44.3852C33.0903 44.8067 34.1946 45.3 35.2549 45.87C39.5891 48.1834 43.2881 51.6846 45.9902 56H46Z" fill="#6DA69F"/>
<path d="M11.7712 56H9.42574C9.25472 52.4701 9.84596 48.9162 11.1213 45.6736L14.4049 44.2559C12.4797 47.8098 11.566 51.8714 11.7663 56H11.7712Z" fill="#EFC336"/>
<path d="M36.8772 56H34.5318C34.7272 51.924 33.8428 47.9055 31.9567 44.3852C33.0903 44.8067 34.1946 45.3 35.2549 45.87C36.4765 49.0598 37.0433 52.5371 36.8723 56H36.8772Z" fill="#EFC336"/>
<path d="M35.6898 10.5802C42.8532 0.244244 22.5602 -5.15842 10.9014 6.85389C10.9014 6.85389 12.8364 1.28838 10.3639 1.99245C6.92882 2.96953 9.08858 8.26203 9.08858 8.26203C9.08858 8.26203 4.34883 7.79265 4.61758 10.4317C4.88633 13.066 8.59506 9.84739 8.59506 9.84739C5.10133 16.8211 7.48586 23.9384 7.48586 23.9384H37.8154C40.8693 8.61647 35.6947 10.585 35.6947 10.585L35.6898 10.5802Z" fill="#5B3D31"/>
<path d="M9.89484 29.753C8.69769 31.0557 6.56236 30.845 5.12577 29.274C3.68919 27.703 3.48885 25.3753 4.686 24.0725C5.88316 22.7697 8.01849 22.9805 9.45507 24.5515C10.8917 26.1225 11.092 28.4502 9.89484 29.753Z" fill="#E2BF80"/>
<path d="M9.62612 27.8515C9.55283 27.3678 9.46487 26.8984 9.24499 26.4625C9.03487 26.041 8.72703 25.701 8.37033 25.428C7.99408 25.1358 7.54943 24.9921 7.09988 24.9347C6.59659 24.8724 6.11284 24.9969 5.65841 25.2124C5.51182 25.2795 5.38966 25.495 5.34569 25.6531C5.30171 25.8303 5.32125 26.065 5.4141 26.2183C5.63398 26.5871 5.99068 26.6445 6.33761 26.4817C6.19102 26.5487 6.3083 26.4961 6.3425 26.4817C6.38159 26.4673 6.42557 26.453 6.46466 26.4386C6.50375 26.4242 6.54773 26.4146 6.58682 26.4051C6.60636 26.4051 6.62102 26.3955 6.63079 26.3955C6.6992 26.3859 6.7725 26.3859 6.84091 26.3859C6.88488 26.3859 6.92397 26.3859 6.96795 26.3859C6.9875 26.3859 7.00704 26.3859 7.01681 26.3859C7.08522 26.3955 7.15363 26.4146 7.21716 26.4338C7.25625 26.4482 7.30022 26.4625 7.33931 26.4769C7.35397 26.4817 7.37352 26.4913 7.38818 26.4961C7.43704 26.5152 7.42238 26.5104 7.33931 26.4721C7.39306 26.4721 7.49079 26.5535 7.53477 26.5823C7.58852 26.6158 7.64227 26.6733 7.7009 26.702C7.73022 26.7307 7.75954 26.7595 7.78886 26.7882C7.84261 26.8409 7.88658 26.8984 7.93545 26.9607C7.93056 26.9511 7.92079 26.9415 7.9159 26.9319C7.9159 26.9415 7.92567 26.9511 7.93545 26.9607C7.93545 26.9607 7.93545 26.9607 7.93545 26.9654C7.95499 26.9942 7.97942 27.0181 7.93545 26.9654C7.95499 26.9942 7.97942 27.0277 7.99408 27.0517C8.02829 27.1139 8.06249 27.1762 8.0967 27.2384C8.0967 27.2384 8.11136 27.2624 8.12113 27.2863C8.12601 27.3007 8.1309 27.3199 8.13579 27.3342C8.16511 27.4252 8.18954 27.521 8.21397 27.6168C8.25795 27.818 8.28726 28.0239 8.32147 28.2299C8.3801 28.6131 8.82965 28.8573 9.15215 28.7424C9.53328 28.6083 9.68476 28.2443 9.62612 27.8371V27.8515Z" fill="#CC9D55"/>
<path d="M35.8559 29.753C37.0531 31.0557 39.1884 30.845 40.625 29.274C42.0616 27.703 42.2619 25.3753 41.0648 24.0725C39.8676 22.7697 37.7323 22.9805 36.2957 24.5515C34.8591 26.1225 34.6588 28.4502 35.8559 29.753Z" fill="#E2BF80"/>
<path d="M36.5937 28.7568C36.9162 28.8717 37.3658 28.6226 37.4244 28.2443C37.4537 28.0383 37.4831 27.8324 37.5319 27.6312C37.5515 27.5354 37.5808 27.4396 37.6101 27.3486C37.615 27.3342 37.6199 27.3151 37.6248 27.3007C37.6345 27.2768 37.6492 27.2576 37.6492 27.2528C37.6785 27.1906 37.7127 27.1235 37.7518 27.066C37.7665 27.0373 37.7909 27.0086 37.8104 26.9798C37.7616 27.0373 37.786 27.0133 37.8104 26.9798C37.8104 26.9798 37.8104 26.9798 37.8104 26.975C37.8153 26.9654 37.8251 26.9559 37.83 26.9463C37.83 26.9559 37.8202 26.9654 37.8104 26.975C37.8593 26.9175 37.9082 26.8601 37.957 26.8026C37.9863 26.7739 38.0157 26.7451 38.045 26.7164C38.1036 26.6876 38.1574 26.6302 38.2111 26.5966C38.2551 26.5679 38.3577 26.4865 38.4066 26.4865C38.3235 26.5248 38.3088 26.5296 38.3577 26.5104C38.3724 26.5056 38.3919 26.4961 38.4066 26.4913C38.4457 26.4769 38.4896 26.4625 38.5287 26.4482C38.5923 26.429 38.6607 26.4099 38.7291 26.4003C38.7388 26.4003 38.7535 26.4003 38.7779 26.4003C38.8219 26.4003 38.861 26.4003 38.905 26.4003C38.9685 26.4003 39.0467 26.4003 39.1151 26.4099C39.1249 26.4099 39.1395 26.4146 39.1591 26.4194C39.203 26.429 39.2421 26.4386 39.2812 26.453C39.3203 26.4673 39.3643 26.4769 39.4034 26.4961C39.4376 26.5104 39.5549 26.5631 39.4083 26.4961C39.7552 26.6589 40.1119 26.6014 40.3318 26.2326C40.4246 26.0746 40.4442 25.8399 40.4002 25.6675C40.3611 25.5094 40.2341 25.2939 40.0875 25.2268C39.6282 25.0113 39.1444 24.8868 38.646 24.949C38.1916 25.0065 37.7518 25.1502 37.3756 25.4424C37.0189 25.7154 36.711 26.0602 36.5009 26.4769C36.281 26.9128 36.1931 27.3821 36.1198 27.8659C36.0611 28.273 36.2126 28.637 36.5937 28.7711V28.7568Z" fill="#CC9D55"/>
<path d="M36.9114 20.9258C36.9114 33.0866 30.6814 40.3428 23 40.3428C15.3187 40.3428 9.08862 33.0866 9.08862 20.9258C9.08862 8.76497 15.3138 4.85187 23 4.85187C30.6862 4.85187 36.9114 8.76497 36.9114 20.9258Z" fill="#E2BF80"/>
<path d="M13.7306 20.7007C14.4 20.2361 15.1574 19.8673 15.9783 19.7236C16.7992 19.5751 17.6592 19.6661 18.4606 19.9295C18.7 20.011 18.8319 20.2792 18.7586 20.5378C18.6854 20.7965 18.4362 20.9449 18.2016 20.8635C18.1869 20.8587 18.1674 20.8491 18.1527 20.8444C17.4882 20.5282 16.7699 20.351 16.037 20.3846C15.304 20.4133 14.5711 20.648 13.8821 21.012C13.8039 21.0551 13.7062 21.0168 13.6671 20.9306C13.6329 20.8491 13.6573 20.7534 13.7257 20.7055L13.7306 20.7007Z" fill="#5B3D31"/>
<path d="M32.2693 20.7007C31.5999 20.2361 30.8425 19.8673 30.0216 19.7236C29.2007 19.5751 28.3407 19.6661 27.5394 19.9295C27.2999 20.011 27.168 20.2792 27.2413 20.5378C27.3146 20.7965 27.5638 20.9449 27.7983 20.8635C27.813 20.8587 27.8325 20.8491 27.8472 20.8444C28.5117 20.5282 29.23 20.351 29.963 20.3846C30.6959 20.4133 31.4289 20.648 32.1179 21.012C32.196 21.0551 32.2938 21.0168 32.3329 20.9306C32.3671 20.8491 32.3426 20.7534 32.2742 20.7055L32.2693 20.7007Z" fill="#5B3D31"/>
<path d="M18.6316 24.2833C18.6316 25.0065 18.0941 25.5956 17.4296 25.5956C16.765 25.5956 16.2275 25.0065 16.2275 24.2833C16.2275 23.5601 16.765 22.9709 17.4296 22.9709C18.0941 22.9709 18.6316 23.5601 18.6316 24.2833Z" fill="#2D2D2D"/>
<path d="M17.3661 23.9336C17.3661 24.1396 17.2146 24.3072 17.0241 24.3072C16.8335 24.3072 16.682 24.1396 16.682 23.9336C16.682 23.7277 16.8335 23.5601 17.0241 23.5601C17.2146 23.5601 17.3661 23.7277 17.3661 23.9336Z" fill="white"/>
<path d="M29.7774 24.2833C29.7774 25.0065 29.2399 25.5956 28.5753 25.5956C27.9108 25.5956 27.3733 25.0065 27.3733 24.2833C27.3733 23.5601 27.9108 22.9709 28.5753 22.9709C29.2399 22.9709 29.7774 23.5601 29.7774 24.2833Z" fill="#2D2D2D"/>
<path d="M28.5118 23.9336C28.5118 24.1396 28.3604 24.3072 28.1698 24.3072C27.9792 24.3072 27.8278 24.1396 27.8278 23.9336C27.8278 23.7277 27.9792 23.5601 28.1698 23.5601C28.3604 23.5601 28.5118 23.7277 28.5118 23.9336Z" fill="white"/>
<path d="M22.8827 27.2001C22.8582 27.1187 22.8094 27.0229 22.7361 26.9894C22.6335 26.9415 22.5308 26.9032 22.4136 26.9128C22.2963 26.9223 22.1986 26.9511 22.0911 27.0086C21.9054 27.1091 21.7784 27.3103 21.7197 27.521C21.666 27.7174 21.6757 27.9425 21.7295 28.1341C21.793 28.3449 21.9005 28.5221 22.0276 28.6897C22.0764 28.7568 22.1839 28.7951 22.2572 28.7951C22.3354 28.7951 22.4331 28.7568 22.4869 28.6897C22.5455 28.6227 22.5846 28.5316 22.5797 28.4406C22.5797 28.3449 22.5406 28.273 22.4869 28.1964L22.5015 28.2155C22.4478 28.1389 22.4038 28.0575 22.3696 27.9761C22.3549 27.9377 22.3452 27.8946 22.3354 27.8515C22.3354 27.818 22.3354 27.7845 22.3354 27.7509C22.3354 27.7318 22.3452 27.7078 22.3501 27.6887C22.3549 27.6743 22.3647 27.6599 22.3745 27.6456C22.3745 27.6456 22.3745 27.6456 22.3794 27.6408C22.3891 27.636 22.3989 27.6264 22.4087 27.6216C22.4136 27.6216 22.4185 27.6216 22.4233 27.6168C22.4282 27.6168 22.4331 27.6168 22.438 27.6168C22.4478 27.6168 22.4576 27.6168 22.4673 27.6264C22.4624 27.6264 22.4576 27.6216 22.4478 27.6168C22.4478 27.6168 22.4576 27.6168 22.4624 27.6168C22.5211 27.6408 22.5846 27.6504 22.653 27.6312C22.7263 27.6073 22.8094 27.545 22.8485 27.4684C22.8876 27.3869 22.9071 27.2864 22.8827 27.1953V27.2001Z" fill="#CC9D55"/>
<path d="M30.8475 29.0825C30.8475 29.9973 30.1683 30.7349 29.3328 30.7349C28.4972 30.7349 27.818 29.9925 27.818 29.0825C27.818 28.1724 28.4972 27.4301 29.3328 27.4301C30.1683 27.4301 30.8475 28.1724 30.8475 29.0825Z" fill="#E08F80"/>
<path d="M18.1821 29.0825C18.1821 29.9973 17.5029 30.7349 16.6674 30.7349C15.8318 30.7349 15.1526 29.9925 15.1526 29.0825C15.1526 28.1724 15.8318 27.4301 16.6674 27.4301C17.5029 27.4301 18.1821 28.1724 18.1821 29.0825Z" fill="#E08F80"/>
<path d="M25.9855 32.258C25.9855 32.8567 24.6027 34.2313 22.8925 34.2313C21.1823 34.2313 19.7994 32.8567 19.7994 32.258C19.7994 31.6593 21.1823 32.0664 22.8925 32.0664C24.6027 32.0664 25.9855 31.6593 25.9855 32.258Z" fill="white"/>
<path d="M37.3902 15.6237C36.8674 12.5583 35.5676 9.68457 33.6326 7.84057C31.4778 5.78105 28.7414 5.13445 26.0979 4.67465C22.6042 4.06637 18.9394 3.72631 15.6265 5.19671L15.8757 4.56449C12.9488 5.65652 10.4176 8.45843 9.10321 12.065C7.78878 15.6716 7.8914 21.2323 9.07878 24.9155C10.9356 23.0332 12.2207 19.7954 12.8804 16.505C12.9683 17.0366 13.1344 17.5443 13.4765 17.961C14.1019 18.7225 15.1769 18.8423 15.8659 18.1143C16.5207 17.4246 16.594 16.3517 16.2764 15.4608C16.12 15.0202 15.9197 14.5891 15.7047 14.1676C17.5273 15.5566 19.5551 16.5672 22.4625 17.3096C25.9953 18.2148 30.9842 17.9897 34.1164 17.7934C35.1278 21.1269 35.2696 22.7602 36.97 24.9107C37.6883 21.9124 37.9033 18.6794 37.3805 15.6141L37.3902 15.6237Z" fill="#5B3D31"/>
</g>
<defs>
<clipPath id="clip0_88_1211">
<rect width="46" height="56" fill="white"/>
</clipPath>
</defs>
</svg>
