<svg width="440" height="956" viewBox="0 0 440 956" fill="none" xmlns="http://www.w3.org/2000/svg">
<g clip-path="url(#clip0_263_3493)">
<g clip-path="url(#clip1_263_3493)">
<path d="M492.008 956C503.7 943.023 514.012 925.358 522.565 909.967C561.244 840.272 558.847 749.637 516.495 682.096C509.442 670.842 501.234 659.847 498.371 646.887C492.198 618.916 512.115 592.84 523.376 566.506C536.344 536.191 567.608 455.518 502.303 449.779C487.49 448.469 472.436 451.313 458.554 456.638C429.17 467.909 406.338 491.572 378.54 506.324C350.742 521.06 311.063 523.834 292.387 498.517C275.143 475.165 285.627 441.317 303.096 418.137C320.547 394.957 344.396 376.189 356.726 349.924C369.056 323.659 363.192 284.985 335.584 275.989C291.438 261.616 257.001 334.223 211.39 325.589C191.938 321.918 178.419 303.96 170.676 285.761C162.933 267.561 158.863 247.639 148.31 230.904C122.667 190.283 62.0189 181.063 20.4599 205.174C-21.0992 229.284 -43.1893 279.195 -43.034 327.209C-42.9478 354.939 -39.3438 389.132 -62.8134 403.919C-90.7148 421.498 -126.928 392.251 -159.279 398.731C-191.595 405.194 -206.321 445.505 -199.855 477.802C-193.388 510.099 -172.746 537.415 -158.14 566.937C-143.552 596.459 -135.499 633.685 -153.812 661.071C-168.573 683.148 -196.751 692.988 -212.512 714.359C-228.825 736.47 -228.756 766.527 -224.807 793.705C-219.703 828.811 -209.046 863.056 -193.681 895.008C-185.335 912.363 -173.591 934.337 -159.365 955.328L492.025 956H492.008Z" fill="white" fill-opacity="0.1"/>
<path d="M35.4054 98.0731C35.4054 98.0731 33.3786 48.4417 39.7227 48.6039C46.0669 48.7661 48.2028 94.1566 48.2028 94.1566C48.2028 94.1566 78.5015 48.763 85.7525 55.0588C93.0035 61.3545 59.2238 102.598 59.2238 102.598C59.2238 102.598 91.8172 97.2437 94.354 104.961C96.8768 112.687 61.2105 112.369 61.2105 112.369C61.2105 112.369 85.4213 144.027 78.4886 147.031C71.5559 150.035 52.2765 123.767 52.2765 123.767C52.2765 123.767 51.7643 172.387 44.1654 172.148C36.5694 171.899 36.1939 124.697 36.1939 124.697C36.1939 124.697 3.54741 143.558 0.406557 138.138C-2.73429 132.719 28.7947 116.091 28.7947 116.091C28.7947 116.091 -10.1282 102.148 -8.85068 97.3808C-7.5732 92.6132 26.2653 101.692 26.2653 101.692C26.2653 101.692 4.62165 77.5939 13.8025 72.8977C22.9863 68.1904 35.3995 98.0951 35.3995 98.0951L35.4054 98.0731Z" fill="#3F7BFE"/>
<path d="M438.654 689.656C438.654 689.656 433.587 670.315 405.273 660.731C405.273 660.731 407.339 677.321 422.993 688.255C422.993 688.255 396.59 687.92 383.055 702.887C383.055 702.887 410.931 710.356 423.225 701.103C423.225 701.103 411.198 717.167 415.034 731.674C415.034 731.674 432.584 723.591 438.661 689.668L438.654 689.656Z" fill="#674EF5"/>
<path d="M-2.61306 882.501C-2.61306 882.501 37.4019 898.491 73.6531 874.877C73.6531 874.877 54.3826 861.898 29.2726 862.274C29.2726 862.274 53.8108 840.202 59.3549 814.609C59.3549 814.609 26.6155 819.042 13.6203 841.124C13.6203 841.124 17.457 827.006 -1.24209 800.823C-1.23714 800.813 -27.9703 849.244 -2.61306 882.501Z" fill="#F5804E"/>
<path d="M244.709 891.447C255.289 890.247 265.539 886.217 274.119 879.897C277.339 877.517 280.639 873.747 279.269 869.987C277.879 866.197 272.789 865.477 268.819 866.187C260.639 867.637 246.919 877.267 248.569 879.507C250.219 881.747 257.879 877.627 260.609 873.817C263.339 870.007 264.439 865.287 265.169 860.667C265.819 856.557 265.589 851.247 261.749 849.657C258.379 848.257 254.719 850.897 252.359 853.697C246.959 860.107 240.829 876.107 243.479 876.737C246.129 877.367 249.299 864.417 248.459 857.767C248.139 855.207 247.389 852.607 245.719 850.647C244.039 848.677 241.279 847.487 238.809 848.217C236.289 848.967 234.679 851.407 233.599 853.807C229.469 862.997 231.299 882.427 235.489 882.787C239.679 883.147 235.459 870.057 231.749 865.047C229.499 862.007 225.409 859.437 222.079 861.227C218.949 862.917 218.599 867.277 219.309 870.757C221.329 880.737 228.969 889.387 238.629 892.597" stroke="white" stroke-opacity="0.3" stroke-linecap="round" stroke-linejoin="round"/>
<path d="M422.019 97.9583C417.322 104.537 414.449 112.111 413.431 119.687C412.406 127.271 413.227 134.965 416.079 141.804C418.94 148.649 423.707 154.291 429.552 158.302C435.405 162.319 442.398 164.772 449.868 165.066L451.59 152.738C446.413 152.45 441.398 150.618 437.238 147.645C433.072 144.681 429.766 140.551 427.898 135.847C426.021 131.137 425.507 125.676 426.325 120.301C427.134 114.919 429.269 109.631 432.484 105.281L422.019 97.9583Z" fill="#FEB800"/>
<path d="M423.514 878.823C427.695 864.766 426.267 849.113 419.625 836.039C419.424 846.834 409.204 858.704 400.708 865.372C395.305 869.618 388.835 872.243 382.559 875.034C376.281 877.834 369.958 880.954 365.209 885.925C360.461 890.895 357.514 898.108 359.306 904.748C361.231 911.9 368.352 916.852 375.698 917.795C383.047 918.729 390.47 916.256 396.887 912.551C409.588 905.218 419.331 892.89 423.514 878.823Z" fill="#FEB800"/>
<path d="M241.573 68.4356C242.56 65.865 246.596 65.5741 248.422 67.6326C250.256 69.696 249.974 73.0437 248.379 75.2866C246.784 77.5295 244.161 78.8326 241.526 79.6557C238.668 80.5459 235.23 81.3207 234.105 84.0892C232.717 87.5138 236.547 91.2606 240.246 91.1332C243.945 91.0058 247.043 88.3603 249.524 85.6239C252.009 82.8789 254.331 79.797 257.682 78.233C261.025 76.6639 265.809 77.3364 267.322 80.7157C268.654 83.6898 266.873 87.1536 264.621 89.5139C260.834 93.4935 255.537 95.9891 250.056 96.3814C248.103 96.5241 246.103 96.4085 244.233 96.9683C242.362 97.528 240.572 98.9886 240.379 100.944C240.152 103.296 242.419 105.309 244.761 105.633C247.103 105.958 249.424 105.057 251.579 104.085C257.879 101.233 263.842 97.6435 269.303 93.4059C270.896 92.1665 272.489 90.8464 274.417 90.2273C276.336 89.6033 278.696 89.8569 279.996 91.4045C282.208 94.0327 280.042 98.0245 277.557 100.389C273.509 104.241 268.486 107.08 263.093 108.562C260.952 109.15 258.696 109.557 256.811 110.743C254.925 111.929 253.481 114.19 254.064 116.339C254.683 118.648 257.415 119.856 259.788 119.586C262.161 119.316 264.258 117.964 266.254 116.645C270.472 113.861 274.694 111.068 278.911 108.283C282.158 106.14 286.679 104.05 289.579 106.625C292.722 109.422 290.53 114.68 287.589 117.693C277.72 127.826 260.764 130.115 248.564 122.967" stroke="white" stroke-opacity="0.3" stroke-linecap="round" stroke-linejoin="round"/>
<path d="M151.68 801.22C151.68 801.22 140.43 780.95 144.73 779.57C149.03 778.19 156.82 797.7 156.82 797.7C156.82 797.7 158.71 774.77 164.14 776.04C169.57 777.31 163.32 798.83 163.32 798.83C163.32 798.83 179.6 794.79 180.49 797.55C181.38 800.31 164.24 805.65 164.24 805.65C164.24 805.65 181.31 816.09 179.95 818.56C178.59 821.03 161.58 810.4 161.58 810.4C161.58 810.4 173.95 830.98 167.33 834.63C160.71 838.28 157.62 813.36 157.62 813.36C157.62 813.36 151.4 831.95 146.72 830.58C142.04 829.21 151.34 809.62 151.34 809.62C151.34 809.62 133.51 799.97 135.1 797.56C136.7 795.15 151.68 801.21 151.68 801.21V801.22Z" fill="#3F7BFE"/>
</g>
</g>
<defs>
<clipPath id="clip0_263_3493">
<rect width="440" height="956" fill="white"/>
</clipPath>
<clipPath id="clip1_263_3493">
<rect width="440" height="956" fill="white"/>
</clipPath>
</defs>
</svg>
