<svg width="41" height="61" viewBox="0 0 41 61" fill="none" xmlns="http://www.w3.org/2000/svg">
<g clip-path="url(#clip0_72_283)">
<path d="M33.0417 22.6464C33.5075 22.7792 33.8972 22.932 34.1582 23.3811C34.6106 24.1593 34.5033 25.4497 34.2773 26.2901C34.0609 27.0955 33.6862 27.9065 32.9365 28.3142C32.553 28.5226 32.0535 28.5045 31.6525 28.3638C31.7803 27.8694 31.8179 27.3431 31.8634 26.8349C32.0622 26.5058 32.1019 25.9626 32.2059 25.5821L33.0422 22.6455L33.0417 22.6464Z" fill="#F8B86B"/>
<path d="M8.07667 22.1964L9.17898 25.3504C9.30888 25.6861 9.4108 26.0722 9.60461 26.3733C9.66142 26.5601 9.6255 26.7849 9.61714 26.9803L9.57203 28.2193L9.42291 28.3073C9.30136 28.344 9.17062 28.3738 9.04448 28.3828C8.76295 28.4027 8.44508 28.338 8.2262 28.1447C7.2279 27.2633 6.73167 25.5467 6.66359 24.2353C6.63184 23.6248 6.71998 22.9665 7.14728 22.5075C7.45179 22.1805 7.66189 22.2132 8.07667 22.196V22.1964Z" fill="#F8B86B"/>
<path d="M36.8666 48.8683C39.042 52.1047 40.232 55.7993 40.7354 59.688C40.9659 61.4684 41.0645 63.3597 40.9308 65.1535L34.6883 65.1656C34.5329 60.4072 34.7535 55.4745 36.1499 50.9089C36.3579 50.2285 36.5621 49.5098 36.8662 48.8683H36.8666Z" fill="#069482"/>
<path d="M8.07668 22.1964C7.21162 19.5321 6.69075 16.6589 6.68782 13.8478C6.68699 12.9194 6.71372 11.9777 6.88498 11.0635C7.07754 10.0355 7.4401 8.99878 7.88996 8.06132C9.00857 5.7287 11.1284 3.87364 13.3543 2.73515L11.4329 1.63031C12.5076 1.12211 13.5602 0.643247 14.711 0.339535C17.0201 -0.270477 19.5308 -0.0275937 21.7526 0.826165C23.2313 1.39433 24.6498 2.24981 25.8415 3.31798L26.7216 4.16786C26.816 4.26147 26.9809 4.46941 27.0946 4.52463C27.2316 4.5915 27.5323 4.58633 27.694 4.62041C28.0068 4.68641 28.3201 4.78736 28.6188 4.90384C30.6926 5.71187 32.5247 7.48151 33.4361 9.56133C34.8918 12.8828 34.3918 17.127 33.5881 20.5679C33.4286 21.2508 33.2774 21.9894 33.0418 22.6468L32.2055 25.5834C32.1015 25.9639 32.0619 26.5071 31.863 26.8362C31.4403 25.1356 31.5773 23.2991 31.1496 21.589C30.998 20.982 30.6074 20.4531 30.2795 19.9359C29.224 18.2706 28.0398 16.7365 26.8172 15.2011C26.2604 14.5018 25.74 13.7766 25.1209 13.1334L23.8787 14.4979C22.347 15.979 20.3458 16.8905 18.2619 17.1037C17.6917 17.1619 17.1207 17.1438 16.5493 17.1231C17.9494 16.0963 18.9189 14.9259 19.6136 13.3034C17.2147 14.2607 14.7958 15.5277 12.7971 17.2111C12.0523 17.8379 11.326 18.5355 10.7926 19.3677C10.4384 19.9208 10.1364 20.5204 9.9438 21.1546C9.60086 22.2857 9.54406 23.5864 9.52777 24.7659C9.52025 25.2935 9.50187 25.8561 9.60462 26.3738C9.41123 26.0726 9.30889 25.6861 9.17899 25.3509L8.07668 22.1969V22.1964Z" fill="#32120D"/>
<path d="M9.60457 26.3733C9.50182 25.8556 9.5202 25.2931 9.52771 24.7654C9.54442 23.586 9.60081 22.2853 9.94374 21.1541C10.1363 20.5199 10.4379 19.9199 10.7925 19.3672C11.3259 18.535 12.0523 17.8374 12.7971 17.2106C14.7957 15.5277 17.2151 14.2606 19.6135 13.3029C18.9189 14.9254 17.9494 16.0954 16.5493 17.1226C17.1207 17.1429 17.6917 17.1614 18.2618 17.1032C20.3453 16.8901 22.3469 15.9781 23.8786 14.4975L25.1209 13.1329C25.7395 13.7766 26.2604 14.5018 26.8172 15.2007C28.0398 16.7365 29.2239 18.2702 30.2795 19.9354C30.6074 20.4526 30.9979 20.982 31.1495 21.5885C31.5773 23.2987 31.4403 25.1352 31.863 26.8358C31.8174 27.344 31.7799 27.8703 31.652 28.3647C30.9866 31.6162 29.0364 34.7668 26.3318 36.5921C25.93 36.8634 25.4901 37.1115 25.0449 37.297C25.0378 37.6007 25.0511 37.923 25.0123 38.2228L25.0294 39.3324L24.9872 39.4851C23.8327 40.363 22.2814 40.901 20.847 40.8717C19.4811 40.844 18.2714 40.4031 17.2092 39.5063C16.8922 39.2388 16.6269 38.9299 16.345 38.6257V38.3C16.2995 38.0416 16.3216 37.7513 16.3195 37.4877C13.2264 36.02 10.9228 33.2922 9.87649 29.9501C9.77207 29.6162 9.67015 29.2672 9.59747 28.9238C9.56865 28.7866 9.57784 28.5062 9.52604 28.394C9.50683 28.3526 9.45754 28.3362 9.42371 28.3069L9.57282 28.2189L9.61794 26.9799C9.62629 26.7844 9.66221 26.5592 9.60541 26.3729L9.60457 26.3733Z" fill="#FAC17C"/>
<path d="M18.4753 31.8686L18.535 31.872L18.6298 31.9493C19.4631 32.5796 20.5984 32.781 21.5838 32.4514C21.8653 32.3574 22.1201 32.1533 22.4088 32.1033L22.4881 32.1913L22.4188 32.3155C22.3219 32.4031 22.2112 32.4674 22.0988 32.5308C21.3382 32.9609 20.3219 33.0144 19.5045 32.7448C19.2292 32.6542 18.5396 32.3509 18.4218 32.0584C18.3972 31.9971 18.4506 31.9251 18.4749 31.8686H18.4753Z" fill="#DC3726"/>
<path d="M25.3945 19.498L25.6054 19.479C26.7249 19.4406 27.8297 19.9121 28.6338 20.715C28.818 20.8992 28.9165 21.0075 28.9224 21.284C28.8288 21.4251 28.81 21.4363 28.658 21.5053C28.4082 21.482 28.1943 21.1658 28.0122 20.9988C27.8781 20.8755 27.7248 20.7723 27.5761 20.6688C26.6605 20.0838 25.7011 19.9164 24.6681 20.2784C24.4484 20.3552 24.123 20.5506 23.8991 20.5614C23.7659 20.5679 23.7358 20.5139 23.6502 20.4246C23.6226 20.2849 23.5921 20.2352 23.6828 20.1127C23.9426 19.7616 24.9747 19.5635 25.3949 19.4984L25.3945 19.498Z" fill="#040000"/>
<path d="M15.2281 19.4522C15.8634 19.422 16.665 19.5924 17.2172 19.9294C17.3725 20.0243 17.4227 20.048 17.4724 20.2262C17.4394 20.4108 17.4072 20.4604 17.2761 20.5898C17.0409 20.6343 16.7046 20.3966 16.472 20.2982C15.5961 19.9263 14.6834 20.0752 13.8334 20.4363C13.6041 20.554 13.3722 20.6826 13.1663 20.8414C12.9616 20.9988 12.6308 21.438 12.3961 21.4984C12.3384 21.5131 12.277 21.5001 12.2173 21.501C12.0757 21.4048 12.0849 21.3798 12.036 21.2193C12.0498 21.1093 12.059 21.0571 12.1258 20.9652C12.2495 20.7952 12.4687 20.636 12.6279 20.501C13.4123 19.8344 14.2235 19.5484 15.2281 19.4526V19.4522Z" fill="#040000"/>
<path d="M25.6013 22.5135C25.7884 22.5062 25.9872 22.5243 26.1597 22.6058C26.4241 22.7309 26.6075 23.0096 26.7007 23.2849C26.8256 23.6546 26.8022 24.0722 26.6263 24.4212C26.4722 24.7271 26.2333 24.8845 25.9262 24.995C25.7654 24.9989 25.6142 25.0062 25.4613 24.9471C25.1535 24.828 24.9534 24.602 24.8269 24.2913C24.6878 23.9497 24.6936 23.5454 24.831 23.2046C24.9923 22.8047 25.2312 22.6611 25.6017 22.5135H25.6013Z" fill="#040000"/>
<path d="M15.0548 22.5113C15.2381 22.5036 15.457 22.4794 15.6304 22.5502C15.9144 22.6662 16.132 22.9432 16.2506 23.2262C16.3843 23.5454 16.3739 23.9371 16.2381 24.2542C16.0894 24.6015 15.8722 24.8047 15.5372 24.9484C15.4069 24.9751 15.2908 24.9984 15.1588 24.9686C14.8676 24.9026 14.5932 24.6809 14.4453 24.416C14.2678 24.0981 14.2135 23.649 14.3179 23.2948C14.437 22.8905 14.7085 22.696 15.0548 22.5113Z" fill="#040000"/>
<path d="M16.3438 38.3L16.3588 37.486L16.931 37.7245C19.5337 38.6943 22.499 38.571 24.9989 37.3458L25.0119 38.2228L25.029 39.3324L24.9868 39.4851C23.8323 40.363 22.2809 40.901 20.8466 40.8717C19.4807 40.8441 18.271 40.4032 17.2088 39.5063C16.8918 39.2388 16.6265 38.9299 16.3446 38.6258V38.3H16.3438Z" fill="#EF9E57"/>
<path d="M16.3446 38.6262C16.6266 38.9308 16.8918 39.2393 17.2089 39.5067C18.2711 40.4036 19.4807 40.8445 20.8466 40.8721C22.2814 40.901 23.8323 40.3631 24.9868 39.4856L25.029 39.3329C25.0796 39.7022 25.131 40.3484 25.4133 40.5904L25.6514 40.6711C26.9726 41.1077 28.2558 41.59 29.4959 42.2367C31.7903 43.5891 33.8584 45.2087 35.6044 47.2652C36.0409 47.7794 36.4932 48.3032 36.8667 48.8683C36.5622 49.5098 36.3583 50.229 36.1503 50.9089C34.7539 55.4745 34.5334 60.4072 34.6888 65.1656L6.61514 65.1596L6.64521 62.3779C6.65775 60.16 6.60762 57.9857 6.34155 55.7808C6.22877 54.8468 6.10053 53.9067 5.87205 52.9939C5.50949 51.5456 4.93515 50.2104 4.41302 48.823C4.44853 48.6543 4.77058 48.2898 4.87667 48.1483C6.06378 46.5646 7.40418 45.2622 8.94967 44.0546C9.85273 43.3812 10.765 42.7608 11.762 42.2444L15.637 40.5412C16.122 40.0425 16.2836 39.3018 16.3446 38.6262Z" fill="#3BB89D"/>
<path d="M16.3446 38.6262C16.6266 38.9308 16.8918 39.2393 17.2088 39.5067C18.2711 40.4036 19.4807 40.8445 20.8466 40.8721C22.2814 40.901 23.8323 40.3631 24.9868 39.4856L25.029 39.3329C25.0796 39.7022 25.1309 40.3484 25.4133 40.5904L25.6514 40.6711C26.9726 41.1077 28.2558 41.59 29.4959 42.2367C29.4249 42.8803 29.3522 43.5555 29.1872 44.1815C28.8923 45.2997 28.3619 46.2402 27.6948 47.1616C26.4576 48.8718 24.189 49.8575 22.1974 50.1569C19.9381 50.4969 17.3864 49.9593 15.5422 48.5266C13.6354 47.0452 12.1 44.7225 11.7625 42.244L15.6375 40.5408C16.1224 40.0421 16.2841 39.3014 16.345 38.6258L16.3446 38.6262Z" fill="#069482"/>
<path d="M16.3446 38.6262C16.6266 38.9308 16.8918 39.2393 17.2088 39.5067C18.2711 40.4036 19.4807 40.8445 20.8466 40.8721C22.2814 40.901 23.8323 40.3631 24.9868 39.4856L25.029 39.3329C25.0796 39.7022 25.1309 40.3484 25.4133 40.5904L25.6514 40.6711L25.3795 42.304C25.3085 42.7341 25.245 43.1918 25.0553 43.5857C24.5771 44.5771 23.3837 45.364 22.3879 45.7009C21.1448 46.122 19.8094 46.0283 18.6474 45.4088C17.2895 44.6849 16.2978 43.3743 15.886 41.8583C15.777 41.4576 15.7912 40.9929 15.6625 40.6116L15.6375 40.5412C16.1224 40.0425 16.2841 39.3018 16.345 38.6262H16.3446Z" fill="#F8B86B"/>
<path d="M4.41258 48.823C4.93471 50.2104 5.50905 51.5461 5.87161 52.9939C6.10009 53.9067 6.22833 54.8468 6.34111 55.7808C6.60718 57.9857 6.65731 60.16 6.64477 62.3779L6.6147 65.1596L0 65.1458L0.433991 60.5409C0.564313 59.4572 0.78277 58.3796 1.00916 57.3136C1.31492 55.8709 1.67665 54.4477 2.20212 53.0711C2.56844 52.1112 3.01245 51.2022 3.47902 50.2915L3.90007 49.581L4.413 48.8234L4.41258 48.823Z" fill="#069482"/>
</g>
<defs>
<clipPath id="clip0_72_283">
<rect width="40.991" height="65.1652" fill="white"/>
</clipPath>
</defs>
</svg>
