<svg width="16" height="16" viewBox="0 0 16 16" fill="none" xmlns="http://www.w3.org/2000/svg">
<g clip-path="url(#clip0_137_2914)">
<path d="M15.5521 5.80287L10.6578 5.09171L8.46903 0.656746C8.27759 0.268809 7.72256 0.268621 7.53097 0.656746L5.34222 5.09171L0.448 5.80287C0.0199692 5.86509 -0.151937 6.39284 0.158125 6.69503L3.69959 10.1472L2.86353 15.0216C2.82984 15.2178 2.9105 15.4161 3.07163 15.5332C3.23269 15.6502 3.44619 15.6656 3.62244 15.573L8 13.2716C12.7658 15.7771 12.4385 15.6331 12.6209 15.6331C12.9433 15.6331 13.1915 15.3425 13.1365 15.0216L12.3004 10.1472L15.8419 6.69503C16.1517 6.39306 15.9804 5.86515 15.5521 5.80287Z" fill="#F7AC16"/>
<path d="M8.00003 0.365234C7.80053 0.365234 7.61891 0.478641 7.53094 0.656797L5.34219 5.09177L0.448 5.80292C0.0199692 5.86514 -0.151937 6.39289 0.158125 6.69508L3.69959 10.1472L2.86353 15.0216C2.82984 15.2179 2.9105 15.4162 3.07163 15.5332C3.23269 15.6502 3.44619 15.6657 3.62244 15.573L8 13.2717H8.00003V0.365234Z" fill="#F2D422"/>
<path d="M0.448 5.80298C0.0199692 5.8652 -0.151937 6.39295 0.158125 6.69514L3.69959 10.1473L2.86353 15.0217C2.82984 15.218 2.9105 15.4162 3.07163 15.5333C3.23269 15.6503 3.44619 15.6657 3.62244 15.5731L8 13.2717C12.7658 15.7772 12.4385 15.6332 12.6209 15.6332C12.7293 15.6332 12.8373 15.5995 12.9284 15.5333L5.34219 5.0918L0.448 5.80298Z" fill="#F7AC16"/>
<path d="M5.57994 9.54516C1.78638 5.84731 1.94944 6.0455 1.89853 5.85372C1.87781 5.77669 1.87356 5.68706 1.89609 5.59253L0.448 5.80294C0.0199692 5.86515 -0.151937 6.3929 0.158125 6.69509L3.69959 10.1472L2.86353 15.0217C2.82984 15.2179 2.9105 15.4162 3.07163 15.5333C3.23269 15.6503 3.44619 15.6657 3.62244 15.5731L4.90953 14.8964C4.77713 14.7772 4.71331 14.5977 4.74388 14.4196L5.57994 9.54516Z" fill="#F48B19"/>
<path d="M0.158151 6.69512L3.69962 10.1472L2.86356 15.0217C2.82987 15.2179 2.91053 15.4162 3.07165 15.5333C3.23271 15.6503 3.44621 15.6657 3.62246 15.5731L8.00003 13.2717C12.7658 15.7772 12.4385 15.6332 12.6209 15.6332C12.9433 15.6332 13.1915 15.3426 13.1365 15.0217L12.3005 10.1472L0.0257448 6.15894C-0.0354114 6.37815 0.0258073 6.56619 0.158151 6.69512Z" fill="#F2D422"/>
<path d="M0.158151 6.69512L3.69962 10.1472L2.86356 15.0217C2.82987 15.2179 2.91053 15.4162 3.07165 15.5333C3.23271 15.6503 3.44621 15.6657 3.62246 15.5731L4.90956 14.8964C4.77715 14.7772 4.71334 14.5977 4.7439 14.4196L5.57996 9.54516L3.14628 7.17287L0.0257448 6.15894C-0.0354114 6.37815 0.0258073 6.56619 0.158151 6.69512Z" fill="#EFB616"/>
<path d="M2.86351 15.0217C2.82983 15.2179 2.91048 15.4162 3.07161 15.5332C3.23267 15.6502 3.44617 15.6657 3.62242 15.573L7.99998 13.2717C12.7658 15.7772 12.4384 15.6332 12.6209 15.6332C12.9433 15.6332 13.1915 15.3425 13.1364 15.0217L12.3004 10.1472L15.8419 6.69509C15.9844 6.55612 16.0357 6.34825 15.9743 6.15894L3.69958 10.1472L2.86351 15.0217Z" fill="#F7AC16"/>
<path d="M2.86351 15.0218C2.82983 15.218 2.91048 15.4163 3.07161 15.5334C3.23267 15.6504 3.44617 15.6658 3.62242 15.5731L4.90951 14.8965C4.77711 14.7772 4.71329 14.5977 4.74386 14.4197L5.57992 9.54523L5.57308 9.53857L3.69958 10.1473L2.86351 15.0218Z" fill="#F48B19"/>
<path d="M3.6225 15.573L8.00003 13.2717C12.7658 15.7772 12.4385 15.6332 12.6209 15.6332C12.9433 15.6332 13.1915 15.3425 13.1365 15.0217L12.3005 10.1472L15.842 6.69511C16.1517 6.39314 15.9804 5.86523 15.5521 5.80295L10.6578 5.0918L3.07166 15.5333C3.23272 15.6503 3.44622 15.6657 3.6225 15.573Z" fill="#F2D422"/>
<path d="M15.9743 6.15894L8.00003 8.74994L3.07166 15.5333C3.23272 15.6503 3.44622 15.6657 3.62247 15.5731L8.00003 13.2717C12.7658 15.7772 12.4385 15.6332 12.6209 15.6332C12.9433 15.6332 13.1915 15.3426 13.1365 15.0217L12.3005 10.1472L15.842 6.69512C15.9845 6.55612 16.0358 6.34828 15.9743 6.15894Z" fill="#F7AC16"/>
<path d="M12.3005 10.1473L8.00003 8.75L3.07166 15.5333C3.23272 15.6503 3.44622 15.6658 3.62247 15.5731L8.00003 13.2718C12.7658 15.7773 12.4385 15.6333 12.6209 15.6333C12.9433 15.6333 13.1915 15.3426 13.1365 15.0218L12.3005 10.1473Z" fill="#F2D422"/>
<path d="M3.07166 15.5333C3.23272 15.6503 3.44622 15.6658 3.62247 15.5731L8.00003 13.2718C12.7658 15.7773 12.4385 15.6333 12.6209 15.6333C12.7294 15.6333 12.8373 15.5995 12.9284 15.5333L8.00003 8.75L3.07166 15.5333Z" fill="#F7AC16"/>
<path d="M8.00006 8.75006L8.00003 8.75L3.07166 15.5333C3.23272 15.6503 3.44622 15.6658 3.62247 15.5731L8.00003 13.2718H8.00006V8.75006Z" fill="#F2D422"/>
<path d="M5.01062 12.8645L3.07166 15.5333C3.23272 15.6503 3.44622 15.6657 3.62247 15.573L4.90956 14.8964C4.77716 14.7771 4.71334 14.5976 4.74391 14.4196L5.01062 12.8645Z" fill="#EFB616"/>
</g>
<defs>
<clipPath id="clip0_137_2914">
<rect width="16" height="16" fill="white"/>
</clipPath>
</defs>
</svg>
