<svg width="39" height="65" viewBox="0 0 39 65" fill="none" xmlns="http://www.w3.org/2000/svg">
<g clip-path="url(#clip0_72_258)">
<path d="M6.45028 36.8368L6.49645 36.893L11.0546 35.3344C11.0559 35.7431 11.1098 38.8804 11.2046 38.9808C11.3273 40.3102 11.5367 41.6062 11.7824 42.9184C12.4764 46.6245 13.6113 50.2445 15.4049 53.5773C16.0174 54.7152 16.6767 55.8154 17.4783 56.8338C18.0418 57.5495 18.6711 58.1881 19.3344 58.8122L19.388 58.8263L19.3852 64.2543L6.08004 64.2666L5.14126 64.2727L0.135394 64.2721L0 61.1573L0.166067 50.9418C0.309827 48.2753 0.488906 45.5692 1.20244 42.9813C1.44379 42.1058 1.80102 41.2334 2.24593 40.4412C2.76706 39.5134 3.49825 38.6889 4.34718 38.0423C4.65979 37.8042 4.98635 37.5903 5.3315 37.401C5.52731 37.2934 5.72312 37.1892 5.92946 37.1032C6.04689 37.0543 6.32542 36.9821 6.41279 36.9087C6.43355 36.8912 6.43789 36.8607 6.45028 36.8371V36.8368Z" fill="#DC3726"/>
<path d="M32.472 37.015L32.4259 37.0712L27.4231 35.2625C27.4219 35.6712 27.4231 38.8887 27.4231 39.1388C27.3004 40.4682 27.3856 41.7844 27.1399 43.0965C26.4459 46.8027 25.311 50.4227 23.5174 53.7555C22.9049 54.8934 22.2456 55.9936 21.444 57.012C20.8805 57.7277 20.0724 58.2091 19.4091 58.8333V64.2727L32.8423 64.4448L33.781 64.4509L38.7869 64.4503L38.9223 61.3355L38.7562 51.12C38.6125 48.4535 38.4334 45.7474 37.7199 43.1595C37.4785 42.284 37.1213 41.4116 36.6764 40.6194C36.1552 39.6916 35.424 38.8671 34.5751 38.2205C34.2625 37.9824 33.936 37.7685 33.5908 37.5792C33.395 37.4716 33.1992 37.3674 32.9928 37.2814C32.8754 37.2325 32.5969 37.1603 32.5095 37.0869C32.4888 37.0694 32.4844 37.0389 32.472 37.0153V37.015Z" fill="#DC3726"/>
<path d="M5.08963 64.2727L5.07405 64.2091C4.96001 63.7611 4.75343 63.308 4.60044 62.8709L4.00095 60.8796C3.25347 58.0864 3.03473 54.9907 3.69467 52.1546C3.89377 51.2982 4.1664 50.4462 4.56056 49.6716L5.23669 48.5172C4.92511 49.4957 4.59764 50.4465 4.39043 51.4606C3.84111 54.1479 3.98911 57.429 5.11299 59.9247C5.36849 60.4922 5.6564 61.062 6.05678 61.5259L6.03372 64.266L5.08963 64.2727Z" fill="#B7271A"/>
<path d="M33.3201 64.2727L33.3357 64.2091C33.4497 63.7611 33.6563 63.308 33.8093 62.8709L34.4088 60.8796C35.1563 58.0864 35.375 54.9907 34.7151 52.1546C34.516 51.2982 34.2433 50.4462 33.8492 49.6716L33.173 48.5172C33.4846 49.4957 33.8121 50.4465 34.0193 51.4606C34.5686 54.1479 34.4206 57.429 33.2967 59.9247C33.0412 60.4922 32.7533 61.062 32.3529 61.5259L32.376 64.266L33.3201 64.2727Z" fill="#B7271A"/>
<path d="M23.4892 29.6974C23.5626 30.9949 23.7829 33.2917 24.7988 34.1896C25.2788 34.614 26.128 34.7668 26.7346 34.9613C26.9515 35.0307 27.2195 35.153 27.4423 35.1826L27.4237 37.6763C27.4206 38.0368 27.4513 38.436 27.4094 38.7906C27.0281 39.2221 26.7176 39.6732 26.2975 40.0758C24.6895 41.6169 22.4538 42.3962 20.2509 42.5419C17.433 42.7281 14.4674 41.8815 12.3311 40.0192L11.2418 38.9489L11.2046 38.9812C11.1098 38.8807 11.0559 35.7431 11.0546 35.3347L12.693 34.7996C13.1676 34.6374 13.7913 34.5022 14.1678 34.1648C15.0954 33.3341 15.2466 31.0179 15.3243 29.8517C15.4455 29.8797 15.5648 29.9885 15.6667 30.0591L16.2873 30.4553C17.0138 30.8714 17.829 31.073 18.651 31.1977C19.9559 31.3959 21.3942 31.0573 22.5226 30.3889C22.8658 30.1855 23.1679 29.9322 23.4889 29.6978L23.4892 29.6974Z" fill="#F8B86B"/>
<path d="M6.45029 36.8367C6.58538 36.1874 6.64951 35.3844 6.41869 34.7476C6.22783 34.2212 5.88238 33.8727 5.48642 33.4917C4.52689 32.5682 3.61166 31.7585 3.48277 30.3593C3.3576 29.0026 3.7579 27.6615 4.53122 26.5423C4.78652 26.1732 5.0917 25.8428 5.37953 25.4993C6.13055 24.6032 6.48406 23.4354 6.37407 22.279C6.30281 21.5295 6.08624 20.7855 5.93226 20.0492C5.75845 19.217 5.63483 18.3762 5.55582 17.5299C5.15645 13.2448 6.50544 8.6165 9.28396 5.29575C9.74096 4.74967 10.2599 4.15595 10.8514 3.754C11.6907 3.18364 12.6856 2.97098 13.6798 2.8791C13.7337 2.81333 13.7154 2.84283 13.7504 2.77553C14.1089 2.0844 14.8835 1.47563 15.5511 1.08996C17.7955 -0.206869 20.6295 -0.230224 23.0836 0.41604C26.7889 1.39204 30.0551 3.90027 31.9673 7.18845C33.5589 9.92531 34.173 13.1333 34.0435 16.2672C34.0001 17.3182 33.8848 18.3839 33.6475 19.41C33.3944 20.5034 32.9234 21.5316 32.6341 22.6127C32.4324 23.3653 32.3001 24.204 32.4283 24.9787C32.5591 25.766 32.9684 26.5183 33.4139 27.1716C33.7705 27.6944 34.1637 28.191 34.48 28.7404C34.7155 29.1491 34.9116 29.5852 34.9516 30.0597C34.9974 30.6018 34.8453 31.1276 34.6541 31.6294C34.3489 32.4299 33.9282 33.2062 33.4052 33.8875C32.9495 34.4809 32.2963 35.0654 32.1151 35.8155C32.0472 36.0967 32.4212 36.9042 32.5572 37.1381C32.0218 37.0446 31.0757 36.6643 30.5537 36.5128L27.4232 35.2624C27.2004 35.2326 26.9515 35.0316 26.7346 34.9621C26.128 34.7679 25.2788 34.6152 24.7988 34.1905C23.7829 33.2925 23.5626 30.9957 23.4892 29.6983C23.1682 29.9328 22.8661 30.186 22.5229 30.3894C21.3945 31.0578 19.9563 31.3965 18.6513 31.1983C17.8293 31.0735 17.0141 30.8719 16.2876 30.4558L15.667 30.0597C15.5648 29.989 15.4455 29.8802 15.3247 29.8523C15.2469 31.0185 15.096 33.335 14.1681 34.1653C13.7913 34.5024 13.168 34.6379 12.6933 34.8002L11.0549 35.3352L6.49676 36.8939L6.4506 36.8376L6.45029 36.8367Z" fill="#04161E"/>
<path d="M28.9356 15.6437C29.1646 15.6416 29.405 15.6487 29.6318 15.6164C29.8651 15.5832 30.1114 15.515 30.3463 15.5122C30.8163 16.0826 30.9272 16.7854 30.8612 17.5069C30.7444 18.7776 30.1021 20.0794 29.1004 20.8925C28.7909 21.1436 28.3866 21.3867 28.0037 21.5016C28.0331 21.2585 28.1276 21.0093 28.1899 20.7721L28.4287 19.7005C28.6875 18.3778 28.8486 16.9885 28.9362 15.644L28.9356 15.6437Z" fill="#EF9E57"/>
<path d="M10.9269 21.4109C10.7981 21.3949 10.6738 21.3783 10.5527 21.3289C9.57239 20.9291 8.79782 19.9119 8.41488 18.9595C8.09389 18.1615 7.86555 17.0297 8.23951 16.211C8.40279 15.8536 8.68597 15.5696 9.06241 15.436C9.472 15.2903 9.907 15.3733 10.2831 15.5629C10.2339 15.8751 10.2525 16.2058 10.2531 16.5217C10.2556 17.7199 10.4164 18.9174 10.6422 20.0932C10.7259 20.5286 10.8786 20.9739 10.9269 21.4106V21.4109Z" fill="#EF9E57"/>
<path d="M10.2835 15.5632C10.4012 13.7768 10.7981 12.1124 11.6325 10.5175C12.0631 9.69456 12.5812 8.94166 13.2879 8.32459C13.9013 7.78896 14.5929 7.52867 15.3742 7.32677C15.7389 7.23273 16.1352 7.1387 16.5135 7.16021C17.2078 7.19954 17.8073 7.67126 18.2454 8.17309C18.7015 8.69551 19.0107 9.34515 19.4299 9.90046C20.1496 10.854 20.9344 11.7529 21.8255 12.5525C22.3184 12.9947 22.851 13.3914 23.3799 13.79C23.079 13.8586 22.3125 13.9793 22.1418 14.2368C22.1046 14.2928 22.1204 14.3244 22.1254 14.3874C22.1991 14.4808 22.2137 14.4864 22.3268 14.5266C22.807 14.4707 23.2153 14.2313 23.7173 14.2439C24.2074 14.2565 24.6105 14.4959 25.0442 14.6941C25.4043 14.8585 25.7695 15.0073 26.146 15.1305C27.073 15.4338 27.9671 15.5656 28.9354 15.6437C28.848 16.9882 28.6866 18.3775 28.4279 19.7001L28.189 20.7717C28.1267 21.0089 28.0322 21.2582 28.0028 21.5013C27.8906 21.9604 27.7097 22.4093 27.5322 22.8472C26.8493 24.5294 25.8166 26.1314 24.4813 27.3763C24.1746 27.6624 23.8437 27.962 23.4973 28.1993L23.4902 28.2027L23.4889 29.6974C23.1679 29.9319 22.8659 30.1851 22.5226 30.3885C21.3942 31.0569 19.956 31.3956 18.651 31.1974C17.829 31.0726 17.0138 30.871 16.2873 30.4549L15.6667 30.0588C15.5645 29.9881 15.4452 29.8793 15.3244 29.8514L15.2977 28.1925C14.8729 27.7995 14.4296 27.4535 14.0256 27.0315C12.518 25.4566 11.5463 23.4738 10.9267 21.4106C10.8787 20.9742 10.7259 20.5286 10.642 20.0932C10.4161 18.9174 10.2553 17.7199 10.2528 16.5217C10.2522 16.2058 10.2339 15.8748 10.2829 15.5629L10.2835 15.5632Z" fill="#FAC17C"/>
<path d="M14.1901 13.7415C14.9017 13.677 15.7355 13.7692 16.3545 14.1588C16.4537 14.2212 16.4939 14.2596 16.52 14.3696C16.5014 14.408 16.4806 14.4606 16.4506 14.4935C16.3883 14.5617 16.3161 14.5851 16.2256 14.5669C16.0701 14.5356 15.8954 14.4357 15.7435 14.3807C15.3832 14.2498 15.0148 14.1942 14.6337 14.1674C14.1733 14.2135 13.7325 14.3057 13.3139 14.5088C13.1165 14.6047 12.9086 14.8263 12.6927 14.8558C12.6351 14.8638 12.5839 14.8306 12.5461 14.7876C12.4798 14.7123 12.4863 14.6551 12.4907 14.5642C12.5929 14.412 12.7568 14.3278 12.9133 14.2384C13.3288 14.0012 13.7263 13.8537 14.1898 13.7412L14.1901 13.7415Z" fill="#04161E"/>
<path d="M23.4511 15.8588C23.5549 15.853 23.6581 15.8496 23.7606 15.8705C24.0172 15.9227 24.1972 16.0801 24.3282 16.2995C24.494 16.5773 24.5197 16.9162 24.4308 17.2242C24.3335 17.5616 24.1284 17.7143 23.8341 17.8683C23.721 17.883 23.5967 17.8892 23.4855 17.8597C23.2355 17.7933 23.061 17.6427 22.9427 17.4175C22.7949 17.136 22.7686 16.8096 22.872 16.5088C22.9826 16.1873 23.1447 16.0085 23.4514 15.8588H23.4511Z" fill="#040000"/>
<path d="M14.9789 15.8238C15.1068 15.8333 15.2373 15.8438 15.3559 15.896C15.5917 15.9999 15.7556 16.231 15.8334 16.4685C15.9341 16.7761 15.9127 17.1317 15.7627 17.4199C15.6283 17.6778 15.4448 17.7976 15.1688 17.8809C15.0139 17.8778 14.8729 17.8652 14.7319 17.7958C14.5194 17.691 14.345 17.4955 14.274 17.2697C14.1739 16.9507 14.2074 16.5558 14.3818 16.2672C14.5256 16.0297 14.7133 15.8932 14.9789 15.8238Z" fill="#040000"/>
<path d="M17.3928 23.901C17.6794 23.8583 18.0849 24.0067 18.3805 24.0562C18.6627 24.1035 18.9493 24.1263 19.2353 24.1315C19.723 24.1401 20.1967 24.121 20.6806 24.0547C21.0146 24.0089 21.3468 23.9108 21.6851 23.917C21.7846 24.0221 21.7709 24.0291 21.7734 24.1662C21.6752 24.3285 21.537 24.4339 21.3923 24.5528C20.8027 24.9348 20.2271 25.0752 19.5278 25.0768C18.7864 25.0786 17.9796 24.9068 17.4498 24.3586C17.3283 24.2329 17.2772 24.1459 17.2818 23.9717L17.3928 23.901Z" fill="#DC3726"/>
<path d="M15.2977 28.1926L15.3237 28.2067C15.609 28.369 15.8529 28.6028 16.1354 28.7761C17.4646 29.5908 18.9669 30.1489 20.5396 29.7469C21.6389 29.466 22.555 28.8069 23.4907 28.2024L23.4895 29.6971C23.1685 29.9316 22.8664 30.1848 22.5231 30.3883C21.3947 31.0567 19.9565 31.3953 18.6515 31.1971C17.8296 31.0723 17.0144 30.8707 16.2879 30.4546L15.6673 30.0585C15.565 29.9878 15.4458 29.8791 15.3249 29.8511L15.2983 28.1923L15.2977 28.1926Z" fill="#EF9E57"/>
</g>
<defs>
<clipPath id="clip0_72_258">
<rect width="38.8182" height="64.2727" fill="white"/>
</clipPath>
</defs>
</svg>
